<svg width="241" height="332" viewBox="0 0 241 332" fill="none" xmlns="http://www.w3.org/2000/svg">
<path d="M24.048 188.999C49.701 212.543 65.1019 224.305 81.2859 252.335C96.6619 278.966 162.659 288.771 193.205 277.51C157.152 213.703 63.402 47.0518 37.257 0.570801C-18.803 88.0238 -1.58302 165.478 24.048 188.999Z" fill="url(#paint0_linear_333_671)"/>
<path d="M235.639 163.219C218.399 133.359 216.479 113.781 209.407 81.9817C201.844 47.9917 141.365 -4.61829 37.4089 0.324706C37.3559 0.407706 37.3089 0.4887 37.2559 0.5717C63.4009 47.0517 157.151 213.704 193.204 277.511C194.806 276.92 196.338 276.288 197.732 275.581C224.015 258.443 251.822 191.248 235.639 163.219Z" fill="url(#paint1_linear_333_671)"/>
<path d="M182.548 261.636C182.548 261.636 180.623 261.16 177.256 260.329C173.909 259.474 169.151 258.2 163.475 256.554C152.125 253.276 137.12 248.433 122.502 242.542C118.854 241.055 115.221 239.534 111.685 237.937C108.148 236.346 104.689 234.729 101.398 233.044C98.0944 231.39 94.9494 229.687 92.0134 227.991C89.0754 226.302 86.3433 224.62 83.8863 222.968C82.6403 222.169 81.4823 221.348 80.3913 220.552C79.2933 219.767 78.2484 219.027 77.3154 218.264C75.3994 216.804 73.8074 215.434 72.5184 214.281C71.1904 213.174 70.2853 212.144 69.6033 211.519C68.9413 210.869 68.5893 210.524 68.5893 210.524C68.3583 210.297 68.3554 209.924 68.5824 209.692C68.8044 209.465 69.1644 209.457 69.3974 209.669L69.4263 209.695C69.4263 209.695 69.7854 210.022 70.4574 210.636C71.1504 211.228 72.0664 212.201 73.4154 213.244C74.7214 214.331 76.3314 215.621 78.2684 216.988C79.2104 217.705 80.2663 218.396 81.3743 219.131C82.4753 219.875 83.6433 220.641 84.9003 221.385C87.3773 222.925 90.1303 224.487 93.0883 226.048C96.0423 227.617 99.2064 229.187 102.529 230.703C105.837 232.249 109.314 233.727 112.867 235.173C116.418 236.627 120.067 238.003 123.728 239.344C138.398 244.654 153.43 248.917 164.775 251.758C170.448 253.184 175.197 254.274 178.523 254.999C181.842 255.694 183.737 256.09 183.737 256.09L183.81 256.105C185.344 256.426 186.327 257.93 186.006 259.464C185.685 260.998 184.181 261.982 182.647 261.66C182.617 261.652 182.576 261.643 182.548 261.636Z" fill="url(#paint2_linear_333_671)"/>
<path d="M171.387 240.163C171.387 240.163 171.574 239.693 171.925 238.811C172.269 237.951 172.76 236.663 173.368 234.993C173.999 233.34 174.674 231.288 175.497 228.957C176.249 226.598 177.168 223.959 178.026 221.032C178.912 218.112 179.856 214.945 180.741 211.561C181.701 208.196 182.525 204.6 183.425 200.89C184.309 197.176 185.047 193.3 185.868 189.375C186.506 185.419 187.323 181.419 187.835 177.379C188.333 173.338 188.99 169.307 189.251 165.305C189.603 161.31 189.98 157.375 190.036 153.554C190.103 151.644 190.171 149.766 190.237 147.927C190.324 146.088 190.194 144.291 190.185 142.539C190.067 139.041 190.162 135.712 189.802 132.674C189.541 129.625 189.3 126.83 189.089 124.352C188.762 121.89 188.373 119.756 188.106 117.991C187.541 114.461 187.22 112.444 187.22 112.444L187.213 112.398C187.162 112.077 187.38 111.776 187.701 111.724C188.015 111.674 188.31 111.883 188.372 112.193C188.372 112.193 188.765 114.213 189.455 117.749C189.786 119.52 190.252 121.662 190.667 124.139C190.967 126.632 191.305 129.445 191.674 132.514C192.143 135.579 192.164 138.933 192.405 142.471C192.474 144.24 192.667 146.06 192.643 147.92C192.64 149.781 192.638 151.682 192.635 153.615C192.71 157.488 192.467 161.476 192.248 165.534C192.122 169.6 191.598 173.694 191.234 177.807C190.853 181.919 190.168 185.991 189.656 190.025C188.963 194.027 188.347 197.983 187.581 201.778C186.798 205.569 186.086 209.247 185.23 212.693C184.449 216.158 183.603 219.408 182.803 222.404C182.033 225.408 181.191 228.127 180.508 230.555C179.749 232.964 179.135 235.075 178.544 236.796C177.983 238.517 177.516 239.881 177.179 240.818C176.849 241.734 176.674 242.222 176.674 242.222C176.143 243.697 174.518 244.462 173.044 243.932C171.569 243.402 170.804 241.777 171.334 240.301C171.343 240.274 171.353 240.248 171.363 240.222L171.387 240.163Z" fill="url(#paint3_linear_333_671)"/>
<path d="M156.473 217.083C156.473 217.083 156.082 216.919 155.349 216.613C154.618 216.294 153.545 215.825 152.18 215.229C149.484 214.012 145.66 212.245 141.165 209.953C138.906 208.832 136.497 207.545 133.949 206.185C131.401 204.827 128.761 203.309 126.018 201.767C123.321 200.141 120.482 198.559 117.699 196.775C114.898 195.022 112.048 193.255 109.278 191.359C107.884 190.427 106.491 189.494 105.102 188.565C103.742 187.595 102.388 186.628 101.044 185.669C98.3328 183.788 95.7577 181.807 93.2707 179.885C90.7507 178.009 88.4117 176.071 86.2027 174.223C83.9717 172.403 81.8888 170.654 80.0498 168.94C78.1878 167.256 76.4818 165.712 74.9698 164.343C73.5188 162.91 72.2537 161.659 71.2127 160.63C69.1317 158.573 67.9417 157.397 67.9417 157.397C67.7117 157.168 67.7087 156.796 67.9377 156.564C68.1607 156.34 68.5197 156.332 68.7507 156.542L68.7738 156.563C68.7738 156.563 70.0038 157.681 72.1578 159.637C73.2338 160.614 74.5398 161.802 76.0388 163.163C77.5968 164.457 79.3527 165.917 81.2697 167.509C83.1617 169.129 85.3008 170.776 87.5848 172.486C89.8478 174.224 92.2418 176.043 94.8158 177.795C97.3558 179.593 99.9827 181.442 102.744 183.19C104.112 184.083 105.489 184.98 106.873 185.883C108.283 186.743 109.7 187.607 111.115 188.47C113.927 190.226 116.818 191.853 119.652 193.466C122.469 195.109 125.341 196.554 128.064 198.044C130.834 199.449 133.495 200.835 136.06 202.066C138.624 203.299 141.046 204.465 143.314 205.472C147.823 207.537 151.641 209.108 154.312 210.182C155.644 210.698 156.69 211.104 157.403 211.379C158.125 211.646 158.509 211.789 158.509 211.789L158.551 211.804C160.021 212.348 160.771 213.98 160.227 215.45C159.684 216.919 158.051 217.671 156.581 217.127C156.55 217.114 156.506 217.097 156.473 217.083Z" fill="url(#paint4_linear_333_671)"/>
<path d="M140.774 189.067C140.774 189.067 140.906 188.737 141.154 188.117C141.39 187.501 141.736 186.597 142.177 185.447C143.056 183.125 144.241 179.764 145.574 175.698C146.208 173.656 146.948 171.456 147.614 169.095C148.322 166.746 149.023 164.255 149.691 161.662C150.413 159.081 151.009 156.381 151.667 153.646C152.312 150.908 152.824 148.1 153.415 145.302C153.875 142.487 154.397 139.673 154.787 136.89C155.102 134.101 155.553 131.36 155.739 128.69C155.904 126.022 156.229 123.44 156.243 120.988C156.271 118.537 156.394 116.211 156.335 114.071C156.239 111.93 156.15 109.969 156.072 108.229C156.008 106.486 155.715 104.994 155.596 103.749C155.29 101.265 155.116 99.8446 155.116 99.8446L155.109 99.7936C155.069 99.4716 155.299 99.1786 155.621 99.1386C155.932 99.1006 156.217 99.3156 156.27 99.6216C156.27 99.6216 156.518 101.051 156.951 103.55C157.134 104.805 157.505 106.316 157.656 108.076C157.821 109.838 158.009 111.825 158.212 113.993C158.379 116.165 158.369 118.523 158.462 121.019C158.568 123.517 158.369 126.14 158.332 128.866C158.275 131.591 157.956 134.384 157.772 137.239C157.514 140.086 157.126 142.962 156.796 145.851C156.337 148.714 155.955 151.599 155.436 154.408C154.904 157.214 154.432 159.991 153.827 162.646C153.277 165.313 152.687 167.878 152.087 170.302C151.526 172.736 150.883 175.008 150.339 177.12C149.184 181.326 148.143 184.813 147.356 187.245C146.953 188.469 146.637 189.43 146.422 190.086C146.2 190.733 146.082 191.077 146.082 191.077C145.572 192.559 143.957 193.347 142.474 192.837C140.992 192.327 140.204 190.712 140.714 189.23C140.728 189.19 140.742 189.149 140.758 189.11L140.774 189.067Z" fill="url(#paint5_linear_333_671)"/>
<path d="M123.877 163.877C123.877 163.877 123.544 163.742 122.921 163.491C122.28 163.23 121.352 162.842 120.208 162.337C117.899 161.338 114.656 159.833 110.826 157.909C107.012 155.959 102.593 153.628 98.0148 150.859C95.6898 149.54 93.3997 147.981 91.0207 146.498C88.6827 144.945 86.3417 143.312 84.0157 141.667C81.7617 139.916 79.4238 138.285 77.2828 136.468C75.1568 134.629 72.9517 132.968 71.0517 131.077C69.1287 129.218 67.1597 127.547 65.5417 125.696C63.9037 123.874 62.2248 122.276 60.9138 120.583C59.5808 118.914 58.3588 117.385 57.2748 116.03C56.2228 114.653 55.4488 113.343 54.7388 112.322C53.3618 110.251 52.5748 109.068 52.5748 109.068C52.3958 108.797 52.4678 108.433 52.7388 108.254C52.9998 108.08 53.3498 108.143 53.5358 108.392L53.5698 108.438C53.5698 108.438 54.4028 109.564 55.8608 111.536C56.6088 112.505 57.4268 113.747 58.5278 115.048C59.6568 116.325 60.9308 117.765 62.3198 119.337C63.6818 120.928 65.4167 122.419 67.1047 124.121C68.7697 125.849 70.7947 127.397 72.7607 129.119C74.7047 130.873 76.9587 132.398 79.1197 134.09C81.2987 135.762 83.6768 137.249 85.9618 138.848C88.3198 140.345 90.6878 141.829 93.0478 143.233C95.4528 144.569 97.7598 145.979 100.101 147.156C104.708 149.64 109.141 151.702 112.953 153.417C116.778 155.105 120.005 156.412 122.274 157.261C123.413 157.698 124.292 158.014 124.887 158.223C125.502 158.437 125.829 158.55 125.829 158.55L125.872 158.565C127.353 159.08 128.135 160.698 127.62 162.178C127.106 163.659 125.488 164.442 124.007 163.926C123.966 163.912 123.917 163.893 123.877 163.877Z" fill="url(#paint6_linear_333_671)"/>
<path d="M107.529 127.438C107.529 127.438 107.684 127.176 107.975 126.688C108.25 126.228 108.652 125.503 109.163 124.561C110.162 122.673 111.575 119.937 113.038 116.533C113.81 114.847 114.529 112.972 115.319 110.996C116.07 109.008 116.826 106.891 117.56 104.687C118.229 102.464 119.018 100.187 119.592 97.8117C119.903 96.6287 120.217 95.4377 120.532 94.2407L121.311 90.6017C121.88 88.1777 122.24 85.7187 122.62 83.2977C123.067 80.8827 123.212 78.4757 123.473 76.1527C123.773 73.8297 123.766 71.5697 123.877 69.4277C123.912 68.3567 123.98 67.3127 123.985 66.3037C123.961 65.2957 123.936 64.3217 123.913 63.3857C123.847 61.5137 123.866 59.7897 123.744 58.2727C123.6 56.7547 123.475 55.4317 123.372 54.3427C123.165 52.1607 123.047 50.9127 123.047 50.9127L123.043 50.8697C123.012 50.5477 123.25 50.2597 123.573 50.2287C123.885 50.2007 124.164 50.4207 124.21 50.7267C124.21 50.7267 124.399 51.9787 124.731 54.1677C124.897 55.2647 125.098 56.5967 125.33 58.1257C125.539 59.6567 125.619 61.3997 125.791 63.2957C125.867 64.2457 125.947 65.2357 126.029 66.2597C126.082 67.2847 126.072 68.3467 126.097 69.4387C126.107 71.6217 126.239 73.9327 126.069 76.3127C125.936 78.6927 125.923 81.1697 125.605 83.6587C125.355 86.1537 125.124 88.6977 124.682 91.2097L124.089 94.9887C123.836 96.2347 123.583 97.4757 123.331 98.7067C122.876 101.184 122.199 103.566 121.634 105.897C121.006 108.21 120.349 110.436 119.686 112.535C118.985 114.623 118.346 116.607 117.645 118.401C116.323 122.018 115.008 124.963 114.058 127.025C113.574 128.049 113.182 128.861 112.882 129.431C112.6 129.974 112.448 130.263 112.448 130.263C111.723 131.654 110.008 132.193 108.618 131.468C107.228 130.743 106.689 129.029 107.414 127.639C107.438 127.595 107.461 127.552 107.485 127.51L107.529 127.438Z" fill="url(#paint7_linear_333_671)"/>
<path d="M92.9885 106.385C92.9885 106.385 92.7566 106.274 92.3196 106.067C91.8676 105.852 91.2275 105.531 90.4325 105.117C88.8325 104.289 86.5826 103.066 83.9616 101.475C82.6436 100.691 81.2385 99.8077 79.7765 98.8377C78.2915 97.9067 76.8005 96.8057 75.2245 95.7257C73.6845 94.5907 72.0936 93.4197 70.5186 92.1767C68.9756 90.8917 67.3475 89.6667 65.8505 88.2797C64.3215 86.9327 62.7965 85.5837 61.3915 84.1517C60.6765 83.4507 59.9665 82.7537 59.2655 82.0677C58.6005 81.3427 57.9446 80.6277 57.3006 79.9247C56.6566 79.2207 56.0236 78.5297 55.4046 77.8527C54.8256 77.1397 54.2595 76.4417 53.7085 75.7627C52.6075 74.4057 51.5485 73.1397 50.7045 71.8647C49.8265 70.6197 49.0226 69.4777 48.3106 68.4657C47.6746 67.4047 47.1195 66.4787 46.6625 65.7167C45.7505 64.1947 45.2295 63.3247 45.2295 63.3247C45.1185 63.1397 45.1785 62.8987 45.3645 62.7877C45.5445 62.6797 45.7765 62.7327 45.8915 62.9057L45.9086 62.9327C45.9086 62.9327 46.4645 63.7687 47.4365 65.2317C47.9205 65.9617 48.5096 66.8487 49.1856 67.8657C49.9346 68.8297 50.7786 69.9187 51.7016 71.1057C52.5866 72.3197 53.6895 73.5197 54.8345 74.8027C55.4055 75.4447 55.9925 76.1037 56.5925 76.7767C57.2325 77.4137 57.8866 78.0647 58.5506 78.7267C59.2156 79.3867 59.8916 80.0577 60.5746 80.7377C61.2936 81.3797 62.0225 82.0297 62.7565 82.6867C64.1965 84.0257 65.7565 85.2787 67.3135 86.5287C68.8395 87.8177 70.4956 88.9447 72.0606 90.1307C73.6576 91.2757 75.2676 92.3477 76.8216 93.3857C78.4136 94.3697 79.9156 95.3767 81.4086 96.2187C82.8786 97.0997 84.2885 97.8947 85.6055 98.5977C88.2265 100.029 90.4646 101.111 92.0346 101.834C92.8156 102.183 93.4296 102.456 93.8476 102.643C94.2736 102.822 94.5015 102.919 94.5015 102.919L94.5375 102.933C95.4995 103.34 95.9515 104.449 95.5465 105.411C95.1405 106.375 94.0315 106.826 93.0685 106.421C93.0425 106.411 93.0125 106.396 92.9885 106.385Z" fill="url(#paint8_linear_333_671)"/>
<path d="M84.6791 86.6817C84.6791 86.6817 84.7731 86.5317 84.9501 86.2527C85.1161 85.9907 85.3611 85.5847 85.6721 85.0437C86.2921 83.9747 87.1441 82.4067 88.0591 80.4657C88.5231 79.4977 89.0031 78.4387 89.4691 77.2977C89.9711 76.1717 90.392 74.9417 90.873 73.6847C91.311 72.4147 91.747 71.0917 92.149 69.7367C92.493 68.3687 92.9441 66.9947 93.1991 65.5817C93.5011 64.1767 93.8041 62.7677 93.9691 61.3627C94.0711 60.6607 94.172 59.9647 94.27 59.2767C94.322 58.5847 94.372 57.9017 94.421 57.2287C94.469 56.5547 94.5171 55.8917 94.5641 55.2437C94.5601 54.5927 94.559 53.9577 94.555 53.3387C94.557 52.0977 94.564 50.9217 94.427 49.8467C94.328 48.7657 94.237 47.7767 94.156 46.8997C93.997 46.0317 93.858 45.2757 93.743 44.6537C93.513 43.4047 93.3821 42.6907 93.3821 42.6907L93.375 42.6537C93.337 42.4417 93.477 42.2367 93.69 42.1977C93.893 42.1607 94.0911 42.2897 94.1411 42.4877C94.1411 42.4877 94.32 43.2027 94.635 44.4557C94.792 45.0837 94.984 45.8457 95.203 46.7217C95.343 47.6127 95.5011 48.6177 95.6741 49.7147C95.8831 50.8117 95.955 52.0117 96.035 53.2867C96.078 53.9237 96.123 54.5777 96.169 55.2477C96.164 55.9177 96.159 56.6017 96.154 57.2987C96.147 57.9957 96.139 58.7047 96.133 59.4227C96.077 60.1377 96.019 60.8607 95.961 61.5907C95.882 63.0567 95.6641 64.5277 95.4441 66.0017C95.2711 67.4867 94.902 68.9287 94.633 70.3737C94.306 71.8037 93.9441 73.2027 93.5731 74.5517C93.1591 75.8857 92.8011 77.1937 92.3551 78.3967C91.9471 79.6147 91.517 80.7507 91.098 81.7917C90.273 83.8797 89.485 85.5837 88.894 86.7697C88.605 87.3587 88.36 87.8317 88.18 88.1607C88.01 88.4727 87.92 88.6387 87.92 88.6387C87.418 89.5557 86.269 89.8937 85.352 89.3927C84.434 88.8907 84.096 87.7417 84.597 86.8247C84.615 86.7907 84.634 86.7587 84.655 86.7247L84.6791 86.6817Z" fill="url(#paint9_linear_333_671)"/>
<path d="M223.329 329.437C223.329 329.437 211.795 310.641 194.756 282.32C186.226 268.164 191.903 278.574 181.371 260.799C170.833 243.029 159.699 224.01 148.636 204.949C143.148 195.394 137.658 185.839 132.254 176.433C126.928 166.982 121.685 157.682 116.612 148.68C111.636 139.623 106.725 130.927 102.248 122.577C97.8007 114.21 93.4467 106.386 89.6957 99.0106C85.9487 91.6336 82.3396 84.9726 79.4516 78.8936C71.9566 63.7886 70.7016 61.8516 64.2136 50.2066C63.9986 49.7096 64.2276 49.1326 64.7246 48.9186C65.2146 48.7066 65.7826 48.9266 66.0036 49.4096L66.0316 49.4706C71.5506 58.3596 75.9457 66.0756 81.8197 77.6956C84.8197 83.6816 88.5696 90.2626 92.4586 97.5326C96.3536 104.802 100.871 112.527 105.484 120.778C110.127 129.013 115.217 137.596 120.375 146.528C125.631 155.407 131.063 164.582 136.582 173.905C142.178 183.184 147.862 192.609 153.547 202.035C165 220.837 176.525 239.595 187.428 257.121C198.325 274.651 192.987 264.011 201.808 277.971C219.435 305.905 231.338 324.407 231.338 324.407C232.75 326.604 232.116 329.53 229.919 330.943C227.723 332.356 224.797 331.721 223.384 329.524C223.371 329.505 223.342 329.459 223.329 329.437Z" fill="url(#paint10_linear_333_671)"/>
<defs>
<linearGradient id="paint0_linear_333_671" x1="-30.6565" y1="103.975" x2="202.488" y2="177.633" gradientUnits="userSpaceOnUse">
<stop offset="0.0792" stop-color="#86C80E"/><stop offset="0.2433" stop-color="#83C50D"/><stop offset="0.3799" stop-color="#78BD0B"/><stop offset="0.5065" stop-color="#67AE07"/><stop offset="0.6265" stop-color="#4F9A01"/><stop offset="0.651" stop-color="#499500"/><stop offset="1" stop-color="#2F6C00"/>
</linearGradient>
<linearGradient id="paint1_linear_333_671" x1="122.121" y1="18.6219" x2="202.693" y2="358.638" gradientUnits="userSpaceOnUse">
<stop offset="0.0792" stop-color="#86C80E"/><stop offset="0.2433" stop-color="#83C50D"/><stop offset="0.3799" stop-color="#78BD0B"/><stop offset="0.5065" stop-color="#67AE07"/><stop offset="0.6265" stop-color="#4F9A01"/><stop offset="0.651" stop-color="#499500"/><stop offset="1" stop-color="#2F6C00"/>
</linearGradient>
<linearGradient id="paint2_linear_333_671" x1="62.7496" y1="-53.8186" x2="132.006" y2="255.668" gradientUnits="userSpaceOnUse">
<stop offset="0.0792" stop-color="#86C80E"/><stop offset="0.2433" stop-color="#83C50D"/><stop offset="0.3799" stop-color="#78BD0B"/><stop offset="0.5065" stop-color="#67AE07"/><stop offset="0.6265" stop-color="#4F9A01"/><stop offset="0.651" stop-color="#499500"/><stop offset="1" stop-color="#2F6C00"/>
</linearGradient>
<linearGradient id="paint3_linear_333_671" x1="125.027" y1="-67.7476" x2="194.282" y2="241.732" gradientUnits="userSpaceOnUse">
<stop offset="0.0792" stop-color="#86C80E"/><stop offset="0.2433" stop-color="#83C50D"/><stop offset="0.3799" stop-color="#78BD0B"/><stop offset="0.5065" stop-color="#67AE07"/><stop offset="0.6265" stop-color="#4F9A01"/><stop offset="0.651" stop-color="#499500"/><stop offset="1" stop-color="#2F6C00"/>
</linearGradient>
<linearGradient id="paint4_linear_333_671" x1="60.6187" y1="-53.3402" x2="129.875" y2="256.145" gradientUnits="userSpaceOnUse">
<stop offset="0.0792" stop-color="#86C80E"/><stop offset="0.2433" stop-color="#83C50D"/><stop offset="0.3799" stop-color="#78BD0B"/><stop offset="0.5065" stop-color="#67AE07"/><stop offset="0.6265" stop-color="#4F9A01"/><stop offset="0.651" stop-color="#499500"/><stop offset="1" stop-color="#2F6C00"/>
</linearGradient>
<linearGradient id="paint5_linear_333_671" x1="101.951" y1="-62.5845" x2="171.205" y2="246.895" gradientUnits="userSpaceOnUse">
<stop offset="0.0792" stop-color="#86C80E"/><stop offset="0.2433" stop-color="#83C50D"/><stop offset="0.3799" stop-color="#78BD0B"/><stop offset="0.5065" stop-color="#67AE07"/><stop offset="0.6265" stop-color="#4F9A01"/><stop offset="0.651" stop-color="#499500"/><stop offset="1" stop-color="#2F6C00"/>
</linearGradient>
<linearGradient id="paint6_linear_333_671" x1="48.6124" y1="-50.6517" x2="117.868" y2="258.832" gradientUnits="userSpaceOnUse">
<stop offset="0.0792" stop-color="#86C80E"/><stop offset="0.2433" stop-color="#83C50D"/><stop offset="0.3799" stop-color="#78BD0B"/><stop offset="0.5065" stop-color="#67AE07"/><stop offset="0.6265" stop-color="#4F9A01"/><stop offset="0.651" stop-color="#499500"/><stop offset="1" stop-color="#2F6C00"/>
</linearGradient>
<linearGradient id="paint7_linear_333_671" x1="82.4843" y1="-58.2284" x2="151.739" y2="251.251" gradientUnits="userSpaceOnUse">
<stop offset="0.0792" stop-color="#86C80E"/><stop offset="0.2433" stop-color="#83C50D"/><stop offset="0.3799" stop-color="#78BD0B"/><stop offset="0.5065" stop-color="#67AE07"/><stop offset="0.6265" stop-color="#4F9A01"/><stop offset="0.651" stop-color="#499500"/><stop offset="1" stop-color="#2F6C00"/>
</linearGradient>
<linearGradient id="paint8_linear_333_671" x1="40.737" y1="-48.8889" x2="109.993" y2="260.594" gradientUnits="userSpaceOnUse">
<stop offset="0.0792" stop-color="#86C80E"/><stop offset="0.2433" stop-color="#83C50D"/><stop offset="0.3799" stop-color="#78BD0B"/><stop offset="0.5065" stop-color="#67AE07"/><stop offset="0.6265" stop-color="#4F9A01"/><stop offset="0.651" stop-color="#499500"/><stop offset="1" stop-color="#2F6C00"/>
</linearGradient>
<linearGradient id="paint9_linear_333_671" x1="62.6783" y1="-53.7971" x2="131.933" y2="255.682" gradientUnits="userSpaceOnUse">
<stop offset="0.0792" stop-color="#86C80E"/><stop offset="0.2433" stop-color="#83C50D"/><stop offset="0.3799" stop-color="#78BD0B"/><stop offset="0.5065" stop-color="#67AE07"/><stop offset="0.6265" stop-color="#4F9A01"/><stop offset="0.651" stop-color="#499500"/><stop offset="1" stop-color="#2F6C00"/>
</linearGradient>
<linearGradient id="paint10_linear_333_671" x1="92.4689" y1="-60.465" x2="161.725" y2="249.019" gradientUnits="userSpaceOnUse">
<stop offset="0.0792" stop-color="#86C80E"/><stop offset="0.2433" stop-color="#83C50D"/><stop offset="0.3799" stop-color="#78BD0B"/><stop offset="0.5065" stop-color="#67AE07"/><stop offset="0.6265" stop-color="#4F9A01"/><stop offset="0.651" stop-color="#499500"/><stop offset="1" stop-color="#2F6C00"/>
</linearGradient>
</defs>
</svg>
