<svg width="213" height="322" viewBox="0 0 213 322" fill="none" xmlns="http://www.w3.org/2000/svg">
<path d="M13.5849 0C-49.7021 278.739 126.384 293.494 167.511 281.275C102.099 213.445 13.5849 0 13.5849 0Z" fill="url(#paint0_linear_333_695)"/>
<path d="M13.584 0C13.584 0 102.098 213.446 167.51 281.275C169.783 280.6 171.649 279.844 173.034 279.044C199.491 263.769 301.709 89.233 13.584 0Z" fill="url(#paint1_linear_333_695)"/>
<path d="M147.158 263.496C147.158 263.496 145.674 262.78 143.077 261.526C140.499 260.264 136.831 258.442 132.466 256.193C123.737 251.693 112.208 245.484 101.002 238.69C95.4019 235.288 89.8839 231.741 84.8429 228.211C83.5779 227.336 82.3469 226.456 81.1559 225.571C79.9539 224.706 78.7999 223.824 77.6839 222.957C75.4439 221.234 73.3788 219.529 71.5258 217.89C69.6698 216.254 68.0219 214.686 66.6349 213.215C65.9209 212.505 65.2989 211.785 64.7319 211.115C64.1569 210.452 63.6279 209.847 63.2059 209.243C62.7709 208.656 62.3818 208.131 62.0428 207.675C61.7438 207.187 61.4889 206.771 61.2819 206.434C60.8719 205.76 60.6529 205.401 60.6529 205.401C60.4139 205.008 60.5378 204.496 60.9308 204.257C61.3068 204.027 61.7949 204.133 62.0449 204.489L62.0988 204.567C62.0988 204.567 62.3249 204.889 62.7469 205.494C62.9569 205.795 63.2169 206.167 63.5229 206.604C63.8689 207.015 64.2688 207.489 64.7158 208.018C65.1428 208.56 65.6878 209.109 66.2758 209.708C66.8558 210.314 67.4869 210.963 68.2219 211.609C69.6399 212.94 71.3289 214.36 73.2289 215.839C75.1279 217.321 77.2418 218.86 79.5348 220.41C80.6778 221.191 81.8578 221.984 83.0908 222.76C84.3088 223.555 85.5699 224.344 86.8649 225.128C92.0259 228.29 97.6699 231.449 103.394 234.463C114.85 240.483 126.617 245.92 135.502 249.832C139.946 251.787 143.672 253.362 146.28 254.447C148.884 255.512 150.371 256.122 150.371 256.122L150.432 256.146C152.489 256.988 153.475 259.339 152.633 261.396C151.791 263.453 149.441 264.438 147.383 263.596C147.31 263.567 147.227 263.529 147.158 263.496Z" fill="url(#paint2_linear_333_695)"/>
<path d="M145.317 204.963C145.998 202.776 146.628 200.576 147.219 198.402C147.808 196.228 148.331 194.077 148.809 191.989C149.264 189.898 149.666 187.87 149.986 185.938C150.299 184.006 150.539 182.174 150.7 180.478C150.761 179.632 150.845 178.817 150.881 178.045C150.907 177.272 150.932 176.538 150.955 175.849C150.93 174.477 150.921 173.274 150.809 172.3C150.754 171.312 150.605 170.561 150.525 170.042C150.443 169.523 150.399 169.246 150.399 169.246L150.387 169.173C150.315 168.718 150.625 168.292 151.08 168.22C151.509 168.152 151.914 168.428 152.019 168.841C152.019 168.841 152.091 169.13 152.227 169.673C152.359 170.218 152.587 171.015 152.735 172.045C152.941 173.073 153.062 174.326 153.211 175.769C153.249 176.49 153.289 177.258 153.331 178.066C153.363 178.875 153.35 179.722 153.361 180.609C153.345 182.381 153.262 184.296 153.11 186.314C152.952 188.33 152.719 190.449 152.438 192.634C152.133 194.814 151.788 197.061 151.377 199.332C150.966 201.603 150.516 203.904 150.015 206.19C148.356 213.889 143.888 244.063 136.491 241.47C129.255 238.932 134.926 238.77 145.317 204.963Z" fill="url(#paint3_linear_333_695)"/>
<path d="M109.018 199.364C109.018 199.364 108.665 199.152 108.003 198.755C107.355 198.362 106.43 197.78 105.264 197.028C102.941 195.517 99.6777 193.31 95.8977 190.493C94.0137 189.076 91.9827 187.531 89.8937 185.823C87.7917 184.133 85.6277 182.284 83.4227 180.339C81.2357 178.369 78.9947 176.316 76.8137 174.128C74.6067 171.967 72.4637 169.67 70.3617 167.342C69.3247 166.163 68.3037 164.97 67.2947 163.777C66.3207 162.551 65.3117 161.367 64.3857 160.128C62.5107 157.671 60.7307 155.203 59.1447 152.721C58.3407 151.488 57.5637 150.268 56.8657 149.034C56.1387 147.818 55.4507 146.616 54.8407 145.41C54.2057 144.22 53.5947 143.061 53.0787 141.899C52.5517 140.744 51.9947 139.654 51.5777 138.55C51.1417 137.457 50.6977 136.421 50.3257 135.417C49.9797 134.403 49.6507 133.441 49.3407 132.537C48.7357 130.727 48.3587 129.1 47.9727 127.79C47.4047 125.113 47.0787 123.584 47.0787 123.584C46.9837 123.133 47.2707 122.691 47.7217 122.595C48.1537 122.504 48.5777 122.764 48.6967 123.183L48.7137 123.241C48.7137 123.241 49.1247 124.705 49.8447 127.267C50.3037 128.517 50.7667 130.064 51.4667 131.777C51.8217 132.631 52.1987 133.539 52.5977 134.496C53.0197 135.443 53.5147 136.416 54.0017 137.443C54.4697 138.477 55.0787 139.499 55.6577 140.578C56.2247 141.664 56.8887 142.744 57.5747 143.851C58.2347 144.972 58.9747 146.087 59.7507 147.213C60.4967 148.357 61.3227 149.484 62.1747 150.621C63.8527 152.91 65.7227 155.177 67.6807 157.425C68.6477 158.558 69.6977 159.639 70.7077 160.757C71.7557 161.844 72.8127 162.929 73.8847 163.999C76.0577 166.114 78.2627 168.191 80.5257 170.138C82.7637 172.11 85.0547 173.951 87.2837 175.712C89.5317 177.45 91.7307 179.096 93.8617 180.593C95.9787 182.107 98.0327 183.467 99.9297 184.712C103.737 187.184 106.996 189.092 109.285 190.379C110.431 191.017 111.335 191.507 111.944 191.825C112.544 192.134 112.863 192.299 112.863 192.299L112.932 192.334C114.909 193.352 115.686 195.779 114.668 197.756C113.65 199.733 111.223 200.509 109.246 199.492C109.171 199.452 109.089 199.406 109.018 199.364Z" fill="url(#paint4_linear_333_695)"/>
<path d="M87.6026 159.617C87.6026 159.617 87.8826 158.702 88.3716 157.1C88.8586 155.489 89.5276 153.17 90.3036 150.378C91.0766 147.584 91.9436 144.313 92.8126 140.793C93.2326 139.031 93.6966 137.213 94.1016 135.356C94.5246 133.5 94.9486 131.612 95.3256 129.718C95.7316 127.827 96.0866 125.929 96.4216 124.058C96.7876 122.188 97.0506 120.342 97.3336 118.554C97.6416 116.765 97.7956 115.033 98.0146 113.387C98.2446 111.74 98.3006 110.186 98.4376 108.745C98.5896 107.302 98.5565 105.991 98.6075 104.819C98.6235 104.233 98.6376 103.684 98.6516 103.177C98.6286 102.675 98.6076 102.213 98.5896 101.796C98.5136 100.121 98.4706 99.164 98.4706 99.164L98.4666 99.086C98.4456 98.626 98.8016 98.237 99.2606 98.216C99.6896 98.196 100.059 98.5099 100.122 98.9239C100.122 98.9239 100.269 99.907 100.525 101.625C100.589 102.057 100.659 102.534 100.736 103.055C100.776 103.575 100.818 104.138 100.864 104.739C100.936 105.941 101.106 107.308 101.103 108.787C101.114 110.265 101.219 111.883 101.157 113.574C101.107 115.266 101.128 117.067 101.002 118.907C100.901 120.751 100.825 122.666 100.65 124.595C100.504 126.53 100.341 128.495 100.126 130.451C99.9406 132.414 99.7076 134.368 99.4706 136.291C99.2526 138.22 98.9716 140.103 98.7296 141.934C98.2156 145.589 97.6776 148.991 97.1836 151.904C96.6866 154.817 96.2476 157.241 95.9196 158.942C95.5836 160.648 95.3926 161.624 95.3926 161.624C94.9636 163.807 92.8446 165.229 90.6616 164.799C88.4776 164.37 87.0556 162.252 87.4846 160.068C87.5116 159.933 87.5446 159.802 87.5836 159.674L87.6026 159.617Z" fill="url(#paint5_linear_333_695)"/>
<path d="M196.782 321.235C196.782 321.235 102.868 225.496 59.0488 100.834C59.0488 100.834 125.199 224.986 209.286 312.246L196.782 321.235Z" fill="url(#paint6_linear_333_695)"/>
<defs>
<linearGradient id="paint0_linear_333_695" x1="-56.8215" y1="146.444" x2="160.812" y2="139.482" gradientUnits="userSpaceOnUse">
<stop offset="0.0792" stop-color="#86C80E"/><stop offset="0.2433" stop-color="#83C50D"/><stop offset="0.3799" stop-color="#78BD0B"/><stop offset="0.5065" stop-color="#67AE07"/><stop offset="0.6265" stop-color="#4F9A01"/><stop offset="0.651" stop-color="#499500"/><stop offset="1" stop-color="#2F6C00"/>
</linearGradient>
<linearGradient id="paint1_linear_333_695" x1="121.709" y1="58.4013" x2="69.6385" y2="300.113" gradientUnits="userSpaceOnUse">
<stop offset="0.0792" stop-color="#86C80E"/><stop offset="0.2433" stop-color="#83C50D"/><stop offset="0.3799" stop-color="#78BD0B"/><stop offset="0.5065" stop-color="#67AE07"/><stop offset="0.6265" stop-color="#4F9A01"/><stop offset="0.651" stop-color="#499500"/><stop offset="1" stop-color="#2F6C00"/>
</linearGradient>
<linearGradient id="paint2_linear_333_695" x1="104.673" y1="-17.4624" x2="106.909" y2="253.913" gradientUnits="userSpaceOnUse">
<stop offset="0.0792" stop-color="#86C80E"/><stop offset="0.2433" stop-color="#83C50D"/><stop offset="0.3799" stop-color="#78BD0B"/><stop offset="0.5065" stop-color="#67AE07"/><stop offset="0.6265" stop-color="#4F9A01"/><stop offset="0.651" stop-color="#499500"/><stop offset="1" stop-color="#2F6C00"/>
</linearGradient>
<linearGradient id="paint3_linear_333_695" x1="141.429" y1="-17.7595" x2="143.665" y2="253.611" gradientUnits="userSpaceOnUse">
<stop offset="0.0792" stop-color="#86C80E"/><stop offset="0.2433" stop-color="#83C50D"/><stop offset="0.3799" stop-color="#78BD0B"/><stop offset="0.5065" stop-color="#67AE07"/><stop offset="0.6265" stop-color="#4F9A01"/><stop offset="0.651" stop-color="#499500"/><stop offset="1" stop-color="#2F6C00"/>
</linearGradient>
<linearGradient id="paint4_linear_333_695" x1="79.6303" y1="-17.2543" x2="81.8661" y2="254.119" gradientUnits="userSpaceOnUse">
<stop offset="0.0792" stop-color="#86C80E"/><stop offset="0.2433" stop-color="#83C50D"/><stop offset="0.3799" stop-color="#78BD0B"/><stop offset="0.5065" stop-color="#67AE07"/><stop offset="0.6265" stop-color="#4F9A01"/><stop offset="0.651" stop-color="#499500"/><stop offset="1" stop-color="#2F6C00"/>
</linearGradient>
<linearGradient id="paint5_linear_333_695" x1="93.0249" y1="-17.3615" x2="95.2606" y2="254.009" gradientUnits="userSpaceOnUse">
<stop offset="0.0792" stop-color="#86C80E"/><stop offset="0.2433" stop-color="#83C50D"/><stop offset="0.3799" stop-color="#78BD0B"/><stop offset="0.5065" stop-color="#67AE07"/><stop offset="0.6265" stop-color="#4F9A01"/><stop offset="0.651" stop-color="#499500"/><stop offset="1" stop-color="#2F6C00"/>
</linearGradient>
<linearGradient id="paint6_linear_333_695" x1="132.32" y1="-17.6872" x2="134.556" y2="253.686" gradientUnits="userSpaceOnUse">
<stop offset="0.0792" stop-color="#86C80E"/><stop offset="0.2433" stop-color="#83C50D"/><stop offset="0.3799" stop-color="#78BD0B"/><stop offset="0.5065" stop-color="#67AE07"/><stop offset="0.6265" stop-color="#4F9A01"/><stop offset="0.651" stop-color="#499500"/><stop offset="1" stop-color="#2F6C00"/>
</linearGradient>
</defs>
</svg>
