<svg width="225" height="321" viewBox="0 0 225 321" fill="none" xmlns="http://www.w3.org/2000/svg">
<path d="M10.3482 0C-49.9018 294.788 172.609 283.84 172.609 283.84C172.609 283.84 29.7882 126.776 10.3482 0Z" fill="url(#paint0_linear_333_622)"/>
<path d="M10.3477 0C29.5437 128.324 172.609 283.84 172.609 283.84C172.609 283.84 295.769 95.216 10.3477 0Z" fill="url(#paint1_linear_333_622)"/>
<path d="M156.546 268.261C156.546 268.261 156.609 267.879 156.725 267.159C156.831 266.413 156.988 265.32 157.186 263.928C157.551 261.12 158.023 257.077 158.396 252.196C158.765 247.317 159.067 241.601 159.103 235.472C159.111 232.408 159.097 229.238 158.963 226.023C158.861 222.805 158.643 219.544 158.384 216.283C158.092 213.028 157.739 209.776 157.281 206.591C156.819 203.407 156.297 200.281 155.66 197.284C155.35 195.783 155.04 194.307 154.671 192.881C154.326 191.446 153.981 190.044 153.58 188.699C152.844 185.987 152.007 183.465 151.191 181.152C150.762 180.003 150.352 178.902 149.961 177.854C149.525 176.825 149.112 175.848 148.723 174.93C147.949 173.091 147.131 171.557 146.529 170.253C145.158 167.736 144.376 166.296 144.376 166.296L144.346 166.242C144.075 165.744 144.259 165.122 144.757 164.85C145.231 164.593 145.82 164.751 146.11 165.196C146.11 165.196 147.021 166.611 148.616 169.088C149.33 170.374 150.289 171.894 151.224 173.722C151.693 174.636 152.192 175.609 152.719 176.635C153.199 177.682 153.706 178.783 154.235 179.932C155.25 182.247 156.304 184.783 157.268 187.516C157.784 188.873 158.246 190.288 158.709 191.739C159.199 193.182 159.629 194.676 160.063 196.198C160.946 199.237 161.723 202.414 162.44 205.657C163.155 208.902 163.766 212.22 164.314 215.55C164.829 218.884 165.301 222.227 165.651 225.528C166.033 228.829 166.29 232.087 166.514 235.243C166.943 241.557 167.068 247.467 167.059 252.538C167.046 257.609 166.868 261.842 166.702 264.818C166.6 266.315 166.52 267.491 166.465 268.293C166.393 269.119 166.354 269.56 166.354 269.56C166.116 272.284 163.714 274.3 160.991 274.061C158.267 273.823 156.251 271.421 156.49 268.698C156.501 268.58 156.515 268.462 156.533 268.347L156.546 268.261Z" fill="url(#paint2_linear_333_622)"/>
<path d="M123.222 238.59C123.222 238.59 121.876 238.285 119.521 237.751C117.195 237.202 113.898 236.379 109.969 235.306C102.112 233.172 91.7378 229.967 81.6338 225.979C79.1118 224.967 76.6018 223.932 74.1598 222.838C71.7158 221.746 69.3289 220.633 67.0579 219.465C64.7789 218.321 62.6109 217.134 60.5919 215.943C58.5689 214.762 56.6918 213.577 55.0088 212.404C54.1558 211.839 53.3598 211.261 52.6168 210.69C51.8688 210.129 51.1539 209.608 50.5199 209.059C49.8799 208.523 49.2809 208.022 48.7269 207.559C48.1969 207.066 47.7099 206.614 47.2689 206.205C46.3719 205.413 45.7708 204.666 45.3138 204.216C44.8728 203.749 44.6368 203.499 44.6368 203.499C44.2488 203.088 44.2669 202.439 44.6789 202.05C45.0669 201.685 45.6638 201.68 46.0568 202.023L46.1168 202.076C46.1168 202.076 46.3619 202.291 46.8219 202.695C47.2979 203.083 47.9139 203.728 48.8419 204.405C49.2939 204.753 49.7929 205.139 50.3379 205.56C50.9049 205.952 51.5179 206.377 52.1739 206.83C52.8189 207.294 53.5509 207.73 54.3129 208.199C55.0679 208.677 55.8759 209.158 56.7439 209.624C58.4509 210.595 60.3529 211.565 62.3989 212.52C64.4399 213.484 66.6258 214.434 68.9258 215.334C71.2128 216.257 73.6178 217.121 76.0728 217.959C78.5278 218.798 81.0498 219.577 83.5778 220.332C93.7148 223.295 104.076 225.482 111.875 226.851C115.774 227.541 119.031 228.044 121.304 228.364C123.554 228.661 124.84 228.831 124.84 228.831L124.966 228.848C127.679 229.206 129.587 231.696 129.229 234.409C128.871 237.121 126.381 239.03 123.668 238.672C123.52 238.65 123.366 238.621 123.222 238.59Z" fill="url(#paint3_linear_333_622)"/>
<path d="M100.049 198.405C100.049 198.405 100.117 198.16 100.243 197.699C100.363 197.268 100.536 196.61 100.75 195.735C101.182 194.006 101.755 191.498 102.339 188.46C102.936 185.423 103.515 181.85 104.02 178.001C104.275 176.077 104.462 174.08 104.68 172.051C104.813 170.02 105.031 167.951 105.101 165.881C105.167 163.812 105.306 161.734 105.263 159.696C105.263 157.654 105.277 155.639 105.146 153.7C105.059 151.755 104.982 149.87 104.766 148.1C104.567 146.329 104.476 144.629 104.184 143.101C103.937 141.558 103.711 140.146 103.51 138.892C103.259 137.651 102.987 136.58 102.791 135.689C102.382 133.908 102.149 132.891 102.149 132.891L102.134 132.827C102.026 132.354 102.321 131.882 102.794 131.773C103.237 131.671 103.68 131.927 103.824 132.349C103.824 132.349 104.164 133.359 104.762 135.126C105.054 136.013 105.44 137.084 105.825 138.329C106.158 139.589 106.533 141.01 106.944 142.56C107.4 144.107 107.666 145.821 108.052 147.624C108.456 149.426 108.729 151.344 109.017 153.334C109.35 155.321 109.544 157.386 109.753 159.488C110.006 161.591 110.078 163.731 110.223 165.875C110.362 168.02 110.353 170.163 110.423 172.28C110.409 174.391 110.421 176.476 110.356 178.49C110.233 182.518 110.003 186.279 109.697 189.5C109.406 192.722 109.068 195.406 108.793 197.297C108.66 198.233 108.54 198.992 108.448 199.526C108.362 200.031 108.316 200.299 108.316 200.299C107.921 202.611 105.728 204.165 103.415 203.77C101.104 203.375 99.5499 201.181 99.9439 198.869C99.9669 198.731 99.9979 198.595 100.034 198.463L100.049 198.405Z" fill="url(#paint4_linear_333_622)"/>
<path d="M83.9244 177.513C83.9244 177.513 83.6504 177.527 83.1384 177.554C82.5674 177.588 81.8604 177.566 80.9174 177.541C79.9944 177.48 78.8704 177.421 77.6104 177.237C76.3384 177.112 74.9424 176.8 73.4104 176.515C71.9085 176.122 70.2594 175.777 68.5884 175.185C66.8854 174.686 65.1614 173.983 63.3794 173.257C61.6014 172.53 59.8434 171.605 58.0414 170.72C56.3194 169.685 54.4925 168.769 52.8205 167.611L50.3014 165.904L49.0544 165.05L47.8744 164.12C47.0924 163.503 46.3164 162.89 45.5494 162.285C44.7734 161.693 44.0284 161.083 43.3444 160.425C41.9484 159.148 40.5994 157.914 39.3214 156.743C38.1264 155.49 36.9974 154.305 35.9554 153.213C35.4344 152.666 34.9365 152.143 34.4625 151.646C34.0215 151.119 33.6045 150.618 33.2125 150.147C32.4305 149.206 31.7485 148.385 31.1865 147.709C30.0645 146.359 29.4235 145.588 29.4235 145.588C29.2685 145.401 29.2944 145.124 29.4814 144.969C29.6614 144.819 29.9264 144.838 30.0844 145.008L30.1054 145.03C30.1054 145.03 30.7804 145.761 31.9634 147.041C32.5544 147.68 33.2714 148.456 34.0944 149.346C34.5054 149.79 34.9444 150.262 35.4054 150.76C35.8994 151.227 36.4184 151.717 36.9604 152.229C38.0414 153.25 39.2134 154.357 40.4524 155.528C41.7664 156.609 43.1514 157.748 44.5844 158.928C45.2854 159.535 46.0444 160.093 46.8314 160.63C47.6084 161.18 48.3954 161.735 49.1874 162.297L50.3794 163.14L51.6334 163.903L54.1544 165.426C55.8254 166.46 57.6314 167.245 59.3304 168.151C61.0994 168.905 62.8215 169.701 64.5445 170.301C66.2695 170.899 67.9324 171.479 69.5544 171.86C71.1524 172.337 72.7064 172.571 74.1184 172.867C75.5464 173.052 76.8514 173.277 78.0104 173.326C79.1704 173.435 80.1704 173.431 80.9944 173.445C81.7994 173.421 82.4674 173.406 82.8304 173.361C83.1984 173.336 83.4764 173.294 83.4764 173.294L83.5024 173.29C84.6624 173.119 85.7424 173.92 85.9134 175.08C86.0864 176.24 85.2844 177.319 84.1244 177.492C84.0584 177.504 83.9894 177.51 83.9244 177.513Z" fill="url(#paint5_linear_333_622)"/>
<path d="M212.608 319.678C212.608 319.678 212.392 319.534 211.975 319.256C211.54 318.957 210.894 318.514 210.053 317.937C208.293 316.75 205.963 315.013 202.95 312.803C201.483 311.668 199.858 310.412 198.088 309.044C196.305 307.69 194.431 306.174 192.456 304.529C190.478 302.885 188.334 301.179 186.151 299.3C183.983 297.405 181.705 295.414 179.327 293.336C176.919 291.292 174.559 289.007 172.063 286.701C169.6 284.361 166.96 282.041 164.42 279.479C159.33 274.366 153.844 269.102 148.565 263.276C145.898 260.392 143.128 257.517 140.436 254.506C137.793 251.453 135.117 248.363 132.42 245.247C131.073 243.691 129.721 242.128 128.364 240.56C127.031 238.973 125.762 237.324 124.452 235.704C121.855 232.45 119.247 229.184 116.639 225.917C113.969 222.702 111.611 219.244 109.124 215.91C106.669 212.555 104.222 209.212 101.797 205.896C97.0961 199.157 92.7161 192.357 88.3531 185.876C87.2421 184.268 86.2402 182.609 85.2612 180.957C84.2712 179.313 83.2912 177.683 82.3212 176.072C80.3842 172.85 78.4881 169.699 76.6431 166.631C75.7211 165.098 74.8122 163.585 73.9162 162.097C73.0412 160.595 72.2682 159.064 71.4592 157.588C69.8652 154.623 68.3252 151.758 66.8472 149.008C65.3702 146.26 63.9541 143.626 62.6081 141.122C61.9371 139.869 61.2821 138.649 60.6471 137.463C60.0701 136.246 59.5091 135.064 58.9651 133.919C56.7931 129.341 54.9001 125.35 53.3411 122.062C50.2271 115.494 48.4472 111.741 48.4472 111.741C48.0652 110.936 48.4082 109.975 49.2132 109.593C49.9942 109.222 50.9222 109.535 51.3252 110.288L51.3652 110.364C51.3652 110.364 53.3072 114.01 56.7052 120.39C58.4022 123.576 60.4631 127.446 62.8271 131.885C63.4171 132.993 64.0261 134.138 64.6541 135.316C65.3391 136.463 66.0441 137.642 66.7681 138.853C68.2161 141.271 69.7402 143.815 71.3292 146.468C72.9172 149.12 74.5712 151.882 76.2832 154.741C77.1512 156.163 77.9831 157.638 78.9181 159.081C79.8721 160.512 80.8411 161.967 81.8231 163.439C83.7871 166.384 85.8022 169.409 87.8642 172.501C88.8942 174.046 89.9351 175.607 90.9861 177.184C92.0261 178.767 93.0892 180.356 94.2612 181.892C98.8672 188.086 103.487 194.579 108.417 200.992C110.956 204.142 113.514 207.317 116.083 210.505C118.679 213.667 121.146 216.952 123.918 219.987C126.625 223.072 129.332 226.156 132.029 229.229C133.385 230.758 134.702 232.314 136.08 233.808C137.481 235.282 138.877 236.75 140.268 238.213C143.048 241.137 145.804 244.038 148.529 246.904C151.297 249.725 154.136 252.408 156.869 255.102C162.28 260.548 167.87 265.427 173.049 270.171C175.633 272.549 178.305 274.68 180.8 276.84C183.326 278.965 185.717 281.077 188.138 282.943C190.529 284.845 192.821 286.667 195 288.401C197.191 290.116 199.328 291.656 201.303 293.149C203.278 294.644 205.141 296.015 206.899 297.222C208.644 298.447 210.247 299.572 211.695 300.588C214.621 302.53 216.933 304.092 218.44 305.004C219.221 305.491 219.821 305.863 220.224 306.114C220.653 306.373 220.876 306.505 220.876 306.505L220.925 306.535C224.606 308.748 225.796 313.526 223.583 317.207C221.371 320.888 216.593 322.077 212.912 319.865C212.818 319.814 212.7 319.739 212.608 319.678Z" fill="url(#paint6_linear_333_622)"/>
<defs>
<linearGradient id="paint0_linear_333_622" x1="-118.628" y1="67.6954" x2="199.584" y2="190.633" gradientUnits="userSpaceOnUse">
<stop offset="0.0792" stop-color="#86C80E"/>
<stop offset="0.2433" stop-color="#83C50D"/>
<stop offset="0.3799" stop-color="#78BD0B"/>
<stop offset="0.5065" stop-color="#67AE07"/>
<stop offset="0.6265" stop-color="#4F9A01"/>
<stop offset="0.651" stop-color="#499500"/>
<stop offset="1" stop-color="#2F6C00"/>
</linearGradient>
<linearGradient id="paint1_linear_333_622" x1="116.436" y1="-22.3551" x2="74.3314" y2="413.224" gradientUnits="userSpaceOnUse">
<stop offset="0.0792" stop-color="#86C80E"/>
<stop offset="0.2433" stop-color="#83C50D"/>
<stop offset="0.3799" stop-color="#78BD0B"/>
<stop offset="0.5065" stop-color="#67AE07"/>
<stop offset="0.6265" stop-color="#4F9A01"/>
<stop offset="0.651" stop-color="#499500"/>
<stop offset="1" stop-color="#2F6C00"/>
</linearGradient>
<linearGradient id="paint2_linear_333_622" x1="147.059" y1="-46.7886" x2="157.796" y2="270.32" gradientUnits="userSpaceOnUse">
<stop offset="0.0792" stop-color="#86C80E"/>
<stop offset="0.2433" stop-color="#83C50D"/>
<stop offset="0.3799" stop-color="#78BD0B"/>
<stop offset="0.5065" stop-color="#67AE07"/>
<stop offset="0.6265" stop-color="#4F9A01"/>
<stop offset="0.651" stop-color="#499500"/>
<stop offset="1" stop-color="#2F6C00"/>
</linearGradient>
<linearGradient id="paint3_linear_333_622" x1="77.9218" y1="-44.4546" x2="88.6584" y2="272.662" gradientUnits="userSpaceOnUse">
<stop offset="0.0792" stop-color="#86C80E"/>
<stop offset="0.2433" stop-color="#83C50D"/>
<stop offset="0.3799" stop-color="#78BD0B"/>
<stop offset="0.5065" stop-color="#67AE07"/>
<stop offset="0.6265" stop-color="#4F9A01"/>
<stop offset="0.651" stop-color="#499500"/>
<stop offset="1" stop-color="#2F6C00"/>
</linearGradient>
<linearGradient id="paint4_linear_333_622" x1="97.3498" y1="-45.105" x2="108.086" y2="272.003" gradientUnits="userSpaceOnUse">
<stop offset="0.0792" stop-color="#86C80E"/>
<stop offset="0.2433" stop-color="#83C50D"/>
<stop offset="0.3799" stop-color="#78BD0B"/>
<stop offset="0.5065" stop-color="#67AE07"/>
<stop offset="0.6265" stop-color="#4F9A01"/>
<stop offset="0.651" stop-color="#499500"/>
<stop offset="1" stop-color="#2F6C00"/>
</linearGradient>
<linearGradient id="paint5_linear_333_622" x1="50.7265" y1="-43.5294" x2="61.4629" y2="273.582" gradientUnits="userSpaceOnUse">
<stop offset="0.0792" stop-color="#86C80E"/>
<stop offset="0.2433" stop-color="#83C50D"/>
<stop offset="0.3799" stop-color="#78BD0B"/>
<stop offset="0.5065" stop-color="#67AE07"/>
<stop offset="0.6265" stop-color="#4F9A01"/>
<stop offset="0.651" stop-color="#499500"/>
<stop offset="1" stop-color="#2F6C00"/>
</linearGradient>
<linearGradient id="paint6_linear_333_622" x1="127.752" y1="-46.1359" x2="138.489" y2="270.975" gradientUnits="userSpaceOnUse">
<stop offset="0.0792" stop-color="#86C80E"/>
<stop offset="0.2433" stop-color="#83C50D"/>
<stop offset="0.3799" stop-color="#78BD0B"/>
<stop offset="0.5065" stop-color="#67AE07"/>
<stop offset="0.6265" stop-color="#4F9A01"/>
<stop offset="0.651" stop-color="#499500"/>
<stop offset="1" stop-color="#2F6C00"/>
</linearGradient>
</defs>
</svg>
