<svg width="237" height="314" viewBox="0 0 237 314" fill="none" xmlns="http://www.w3.org/2000/svg">
<path d="M24.0469 0.754883C29.7369 7.64988 33.7919 13.6459 33.7919 13.6459C100.86 92.4289 150.241 195.517 175.876 255.956C195.64 241.921 261.649 184.765 225.42 114.262C188.051 41.5419 41.0819 4.79888 24.0469 0.754883Z" fill="url(#paint0_linear_333_712)"/>
<path d="M34.4125 13.288C34.4125 13.288 30.3575 7.29197 24.6675 0.396973C23.6635 0.158973 23.1074 0.0329727 23.0554 0.0219727C22.7724 0.932973 -26.7166 159.979 20.1864 232.754C58.1884 291.718 135.533 279.603 172.223 258.42C173.137 257.892 174.612 256.936 176.497 255.597C150.86 195.158 101.48 92.071 34.4125 13.288Z" fill="url(#paint1_linear_333_712)"/>
<path d="M189.044 308.527C189.044 308.527 188.624 307.296 187.836 304.988C187.06 302.716 185.879 299.362 184.322 295.07C182.811 290.778 180.815 285.602 178.612 279.643C176.28 273.726 173.785 266.997 170.81 259.75C169.34 256.119 167.809 252.337 166.224 248.422C164.583 244.53 162.886 240.506 161.142 236.369C157.707 228.07 153.788 219.448 149.824 210.484C147.875 205.985 145.693 201.509 143.577 196.93C141.434 192.364 139.265 187.742 137.079 183.083C134.798 178.47 132.501 173.82 130.194 169.151C127.886 164.483 125.605 159.774 123.131 155.17C118.23 145.938 113.551 136.568 108.412 127.65C105.898 123.158 103.405 118.7 100.94 114.296C100.324 113.195 99.7087 112.097 99.0967 111.003C98.4517 109.929 97.8087 108.858 97.1677 107.791C95.8857 105.657 94.6137 103.538 93.3517 101.437C90.8277 97.232 88.3456 93.097 85.9156 89.05C85.3056 88.039 84.7006 87.033 84.0986 86.033C83.4636 85.054 82.8317 84.081 82.2047 83.115C80.9497 81.18 79.7097 79.27 78.4867 77.385C76.0387 73.614 73.6587 69.944 71.3567 66.395C70.2007 64.623 69.0636 62.88 67.9476 61.171C66.7696 59.505 65.6137 57.871 64.4817 56.27C59.9497 49.86 55.7947 43.985 52.1127 38.777C48.3147 33.656 44.8157 29.336 42.0267 25.701C36.3977 18.469 33.1816 14.336 33.1816 14.336L35.6447 12.239C35.6447 12.239 39.0296 16.272 44.9526 23.33C47.8896 26.88 51.5747 31.104 55.5867 36.117C59.4837 41.221 63.8817 46.978 68.6777 53.258C69.8777 54.83 71.1027 56.433 72.3507 58.068C73.5367 59.747 74.7447 61.457 75.9727 63.197C78.4217 66.684 80.9537 70.289 83.5577 73.995C84.8597 75.849 86.1796 77.728 87.5156 79.63C88.1836 80.582 88.8567 81.539 89.5317 82.502C90.1747 83.487 90.8217 84.476 91.4717 85.471C94.0687 89.455 96.7217 93.526 99.4187 97.666C100.769 99.737 102.129 101.826 103.499 103.929C104.185 104.981 104.873 106.037 105.562 107.096C106.219 108.174 106.879 109.256 107.541 110.342C110.186 114.686 112.863 119.084 115.562 123.516C121.075 132.321 126.13 141.572 131.415 150.703C134.082 155.257 136.553 159.913 139.053 164.533C141.551 169.154 144.041 173.758 146.51 178.325C148.887 182.94 151.245 187.52 153.574 192.043C155.878 196.581 158.246 201.021 160.378 205.482C164.709 214.373 168.984 222.932 172.759 231.179C174.674 235.29 176.536 239.29 178.337 243.16C180.084 247.055 181.771 250.818 183.39 254.432C186.665 261.644 189.442 268.358 192.02 274.259C194.476 280.218 196.687 285.377 198.388 289.694C200.124 293.98 201.468 297.388 202.369 299.745C203.257 302.063 203.731 303.3 203.731 303.3L189.044 308.527Z" fill="url(#paint2_linear_333_712)"/>
<path d="M163.873 236.461C163.873 236.461 164.587 235.128 165.837 232.797C167.078 230.452 168.847 227.09 170.903 223.019C172.975 218.955 175.325 214.18 177.792 209.037C179.001 206.455 180.25 203.786 181.52 201.074C182.737 198.341 183.974 195.564 185.211 192.787C186.38 189.987 187.639 187.21 188.72 184.428C189.816 181.651 190.958 178.93 191.897 176.251C192.88 173.582 193.84 171.002 194.601 168.519C195.002 167.281 195.393 166.076 195.77 164.911C196.133 163.743 196.405 162.6 196.71 161.508C197.005 160.414 197.287 159.365 197.556 158.368C197.822 157.369 197.955 156.41 198.146 155.514C198.452 153.718 198.906 152.144 198.938 150.851C199.167 148.251 199.297 146.765 199.297 146.765L201.238 146.719C201.238 146.719 201.221 148.286 201.191 151.031C201.252 152.426 200.917 154.033 200.74 155.928C200.614 156.866 200.544 157.886 200.351 158.926C200.154 159.966 199.947 161.06 199.731 162.201C199.505 163.34 199.311 164.542 199.032 165.76C198.738 166.975 198.434 168.229 198.122 169.52C197.536 172.119 196.763 174.802 195.971 177.585C195.221 180.386 194.278 183.213 193.381 186.115C192.496 189.023 191.444 191.91 190.473 194.837C189.437 197.738 188.4 200.637 187.38 203.491C186.306 206.325 185.25 209.113 184.227 211.811C182.133 217.186 180.126 222.186 178.347 226.446C176.582 230.714 175.052 234.248 173.974 236.723C172.878 239.201 172.252 240.616 172.252 240.616L163.873 236.461Z" fill="url(#paint4_linear_333_712)"/>
<path d="M162.96 227.228C162.96 227.228 161.282 227.333 158.347 227.516C155.43 227.672 151.276 227.862 146.29 227.972C136.321 228.191 123.019 228.151 109.747 227.025C106.431 226.741 103.117 226.417 99.8618 225.985C96.6078 225.584 93.4128 225.075 90.3328 224.508C87.2528 223.946 84.2939 223.276 81.5059 222.564C80.1129 222.201 78.7688 221.786 77.4668 221.418C76.1788 220.986 74.9337 220.569 73.7397 220.168C72.5647 219.702 71.4388 219.255 70.3688 218.83C69.3228 218.339 68.3308 217.873 67.3988 217.435C65.5788 216.458 63.9989 215.592 62.7979 214.696C61.5459 213.889 60.6678 213.096 60.0638 212.568C59.4578 212.045 59.1348 211.766 59.1348 211.766L60.4388 210.328C60.4388 210.328 60.7568 210.565 61.3528 211.007C61.9438 211.454 62.7948 212.126 64.0208 212.797C65.1848 213.548 66.7378 214.258 68.5068 215.055C69.4168 215.407 70.3848 215.781 71.4058 216.175C72.4518 216.508 73.5538 216.858 74.7018 217.222C75.8718 217.525 77.0898 217.84 78.3518 218.167C79.6328 218.432 80.9438 218.74 82.3098 218.993C85.0458 219.489 87.9458 219.935 90.9698 220.269C93.9908 220.607 97.1248 220.883 100.322 221.05C103.514 221.247 106.768 221.334 110.022 221.384C123.045 221.57 136.086 220.691 145.816 219.79C150.684 219.338 154.727 218.866 157.545 218.516C160.34 218.142 161.936 217.93 161.936 217.93L162.96 227.228Z" fill="url(#paint5_linear_333_712)"/>
<path d="M141.482 192.031C141.482 192.031 141.622 191.714 141.884 191.12C142.131 190.563 142.492 189.71 142.947 188.573C143.417 187.46 143.921 186.061 144.538 184.479C145.099 182.871 145.788 181.073 146.43 179.072C147.095 177.077 147.799 174.909 148.461 172.587C149.182 170.28 149.793 167.81 150.467 165.26C151.12 162.706 151.678 160.04 152.282 157.333C152.75 154.609 153.368 151.849 153.733 149.06C154.103 146.273 154.576 143.484 154.76 140.719C154.884 139.337 155.007 137.965 155.128 136.61C155.257 135.254 155.242 133.913 155.305 132.593C155.35 131.271 155.393 129.97 155.437 128.698C155.477 127.423 155.385 126.183 155.368 124.971C155.272 122.55 155.311 120.239 155.029 118.142C154.819 116.031 154.627 114.096 154.456 112.38C154.185 110.68 153.894 109.206 153.682 107.985C153.242 105.542 152.991 104.145 152.991 104.145L154.867 103.643C154.867 103.643 155.237 105.041 155.887 107.488C156.203 108.715 156.624 110.201 157.042 111.92C157.359 113.66 157.715 115.623 158.105 117.764C158.569 119.904 158.723 122.256 159.022 124.74C159.141 125.982 159.337 127.259 159.403 128.568C159.465 129.878 159.528 131.217 159.592 132.579C159.638 133.941 159.763 135.332 159.745 136.734C159.734 138.138 159.722 139.559 159.709 140.992C159.747 143.867 159.498 146.764 159.347 149.679C159.201 152.595 158.8 155.478 158.54 158.342C158.146 161.182 157.79 163.99 157.329 166.687C156.846 169.378 156.417 171.994 155.867 174.443C155.374 176.906 154.825 179.218 154.303 181.35C153.802 183.489 153.236 185.425 152.784 187.155C152.272 188.875 151.862 190.378 151.456 191.613C151.077 192.838 150.75 193.829 150.508 194.522C150.281 195.177 150.16 195.526 150.16 195.526L141.482 192.031Z" fill="url(#paint6_linear_333_712)"/>
<path d="M135.015 170.228C135.015 170.228 134.65 170.261 133.966 170.325C133.305 170.372 132.336 170.443 131.102 170.531C128.649 170.681 125.167 170.82 120.994 170.823C112.657 170.826 101.51 170.231 90.5808 167.98C87.8518 167.422 85.1378 166.78 82.4998 166.007C79.8558 165.265 77.2948 164.376 74.8478 163.443C73.6278 162.966 72.4467 162.436 71.2867 161.951C70.1517 161.399 69.0388 160.86 67.9578 160.335C66.9068 159.749 65.8838 159.179 64.8958 158.627C63.9418 158.015 63.0198 157.424 62.1348 156.858C60.4228 155.633 58.8768 154.491 57.6108 153.34C56.2808 152.273 55.3048 151.131 54.4238 150.291C53.5878 149.4 53.0018 148.633 52.5718 148.143C52.1518 147.644 51.9277 147.377 51.9277 147.377L53.4148 146.128C53.4148 146.128 53.6487 146.363 54.0887 146.802C54.5387 147.231 55.1488 147.907 56.0098 148.679C56.9168 149.403 57.9108 150.393 59.2538 151.291C60.5298 152.268 62.0808 153.217 63.7758 154.226C64.6508 154.686 65.5617 155.165 66.5057 155.663C67.4767 156.101 68.4818 156.555 69.5138 157.02C70.5728 157.426 71.6597 157.844 72.7717 158.27C73.9097 158.633 75.0558 159.036 76.2428 159.387C78.6258 160.068 81.1078 160.701 83.6698 161.188C86.2228 161.705 88.8478 162.094 91.4808 162.401C102.026 163.653 112.725 163.313 120.652 162.632C124.62 162.289 127.909 161.875 130.186 161.539C131.315 161.361 132.2 161.22 132.804 161.125C133.382 161.021 133.691 160.965 133.691 160.965L135.015 170.228Z" fill="url(#paint7_linear_333_712)"/>
<path d="M115.838 140.388C115.838 140.388 115.937 138.979 116.112 136.516C116.265 134.028 116.45 130.458 116.57 126.165C116.817 117.583 116.813 106.098 115.864 94.694C115.641 91.842 115.334 89.0009 114.985 86.2109C114.637 83.4199 114.2 80.6939 113.734 78.0599C113.235 75.4369 112.69 72.916 112.079 70.551C111.46 68.19 110.789 65.9849 110.078 63.9839C109.37 61.9819 108.595 60.207 107.876 58.645C107.091 57.125 106.402 55.7939 105.715 54.7819C105.096 53.7149 104.473 52.9889 104.085 52.4609C103.689 51.9379 103.477 51.66 103.477 51.66L104.907 50.3469C104.907 50.3469 105.157 50.6269 105.626 51.1489C106.087 51.6779 106.822 52.418 107.569 53.491C108.391 54.52 109.231 55.8589 110.191 57.4069C111.079 58.9859 112.045 60.7919 112.951 62.8229C113.861 64.8519 114.742 67.091 115.581 69.488C116.41 71.888 117.181 74.447 117.913 77.111C118.61 79.78 119.283 82.5519 119.87 85.3849C120.458 88.2169 121.005 91.1059 121.467 94.0029C123.372 105.592 124.312 117.286 124.764 126.066C124.993 130.459 125.097 134.127 125.144 136.704C125.169 139.304 125.182 140.79 125.182 140.79L115.838 140.388Z" fill="url(#paint8_linear_333_712)"/>
<path d="M101.472 104.136C101.472 104.136 101.23 104.128 100.775 104.111C100.343 104.086 99.7095 104.05 98.9025 104.003C97.3055 103.895 95.0495 103.699 92.3605 103.372C86.9875 102.716 79.8635 101.501 72.9445 99.382C69.4865 98.329 66.0865 97.06 63.0065 95.611C61.4665 94.888 60.0124 94.11 58.6584 93.329C57.3144 92.527 56.0795 91.7119 54.9745 90.9069C53.8845 90.0789 52.8995 89.307 52.0905 88.54C51.2475 87.82 50.6064 87.0819 50.0494 86.5179C49.5074 85.9359 49.1325 85.4269 48.8555 85.1069C48.5855 84.7779 48.4414 84.6039 48.4414 84.6039L49.9115 83.335C49.9115 83.335 50.0655 83.4789 50.3555 83.7479C50.6525 84.0099 51.0494 84.428 51.6184 84.894C52.2034 85.344 52.8655 85.935 53.7305 86.493C54.5555 87.092 55.5565 87.6779 56.6465 88.2999C57.7545 88.9009 58.9834 89.4939 60.3094 90.0649C61.6474 90.6149 63.0744 91.151 64.5814 91.627C67.5954 92.582 70.8984 93.3369 74.2394 93.8879C82.8724 95.3229 87.9165 95.93 95.7155 95.202L101.472 104.136Z" fill="url(#paint9_linear_333_712)"/>
<path d="M189.045 308.527C189.045 308.527 188.625 307.296 187.837 304.988C187.061 302.716 185.88 299.362 184.323 295.07C182.812 290.778 180.816 285.602 178.613 279.643C176.281 273.726 173.786 266.997 170.811 259.75C169.341 256.119 167.81 252.337 166.225 248.422C164.584 244.53 162.887 240.506 161.143 236.369C157.708 228.07 153.789 219.448 149.825 210.484C147.876 205.985 145.694 201.509 143.578 196.93C141.435 192.364 139.266 187.742 137.08 183.083C134.799 178.47 132.502 173.82 130.195 169.151C127.887 164.483 125.606 159.774 123.132 155.17C118.231 145.938 113.552 136.568 108.413 127.65C105.899 123.158 103.406 118.7 100.941 114.296C100.325 113.195 99.7098 112.097 99.0978 111.003C98.4528 109.929 97.8099 108.858 97.1689 107.791C95.8869 105.657 94.6148 103.538 93.3528 101.437C90.8288 97.2319 88.3468 93.0969 85.9168 89.0499C85.3068 88.0389 84.7018 87.0329 84.0998 86.0329C83.4648 85.0539 82.8328 84.0809 82.2058 83.1149C80.9508 81.1799 79.7108 79.2699 78.4878 77.3849C76.0398 73.6139 73.6598 69.9439 71.3578 66.3949C70.2018 64.6229 69.0648 62.8799 67.9488 61.1709C66.7708 59.5049 65.6148 57.8709 64.4828 56.2699C59.9508 49.8599 55.7958 43.9849 52.1138 38.7769C48.3158 33.6559 44.8169 29.3359 42.0279 25.7009C36.3989 18.4689 33.1828 14.3359 33.1828 14.3359L33.1319 14.2719C32.5839 13.5669 32.7098 12.5509 33.4148 12.0039C34.1028 11.4689 35.0888 11.5789 35.6458 12.2399C35.6458 12.2399 39.0308 16.2729 44.9538 23.3309C47.8908 26.8809 51.5758 31.1049 55.5878 36.1179C59.4848 41.2219 63.8829 46.9789 68.6789 53.2589C69.8789 54.8309 71.1038 56.4339 72.3518 58.0689C73.5378 59.7479 74.7458 61.4579 75.9738 63.1979C78.4228 66.6849 80.9549 70.2899 83.5589 73.9959C84.8609 75.8499 86.1808 77.7289 87.5168 79.6309C88.1848 80.5829 88.8579 81.5399 89.5329 82.5029C90.1759 83.4879 90.8228 84.4769 91.4728 85.4719C94.0698 89.4559 96.7228 93.5269 99.4198 97.6669C100.77 99.7379 102.13 101.827 103.5 103.93C104.186 104.982 104.874 106.038 105.563 107.097C106.22 108.175 106.88 109.257 107.542 110.343C110.187 114.687 112.864 119.085 115.563 123.517C121.076 132.322 126.131 141.573 131.416 150.704C134.083 155.258 136.554 159.914 139.054 164.534C141.552 169.155 144.042 173.759 146.511 178.326C148.888 182.941 151.246 187.521 153.575 192.044C155.879 196.582 158.247 201.022 160.379 205.483C164.71 214.374 168.985 222.933 172.76 231.18C174.675 235.291 176.537 239.291 178.338 243.161C180.085 247.056 181.772 250.819 183.391 254.433C186.666 261.645 189.443 268.359 192.021 274.26C194.477 280.219 196.688 285.378 198.389 289.695C200.125 293.981 201.469 297.389 202.37 299.746C203.258 302.064 203.732 303.301 203.732 303.301C205.272 307.322 203.261 311.83 199.239 313.37C195.218 314.91 190.71 312.899 189.17 308.878C189.14 308.799 189.111 308.719 189.083 308.64L189.045 308.527Z" fill="url(#paint10_linear_333_712)"/>
<defs>
<linearGradient id="paint0_linear_333_712" x1="151.554" y1="21.5472" x2="52.6475" y2="317.253" gradientUnits="userSpaceOnUse">
<stop offset="0.0792" stop-color="#86C80E"/><stop offset="0.2433" stop-color="#83C50D"/><stop offset="0.3799" stop-color="#78BD0B"/><stop offset="0.5065" stop-color="#67AE07"/><stop offset="0.6265" stop-color="#4F9A01"/><stop offset="0.651" stop-color="#499500"/><stop offset="1" stop-color="#2F6C00"/>
</linearGradient>
<linearGradient id="paint1_linear_333_712" x1="-86.819" y1="112.295" x2="183.231" y2="160.056" gradientUnits="userSpaceOnUse">
<stop offset="0.0792" stop-color="#86C80E"/><stop offset="0.2433" stop-color="#83C50D"/><stop offset="0.3799" stop-color="#78BD0B"/><stop offset="0.5065" stop-color="#67AE07"/><stop offset="0.6265" stop-color="#4F9A01"/><stop offset="0.651" stop-color="#499500"/><stop offset="1" stop-color="#2F6C00"/>
</linearGradient>
<linearGradient id="paint2_linear_333_712" x1="-16.021" y1="-15.7078" x2="133.386" y2="186.945" gradientUnits="userSpaceOnUse">
<stop offset="0.0792" stop-color="#86C80E"/><stop offset="0.2433" stop-color="#83C50D"/><stop offset="0.3799" stop-color="#78BD0B"/><stop offset="0.5065" stop-color="#67AE07"/><stop offset="0.6265" stop-color="#4F9A01"/><stop offset="0.651" stop-color="#499500"/><stop offset="1" stop-color="#2F6C00"/>
</linearGradient>
<linearGradient id="paint4_linear_333_712" x1="13.6172" y1="-37.5546" x2="163.022" y2="165.095" gradientUnits="userSpaceOnUse">
<stop offset="0.0792" stop-color="#86C80E"/><stop offset="0.2433" stop-color="#83C50D"/><stop offset="0.3799" stop-color="#78BD0B"/><stop offset="0.5065" stop-color="#67AE07"/><stop offset="0.6265" stop-color="#4F9A01"/><stop offset="0.651" stop-color="#499500"/><stop offset="1" stop-color="#2F6C00"/>
</linearGradient>
<linearGradient id="paint5_linear_333_712" x1="-44.1541" y1="5.03091" x2="105.253" y2="207.685" gradientUnits="userSpaceOnUse">
<stop offset="0.0792" stop-color="#86C80E"/><stop offset="0.2433" stop-color="#83C50D"/><stop offset="0.3799" stop-color="#78BD0B"/><stop offset="0.5065" stop-color="#67AE07"/><stop offset="0.6265" stop-color="#4F9A01"/><stop offset="0.651" stop-color="#499500"/><stop offset="1" stop-color="#2F6C00"/>
</linearGradient>
<linearGradient id="paint6_linear_333_712" x1="12.242" y1="-36.5396" x2="161.647" y2="166.11" gradientUnits="userSpaceOnUse">
<stop offset="0.0792" stop-color="#86C80E"/><stop offset="0.2433" stop-color="#83C50D"/><stop offset="0.3799" stop-color="#78BD0B"/><stop offset="0.5065" stop-color="#67AE07"/><stop offset="0.6265" stop-color="#4F9A01"/><stop offset="0.651" stop-color="#499500"/><stop offset="1" stop-color="#2F6C00"/>
</linearGradient>
<linearGradient id="paint7_linear_333_712" x1="-26.6587" y1="-7.86764" x2="122.749" y2="194.787" gradientUnits="userSpaceOnUse">
<stop offset="0.0792" stop-color="#86C80E"/><stop offset="0.2433" stop-color="#83C50D"/><stop offset="0.3799" stop-color="#78BD0B"/><stop offset="0.5065" stop-color="#67AE07"/><stop offset="0.6265" stop-color="#4F9A01"/><stop offset="0.651" stop-color="#499500"/><stop offset="1" stop-color="#2F6C00"/>
</linearGradient>
<linearGradient id="paint8_linear_333_712" x1="12.927" y1="-37.0493" x2="162.334" y2="165.602" gradientUnits="userSpaceOnUse">
<stop offset="0.0792" stop-color="#86C80E"/><stop offset="0.2433" stop-color="#83C50D"/><stop offset="0.3799" stop-color="#78BD0B"/><stop offset="0.5065" stop-color="#67AE07"/><stop offset="0.6265" stop-color="#4F9A01"/><stop offset="0.651" stop-color="#499500"/><stop offset="1" stop-color="#2F6C00"/>
</linearGradient>
<linearGradient id="paint9_linear_333_712" x1="-9.38918" y1="-20.6007" x2="140.02" y2="182.055" gradientUnits="userSpaceOnUse">
<stop offset="0.0792" stop-color="#86C80E"/><stop offset="0.2433" stop-color="#83C50D"/><stop offset="0.3799" stop-color="#78BD0B"/><stop offset="0.5065" stop-color="#67AE07"/><stop offset="0.6265" stop-color="#4F9A01"/><stop offset="0.651" stop-color="#499500"/><stop offset="1" stop-color="#2F6C00"/>
</linearGradient>
<linearGradient id="paint10_linear_333_712" x1="-16.177" y1="-15.5917" x2="133.229" y2="187.06" gradientUnits="userSpaceOnUse">
<stop offset="0.0792" stop-color="#86C80E"/><stop offset="0.2433" stop-color="#83C50D"/><stop offset="0.3799" stop-color="#78BD0B"/><stop offset="0.5065" stop-color="#67AE07"/><stop offset="0.6265" stop-color="#4F9A01"/><stop offset="0.651" stop-color="#499500"/><stop offset="1" stop-color="#2F6C00"/>
</linearGradient>
</defs>
</svg>
