<svg width="265" height="365" viewBox="0 0 265 365" fill="none" xmlns="http://www.w3.org/2000/svg">
<path d="M35.1038 10.1509C-53.6972 71.2069 34.4258 395.954 204.564 297.724C205.744 297.043 206.897 296.352 208.038 295.656C166.278 198.557 77.2588 69.1349 35.1038 10.1509Z" fill="url(#paint0_linear_333_630)"/>
<path d="M38.7065 7.86289C37.4735 8.57489 36.2765 9.34688 35.1055 10.1509C77.2595 69.1339 166.279 198.557 208.039 295.657C373.617 194.852 132.782 -46.4531 38.7065 7.86289Z" fill="url(#paint1_linear_333_630)"/>
<path d="M198.886 282.27C198.886 282.27 199.857 280.807 201.534 278.108C203.203 275.423 205.542 271.543 208.229 266.811C213.6 257.353 220.328 244.447 225.828 231.013C227.197 227.655 228.526 224.278 229.706 220.909C230.92 217.552 231.993 214.208 232.958 210.952C234.885 204.437 236.257 198.236 237.029 192.866C237.4 190.181 237.709 187.707 237.81 185.51C237.993 183.31 237.969 181.393 237.98 179.811C238.002 178.228 237.852 176.994 237.83 176.147C237.783 175.301 237.758 174.849 237.758 174.849L237.755 174.798C237.732 174.386 238.047 174.034 238.458 174.011C238.857 173.989 239.2 174.285 239.242 174.677C239.242 174.677 239.291 175.137 239.381 176.001C239.447 176.864 239.661 178.129 239.718 179.748C239.785 181.366 239.904 183.335 239.828 185.59C239.833 187.849 239.643 190.388 239.397 193.153C238.875 198.68 237.783 205.073 236.145 211.804C235.324 215.168 234.396 218.627 233.33 222.101C232.296 225.587 231.113 229.083 229.888 232.564C224.964 246.488 218.779 259.908 213.789 269.787C211.293 274.728 209.104 278.796 207.53 281.629C205.962 284.449 204.989 286.085 204.989 286.085L204.979 286.102C203.963 287.81 201.754 288.371 200.044 287.354C198.337 286.338 197.775 284.128 198.791 282.419C198.819 282.373 198.855 282.316 198.886 282.27Z" fill="url(#paint2_linear_333_630)"/>
<path d="M198.537 280.947C198.537 280.947 198.051 281.043 197.139 281.224C196.177 281.417 194.827 281.632 193.126 281.888C191.416 282.13 189.349 282.395 186.974 282.629C184.598 282.843 181.92 283.09 178.996 283.191C176.076 283.389 172.906 283.352 169.562 283.388C167.89 283.407 166.172 283.286 164.419 283.239C162.665 283.152 160.872 283.163 159.058 282.966C155.427 282.641 151.67 282.41 147.893 281.799C146.003 281.529 144.097 281.258 142.185 280.985C140.289 280.61 138.387 280.234 136.484 279.857C132.661 279.206 128.938 278.094 125.248 277.151C124.328 276.909 123.411 276.668 122.498 276.428C121.602 276.129 120.711 275.831 119.825 275.535C118.056 274.942 116.308 274.357 114.589 273.781C113.73 273.494 112.879 273.208 112.036 272.925C111.213 272.585 110.399 272.248 109.593 271.915C107.983 271.246 106.409 270.593 104.876 269.957C103.358 269.291 101.827 268.767 100.445 268.038C99.0529 267.334 97.7069 266.654 96.4159 266.001C93.8559 264.657 91.4269 263.588 89.4269 262.355C87.4219 261.136 85.6739 260.073 84.2349 259.198C81.3619 257.449 79.7199 256.45 79.7199 256.45C79.3679 256.235 79.2559 255.777 79.4699 255.425C79.6779 255.083 80.1149 254.969 80.4629 255.157L80.5159 255.186C80.5159 255.186 82.1889 256.099 85.1129 257.696C86.5739 258.493 88.3469 259.462 90.3809 260.572C92.4049 261.696 94.8569 262.639 97.4359 263.844C98.7339 264.427 100.086 265.034 101.486 265.661C102.874 266.315 104.407 266.759 105.927 267.343C107.459 267.898 109.033 268.466 110.641 269.048C111.445 269.338 112.257 269.631 113.077 269.926C113.917 270.164 114.763 270.404 115.619 270.647C117.326 271.132 119.062 271.624 120.819 272.122C121.697 272.372 122.579 272.622 123.466 272.873C124.369 273.066 125.276 273.26 126.187 273.454C129.834 274.206 133.501 275.124 137.258 275.581C139.125 275.861 140.991 276.141 142.849 276.42C144.721 276.597 146.584 276.775 148.433 276.95C152.122 277.376 155.78 277.424 159.306 277.579C161.067 277.689 162.806 277.594 164.503 277.6C166.2 277.567 167.861 277.609 169.475 277.514C172.702 277.326 175.752 277.224 178.55 276.901C181.356 276.672 183.905 276.315 186.163 276.007C188.415 275.68 190.369 275.335 191.961 275.033C193.557 274.716 194.794 274.46 195.584 274.261C196.423 274.055 196.871 273.944 196.871 273.944L196.977 273.918C198.908 273.443 200.859 274.623 201.334 276.555C201.809 278.486 200.629 280.436 198.697 280.91C198.648 280.922 198.586 280.936 198.537 280.947Z" fill="url(#paint3_linear_333_630)"/>
<path d="M186.388 258.297C186.388 258.297 188.811 252.098 192.178 242.648C195.541 233.2 199.832 220.522 203.567 207.686C207.302 194.857 210.425 181.839 211.714 171.944C212.045 169.473 212.274 167.2 212.376 165.187C212.455 164.179 212.481 163.237 212.477 162.369C212.483 161.499 212.514 160.696 212.454 159.982C212.416 159.264 212.383 158.623 212.353 158.065C212.281 157.516 212.221 157.049 212.171 156.67C212.069 155.912 212.015 155.506 212.015 155.506L212.005 155.431C211.95 155.023 212.236 154.649 212.644 154.593C213.038 154.541 213.401 154.807 213.475 155.192C213.475 155.192 213.557 155.616 213.707 156.409C213.78 156.807 213.871 157.298 213.977 157.876C214.038 158.455 214.109 159.12 214.189 159.867C214.291 160.614 214.303 161.439 214.344 162.338C214.396 163.239 214.42 164.211 214.395 165.246C214.4 167.322 214.288 169.656 214.086 172.19C213.306 182.341 210.847 195.652 207.77 208.786C204.693 221.923 201.054 234.908 198.171 244.603C195.288 254.297 193.161 260.73 193.161 260.73C192.541 262.619 190.508 263.647 188.618 263.028C186.728 262.407 185.699 260.374 186.319 258.485C186.339 258.429 186.366 258.353 186.388 258.297Z" fill="url(#paint4_linear_333_630)"/>
<path d="M179.44 248.018C179.44 248.018 178.92 248.015 177.945 248.011C176.984 247.999 175.592 247.963 173.829 247.885C170.305 247.719 165.297 247.389 159.333 246.655C153.371 245.932 146.446 244.841 139.13 243.196C135.466 242.406 131.717 241.418 127.928 240.36C124.149 239.261 120.337 238.058 116.581 236.687C114.704 236 112.827 235.318 110.99 234.546C109.137 233.821 107.317 233.035 105.527 232.219C101.931 230.625 98.4765 228.873 95.1925 227.075C91.9145 225.265 88.8225 223.381 85.9715 221.474C84.5155 220.569 83.1985 219.536 81.8785 218.61C80.5525 217.693 79.3365 216.716 78.1705 215.78C75.7915 213.967 73.7935 212.083 71.9635 210.491C70.2135 208.81 68.7085 207.323 67.4845 206.087C65.1455 203.511 63.8085 202.039 63.8085 202.039C63.5325 201.734 63.5545 201.261 63.8595 200.985C64.1555 200.716 64.6095 200.729 64.8895 201.01L64.9215 201.043C64.9215 201.043 66.3005 202.43 68.7155 204.859C69.9735 206.018 71.5165 207.41 73.3045 208.979C75.1715 210.459 77.2055 212.212 79.6155 213.88C80.7965 214.745 82.0245 215.644 83.3625 216.482C84.6945 217.328 86.0195 218.277 87.4835 219.097C90.3495 220.831 93.4475 222.532 96.7215 224.151C100 225.759 103.441 227.313 107.013 228.706C108.79 229.422 110.596 230.107 112.433 230.731C114.252 231.402 116.112 231.983 117.968 232.569C121.681 233.738 125.446 234.74 129.167 235.643C132.901 236.505 136.587 237.301 140.185 237.908C147.369 239.186 154.142 239.941 159.953 240.38C165.763 240.83 170.614 240.928 173.987 240.935C175.674 240.934 176.995 240.909 177.883 240.879C178.755 240.844 179.221 240.825 179.221 240.825L179.312 240.821C181.298 240.74 182.973 242.286 183.054 244.273C183.135 246.26 181.589 247.936 179.601 248.016C179.551 248.017 179.489 248.018 179.44 248.018Z" fill="url(#paint5_linear_333_630)"/>
<path d="M168.736 226.653C168.736 226.653 169.1 224.996 169.735 222.098C170.351 219.178 171.187 214.985 172.081 209.93C173.88 199.826 175.876 186.254 176.83 172.6C177.077 169.188 177.234 165.772 177.35 162.409C177.429 159.047 177.459 155.735 177.384 152.535C177.24 146.135 176.721 140.178 175.888 135.142C175.494 132.619 174.974 130.339 174.477 128.332C174.198 127.335 173.936 126.404 173.694 125.542C173.426 124.69 173.133 123.924 172.894 123.221C172.441 121.803 171.905 120.773 171.603 120.038C171.284 119.31 171.115 118.922 171.115 118.922L171.09 118.864C170.924 118.487 171.096 118.047 171.473 117.882C171.837 117.722 172.261 117.88 172.439 118.231C172.439 118.231 172.635 118.622 173.005 119.357C173.356 120.098 173.97 121.152 174.512 122.585C174.797 123.296 175.142 124.076 175.463 124.941C175.758 125.816 176.078 126.761 176.419 127.772C177.037 129.811 177.692 132.129 178.231 134.691C179.353 139.808 180.196 145.864 180.679 152.374C180.925 155.629 181.069 158.995 181.164 162.418C181.224 165.839 181.244 169.316 181.173 172.79C180.921 186.69 179.612 200.531 178.318 210.867C177.677 216.037 177.048 220.337 176.574 223.349C176.072 226.373 175.786 228.103 175.786 228.103C175.461 230.065 173.607 231.392 171.645 231.067C169.683 230.742 168.356 228.887 168.682 226.925C168.692 226.868 168.702 226.811 168.714 226.755L168.736 226.653Z" fill="url(#paint6_linear_333_630)"/>
<path d="M163.697 218.035C163.697 218.035 163.26 217.946 162.44 217.777C161.588 217.603 160.375 217.331 158.865 216.968C157.337 216.624 155.52 216.123 153.419 215.589C151.344 214.98 148.976 214.385 146.447 213.568C143.903 212.802 141.163 211.923 138.294 210.913C135.402 209.973 132.423 208.776 129.317 207.626C126.237 206.4 123.074 205.085 119.886 203.698C118.307 202.969 116.715 202.234 115.117 201.495L112.719 200.387L110.362 199.175C107.22 197.56 104.063 195.984 101.082 194.187C99.5767 193.32 98.0847 192.459 96.6097 191.609C95.1577 190.72 93.7628 189.775 92.3708 188.884C90.9838 187.983 89.6207 187.098 88.2867 186.231C86.9837 185.319 85.7447 184.371 84.5197 183.478C82.0867 181.671 79.7397 180.034 77.7677 178.261C75.7517 176.556 73.9027 174.992 72.2647 173.607C70.7307 172.106 69.3947 170.798 68.2927 169.721C66.0977 167.566 64.8448 166.334 64.8448 166.334C64.5498 166.045 64.5467 165.573 64.8347 165.28C65.1137 164.996 65.5647 164.982 65.8597 165.243L65.9057 165.283C65.9057 165.283 67.2067 166.435 69.4837 168.452C70.6207 169.457 72.0017 170.677 73.5837 172.077C75.2657 173.359 77.1637 174.803 79.2337 176.38C81.2527 178.018 83.6497 179.513 86.1257 181.163C87.3707 181.977 88.6297 182.843 89.9527 183.673C91.3057 184.455 92.6867 185.256 94.0917 186.07C95.5017 186.875 96.9107 187.729 98.3767 188.527C99.8637 189.287 101.37 190.055 102.888 190.829C105.89 192.437 109.064 193.823 112.216 195.245L114.578 196.313L116.979 197.277C118.578 197.919 120.168 198.557 121.747 199.191C124.932 200.387 128.086 201.514 131.151 202.556C134.243 203.524 137.2 204.543 140.067 205.314C142.912 206.156 145.62 206.875 148.131 207.493C150.629 208.162 152.953 208.62 154.992 209.108C157.043 209.518 158.83 209.916 160.302 210.167C161.781 210.444 162.923 210.639 163.683 210.755C164.476 210.876 164.898 210.941 164.898 210.941L164.965 210.951C166.93 211.252 168.28 213.089 167.979 215.054C167.679 217.02 165.841 218.369 163.875 218.069C163.822 218.059 163.752 218.047 163.697 218.035Z" fill="url(#paint7_linear_333_630)"/>
<path d="M146.288 185.958C146.288 185.958 146.421 179.578 146.346 169.933C146.311 165.118 146.213 159.499 146.034 153.481C145.919 150.474 145.851 147.36 145.683 144.206C145.538 141.048 145.393 137.839 145.175 134.638C144.996 131.431 144.761 128.23 144.493 125.084C144.269 121.93 143.935 118.842 143.629 115.849C143.359 112.849 142.928 109.98 142.589 107.244C142.279 104.501 141.772 101.953 141.405 99.575C141.059 97.19 140.537 95.058 140.15 93.145C139.948 92.191 139.76 91.297 139.585 90.471C139.365 89.66 139.163 88.914 138.979 88.24C138.234 85.545 137.809 84.004 137.809 84.004L137.793 83.947C137.682 83.55 137.916 83.139 138.313 83.03C138.696 82.924 139.092 83.139 139.218 83.511C139.218 83.511 139.738 85.051 140.646 87.747C140.87 88.424 141.119 89.172 141.388 89.987C141.611 90.813 141.852 91.707 142.11 92.661C142.61 94.573 143.261 96.719 143.742 99.101C144.244 101.478 144.902 104.041 145.368 106.784C145.862 109.523 146.46 112.406 146.897 115.408C147.373 118.407 147.881 121.506 148.283 124.667C148.729 127.824 149.145 131.035 149.503 134.251C149.901 137.464 150.225 140.684 150.547 143.854C150.892 147.023 151.134 150.147 151.417 153.168C151.933 159.214 152.344 164.863 152.648 169.709C153.26 179.386 153.485 185.898 153.485 185.898V185.909C153.554 187.897 152 189.563 150.012 189.632C148.025 189.701 146.358 188.145 146.289 186.159C146.288 186.094 146.288 186.021 146.288 185.958Z" fill="url(#paint8_linear_333_630)"/>
<path d="M140.812 174.101C140.812 174.101 140.372 173.994 139.548 173.796C138.692 173.589 137.479 173.262 135.966 172.825C134.439 172.404 132.626 171.805 130.535 171.144C128.473 170.406 126.117 169.66 123.623 168.649C122.371 168.159 121.067 167.648 119.718 167.119C118.388 166.545 117.013 165.949 115.601 165.338C112.756 164.164 109.886 162.631 106.852 161.206C103.916 159.579 100.806 158.042 97.8086 156.193C94.8076 154.348 91.7166 152.552 88.8226 150.445C87.3536 149.428 85.8856 148.411 84.4226 147.398C83.0246 146.297 81.6326 145.199 80.2516 144.111C78.8876 143.001 77.4666 141.988 76.1906 140.83C74.9146 139.672 73.6546 138.53 72.4146 137.406C71.1956 136.26 69.9136 135.226 68.8146 134.048C67.7066 132.88 66.6226 131.739 65.5676 130.626C64.5146 129.515 63.4906 128.435 62.4986 127.389C61.5646 126.294 60.7136 125.19 59.8686 124.155C58.2096 122.061 56.6236 120.195 55.3386 118.452C54.1316 116.651 53.0796 115.081 52.2126 113.787C50.4826 111.204 49.4946 109.728 49.4946 109.728C49.3236 109.471 49.3916 109.124 49.6476 108.952C49.8976 108.784 50.2356 108.846 50.4106 109.088L50.4406 109.13C50.4406 109.13 51.4746 110.555 53.2856 113.047C54.1886 114.292 55.2866 115.803 56.5446 117.536C57.8776 119.21 59.5156 120.993 61.2266 122.993C62.0966 123.981 62.9726 125.035 63.9336 126.079C64.9486 127.071 65.9976 128.096 67.0766 129.15C68.1536 130.203 69.2596 131.285 70.3916 132.391C71.5116 133.507 72.8166 134.477 74.0536 135.556C75.3116 136.612 76.5886 137.687 77.8826 138.774C79.1746 139.861 80.6116 140.803 81.9876 141.84C83.3796 142.855 84.7826 143.876 86.1906 144.904C87.6606 145.841 89.1366 146.782 90.6126 147.723C93.5176 149.677 96.6136 151.319 99.6096 153.01C102.603 154.707 105.705 156.093 108.623 157.571C111.641 158.848 114.488 160.238 117.305 161.277C118.703 161.82 120.062 162.349 121.378 162.86C122.71 163.324 123.996 163.772 125.231 164.203C127.691 165.095 130.001 165.728 132.023 166.369C134.062 166.931 135.84 167.446 137.311 167.79C138.787 168.156 139.931 168.419 140.694 168.573C141.488 168.733 141.911 168.818 141.911 168.818L141.98 168.833C143.442 169.128 144.387 170.552 144.091 172.014C143.796 173.476 142.371 174.421 140.91 174.124C140.881 174.118 140.841 174.108 140.812 174.101Z" fill="url(#paint9_linear_333_630)"/>
<path d="M118.951 138.564C118.951 138.564 119.005 133.403 118.657 125.568C118.484 121.661 118.201 117.105 117.77 112.234C117.523 109.802 117.332 107.278 116.995 104.735C116.698 102.184 116.38 99.5949 115.964 97.0229C115.61 94.4379 115.145 91.8759 114.66 89.3559C114.238 86.8209 113.614 84.3809 113.079 81.9969C112.589 79.5969 111.815 77.3749 111.243 75.2089C110.662 73.0449 109.83 71.1059 109.212 69.2539C109.048 68.7939 108.888 68.3439 108.731 67.9039C108.539 67.4819 108.35 67.0679 108.167 66.6649C107.801 65.8579 107.453 65.0919 107.126 64.3729C106.794 63.6549 106.505 62.9699 106.198 62.3599C105.85 61.7739 105.531 61.2349 105.243 60.7489C104.087 58.7969 103.425 57.6819 103.425 57.6819L103.386 57.6179C103.229 57.3529 103.317 57.0109 103.581 56.8539C103.838 56.7019 104.167 56.7799 104.33 57.0249C104.33 57.0249 105.066 58.1329 106.355 60.0709C106.677 60.5569 107.035 61.0959 107.423 61.6819C107.769 62.2909 108.1 62.9709 108.477 63.6879C108.849 64.4069 109.246 65.1729 109.663 65.9809C109.872 66.3859 110.085 66.8009 110.305 67.2259C110.488 67.6649 110.674 68.1139 110.865 68.5729C111.59 70.4209 112.543 72.3779 113.245 74.5429C113.94 76.7069 114.847 78.9519 115.467 81.3539C116.133 83.7439 116.895 86.2029 117.455 88.7469C118.076 91.2779 118.681 93.8569 119.173 96.4559C119.727 99.0459 120.184 101.65 120.615 104.218C121.087 106.782 121.412 109.322 121.787 111.774C122.475 116.686 122.996 121.285 123.373 125.237C124.128 133.119 124.345 138.467 124.345 138.467L124.347 138.483C124.408 139.973 123.248 141.23 121.758 141.291C120.268 141.352 119.011 140.193 118.951 138.703C118.951 138.659 118.951 138.607 118.951 138.564Z" fill="url(#paint10_linear_333_630)"/>
<path d="M102.742 113.398C102.742 113.398 102.526 113.349 102.117 113.26C101.674 113.164 101.078 113.011 100.334 112.813C98.8461 112.399 96.7482 111.783 94.3122 110.859C91.8622 109.972 89.0821 108.757 86.1781 107.326C84.7471 106.564 83.2421 105.841 81.7951 104.948C81.0641 104.518 80.3282 104.085 79.5882 103.65L77.4361 102.228C75.9801 101.313 74.6191 100.256 73.2691 99.2409C71.8891 98.2659 70.6751 97.1169 69.4421 96.0909C68.1901 95.0849 67.1361 93.9339 66.0741 92.9219C64.9991 91.9209 64.0751 90.8829 63.2391 89.9119C62.4051 88.9409 61.5932 88.0969 60.9612 87.2709C60.3372 86.4429 59.7922 85.7199 59.3442 85.1249C58.4502 83.9379 57.9402 83.2609 57.9402 83.2609C57.7552 83.0139 57.8041 82.6629 58.0511 82.4769C58.2851 82.3009 58.6131 82.3359 58.8041 82.5519L58.8351 82.5869C58.8351 82.5869 59.3901 83.2129 60.3601 84.3079C60.8441 84.8539 61.4302 85.5169 62.1042 86.2769C62.7822 87.0309 63.6441 87.7939 64.5281 88.6719C65.4141 89.5509 66.3871 90.4839 67.5091 91.3729C68.6191 92.2699 69.7151 93.2969 71.0041 94.1739C72.2751 95.0679 73.5202 96.0769 74.9252 96.9089C76.3002 97.7799 77.6772 98.6859 79.1432 99.4519L81.3031 100.646C82.0411 101.004 82.7762 101.361 83.5052 101.715C84.9452 102.457 86.4391 103.028 87.8481 103.644C90.7101 104.781 93.4231 105.72 95.7851 106.365C98.1381 107.051 100.127 107.464 101.504 107.731C102.197 107.859 102.73 107.951 103.065 107.994C103.434 108.046 103.631 108.073 103.631 108.073L103.699 108.083C105.177 108.289 106.208 109.655 106.002 111.132C105.796 112.611 104.431 113.641 102.952 113.435C102.883 113.425 102.809 113.412 102.742 113.398Z" fill="url(#paint11_linear_333_630)"/>
<path d="M230.945 360.752C230.945 360.752 228.69 355.695 224.743 346.845C220.774 337.995 214.986 325.393 207.922 310.323C204.351 302.806 200.481 294.662 196.39 286.048C192.201 277.481 187.782 268.447 183.212 259.101C178.525 249.815 173.825 240.14 168.767 230.46C163.774 220.745 158.707 210.87 153.433 201.109C150.82 196.215 148.205 191.321 145.602 186.446C142.922 181.615 140.252 176.802 137.603 172.028C132.382 162.43 126.927 153.176 121.695 144.188C116.563 135.133 111.13 126.685 106.17 118.543C104.92 116.514 103.687 114.514 102.472 112.542C101.232 110.589 99.9489 108.707 98.7199 106.833C96.2469 103.096 93.8579 99.485 91.5639 96.018C87.0949 88.993 82.4499 82.963 78.5299 77.462C76.5499 74.727 74.6959 72.167 72.9809 69.8C71.1919 67.495 69.4589 65.453 67.9409 63.567C61.8159 56.061 58.3159 51.771 58.3159 51.771L58.2549 51.696C57.7989 51.137 57.8829 50.315 58.4409 49.859C58.9899 49.411 59.7939 49.486 60.2539 50.017C60.2539 50.017 63.9039 54.241 70.2899 61.631C71.8739 63.49 73.6849 65.506 75.5529 67.78C77.3439 70.112 79.2809 72.635 81.3509 75.33C85.4479 80.75 90.3079 86.711 94.9919 93.636C97.3959 97.057 99.9009 100.62 102.493 104.309C103.781 106.159 105.126 108.018 106.428 109.947C107.704 111.892 108.998 113.866 110.311 115.869C115.52 123.903 121.227 132.254 126.629 141.192C132.136 150.069 137.878 159.216 143.387 168.697C146.181 173.416 148.997 178.173 151.825 182.947C154.575 187.766 157.335 192.603 160.096 197.44C165.666 207.091 171.026 216.854 176.309 226.462C181.658 236.038 186.644 245.604 191.609 254.792C196.457 264.04 201.145 272.98 205.589 281.458C209.937 289.986 214.049 298.049 217.844 305.492C225.358 320.418 231.524 332.905 235.765 341.693C239.992 350.497 242.406 355.528 242.406 355.528C243.912 358.664 242.59 362.427 239.454 363.932C236.318 365.438 232.555 364.115 231.05 360.98C231.028 360.936 231.007 360.891 230.987 360.846L230.945 360.752Z" fill="url(#paint12_linear_333_630)"/>
<defs>
<linearGradient id="paint0_linear_333_630" x1="-66.4926" y1="98.7454" x2="230.402" y2="230.341" gradientUnits="userSpaceOnUse">
<stop offset="0.0792" stop-color="#86C80E"/><stop offset="0.2433" stop-color="#83C50D"/><stop offset="0.3799" stop-color="#78BD0B"/><stop offset="0.5065" stop-color="#67AE07"/><stop offset="0.6265" stop-color="#4F9A01"/><stop offset="0.651" stop-color="#499500"/><stop offset="1" stop-color="#2F6C00"/>
</linearGradient>
<linearGradient id="paint1_linear_333_630" x1="157.393" y1="-58.0017" x2="131.271" y2="519.865" gradientUnits="userSpaceOnUse">
<stop offset="0.0792" stop-color="#86C80E"/><stop offset="0.2433" stop-color="#83C50D"/><stop offset="0.3799" stop-color="#78BD0B"/><stop offset="0.5065" stop-color="#67AE07"/><stop offset="0.6265" stop-color="#4F9A01"/><stop offset="0.651" stop-color="#499500"/><stop offset="1" stop-color="#2F6C00"/>
</linearGradient>
<linearGradient id="paint2_linear_333_630" x1="258.937" y1="-8.08653" x2="213.295" y2="273.515" gradientUnits="userSpaceOnUse">
<stop offset="0.0792" stop-color="#86C80E"/><stop offset="0.2433" stop-color="#83C50D"/><stop offset="0.3799" stop-color="#78BD0B"/><stop offset="0.5065" stop-color="#67AE07"/><stop offset="0.6265" stop-color="#4F9A01"/><stop offset="0.651" stop-color="#499500"/><stop offset="1" stop-color="#2F6C00"/>
</linearGradient>
<linearGradient id="paint3_linear_333_630" x1="186.835" y1="-19.7647" x2="141.194" y2="261.829" gradientUnits="userSpaceOnUse">
<stop offset="0.0792" stop-color="#86C80E"/><stop offset="0.2433" stop-color="#83C50D"/><stop offset="0.3799" stop-color="#78BD0B"/><stop offset="0.5065" stop-color="#67AE07"/><stop offset="0.6265" stop-color="#4F9A01"/><stop offset="0.651" stop-color="#499500"/><stop offset="1" stop-color="#2F6C00"/>
</linearGradient>
<linearGradient id="paint4_linear_333_630" x1="237.221" y1="-11.6066" x2="191.579" y2="269.995" gradientUnits="userSpaceOnUse">
<stop offset="0.0792" stop-color="#86C80E"/><stop offset="0.2433" stop-color="#83C50D"/><stop offset="0.3799" stop-color="#78BD0B"/><stop offset="0.5065" stop-color="#67AE07"/><stop offset="0.6265" stop-color="#4F9A01"/><stop offset="0.651" stop-color="#499500"/><stop offset="1" stop-color="#2F6C00"/>
</linearGradient>
<linearGradient id="paint5_linear_333_630" x1="163.32" y1="-23.5964" x2="117.676" y2="258.017" gradientUnits="userSpaceOnUse">
<stop offset="0.0792" stop-color="#86C80E"/><stop offset="0.2433" stop-color="#83C50D"/><stop offset="0.3799" stop-color="#78BD0B"/><stop offset="0.5065" stop-color="#67AE07"/><stop offset="0.6265" stop-color="#4F9A01"/><stop offset="0.651" stop-color="#499500"/><stop offset="1" stop-color="#2F6C00"/>
</linearGradient>
<linearGradient id="paint6_linear_333_630" x1="204.252" y1="-16.9517" x2="158.61" y2="264.651" gradientUnits="userSpaceOnUse">
<stop offset="0.0792" stop-color="#86C80E"/><stop offset="0.2433" stop-color="#83C50D"/><stop offset="0.3799" stop-color="#78BD0B"/><stop offset="0.5065" stop-color="#67AE07"/><stop offset="0.6265" stop-color="#4F9A01"/><stop offset="0.651" stop-color="#499500"/><stop offset="1" stop-color="#2F6C00"/>
</linearGradient>
<linearGradient id="paint7_linear_333_630" x1="151.302" y1="-25.5434" x2="105.657" y2="256.071" gradientUnits="userSpaceOnUse">
<stop offset="0.0792" stop-color="#86C80E"/><stop offset="0.2433" stop-color="#83C50D"/><stop offset="0.3799" stop-color="#78BD0B"/><stop offset="0.5065" stop-color="#67AE07"/><stop offset="0.6265" stop-color="#4F9A01"/><stop offset="0.651" stop-color="#499500"/><stop offset="1" stop-color="#2F6C00"/>
</linearGradient>
<linearGradient id="paint8_linear_333_630" x1="171.128" y1="-22.3215" x2="125.485" y2="259.282" gradientUnits="userSpaceOnUse">
<stop offset="0.0792" stop-color="#86C80E"/><stop offset="0.2433" stop-color="#83C50D"/><stop offset="0.3799" stop-color="#78BD0B"/><stop offset="0.5065" stop-color="#67AE07"/><stop offset="0.6265" stop-color="#4F9A01"/><stop offset="0.651" stop-color="#499500"/><stop offset="1" stop-color="#2F6C00"/>
</linearGradient>
<linearGradient id="paint9_linear_333_630" x1="124.397" y1="-29.8999" x2="78.7538" y2="251.709" gradientUnits="userSpaceOnUse">
<stop offset="0.0792" stop-color="#86C80E"/><stop offset="0.2433" stop-color="#83C50D"/><stop offset="0.3799" stop-color="#78BD0B"/><stop offset="0.5065" stop-color="#67AE07"/><stop offset="0.6265" stop-color="#4F9A01"/><stop offset="0.651" stop-color="#499500"/><stop offset="1" stop-color="#2F6C00"/>
</linearGradient>
<linearGradient id="paint10_linear_333_630" x1="134.308" y1="-28.29" x2="88.6651" y2="253.314" gradientUnits="userSpaceOnUse">
<stop offset="0.0792" stop-color="#86C80E"/><stop offset="0.2433" stop-color="#83C50D"/><stop offset="0.3799" stop-color="#78BD0B"/><stop offset="0.5065" stop-color="#67AE07"/><stop offset="0.6265" stop-color="#4F9A01"/><stop offset="0.651" stop-color="#499500"/><stop offset="1" stop-color="#2F6C00"/>
</linearGradient>
<linearGradient id="paint11_linear_333_630" x1="103.044" y1="-33.3587" x2="57.4015" y2="248.248" gradientUnits="userSpaceOnUse">
<stop offset="0.0792" stop-color="#86C80E"/><stop offset="0.2433" stop-color="#83C50D"/><stop offset="0.3799" stop-color="#78BD0B"/><stop offset="0.5065" stop-color="#67AE07"/><stop offset="0.6265" stop-color="#4F9A01"/><stop offset="0.651" stop-color="#499500"/><stop offset="1" stop-color="#2F6C00"/>
</linearGradient>
<linearGradient id="paint12_linear_333_630" x1="186.887" y1="-19.7688" x2="141.244" y2="261.836" gradientUnits="userSpaceOnUse">
<stop offset="0.0792" stop-color="#86C80E"/><stop offset="0.2433" stop-color="#83C50D"/><stop offset="0.3799" stop-color="#78BD0B"/><stop offset="0.5065" stop-color="#67AE07"/><stop offset="0.6265" stop-color="#4F9A01"/><stop offset="0.651" stop-color="#499500"/><stop offset="1" stop-color="#2F6C00"/>
</linearGradient>
</defs>
</svg>
