<svg width="1760" height="760" viewBox="0 0 1760 760" fill="none" xmlns="http://www.w3.org/2000/svg">
<path d="M255.407 759.836C199.306 759.836 145.376 741.116 103.551 707.123C82.1657 689.742 64.7948 669.14 51.9219 645.89C38.1725 621.056 30.1502 594.291 28.0785 566.338L4.42759 247.277C1.28612 208.389 2.40009 176.181 7.83242 148.825C14.1729 116.893 26.8459 90.4467 45.4979 70.2182C63.1105 51.1169 85.7019 37.781 112.645 30.5797C130.264 25.8708 149.935 23.6768 174.551 23.6768C186.691 23.6768 198.953 24.1823 210.812 24.6715C219.327 25.0226 228.131 25.3858 236.597 25.5438L1530.77 49.7021C1570.67 50.4474 1604.25 55.1708 1633.42 64.1441C1674.99 76.9286 1707.15 98.4878 1729.01 128.224C1746.23 151.647 1756.39 179.235 1759.21 210.221C1761.74 238.004 1758.21 268.905 1748.71 302.1L1697.54 522.254C1692.14 545.477 1682.53 567.474 1668.98 587.634C1656.13 606.746 1640.04 623.746 1621.15 638.16C1602.77 652.196 1582.16 663.45 1559.91 671.61C1537.46 679.839 1513.79 684.749 1489.55 686.204L270.637 759.378C265.581 759.682 260.458 759.836 255.407 759.836Z" fill="url(#paint0_linear_376_1171)"/>
<path d="M252.716 736.159C196.614 736.159 142.684 717.439 100.86 683.446C79.4743 666.066 62.1034 645.463 49.2305 622.213C35.4811 597.379 27.4588 570.614 25.3865 542.662L1.73618 223.601C-1.40529 184.713 -0.291321 152.504 5.14102 125.148C11.4815 93.2172 24.1545 66.77 42.8065 46.5414C60.4191 27.4402 83.0106 14.1041 109.954 6.90279C127.573 2.19392 147.244 0 171.86 0C183.999 0 196.262 0.505409 208.12 0.99458C216.635 1.34572 225.44 1.70906 233.905 1.86707L1528.08 26.0258C1567.98 26.7711 1601.55 31.4946 1630.73 40.468C1672.3 53.2524 1704.46 74.8116 1726.32 104.547C1743.54 127.971 1753.7 155.559 1756.52 186.545C1759.05 214.328 1755.51 245.229 1746.02 278.423L1694.85 498.577C1689.45 521.801 1679.84 543.798 1666.29 563.957C1653.44 583.07 1637.35 600.069 1618.46 614.484C1600.08 628.52 1579.47 639.774 1557.22 647.934C1534.77 656.163 1511.1 661.073 1486.86 662.528L267.946 735.702C262.89 736.005 257.766 736.159 252.716 736.159Z" fill="url(#paint1_linear_376_1171)"/>
<path d="M1670.5 146.716L118.965 601.766L194.65 729.325C213.447 733.824 232.945 736.159 252.717 736.159C257.767 736.159 262.891 736.005 267.947 735.702L1486.86 662.528C1511.1 661.073 1534.77 656.162 1557.22 647.934C1579.47 639.774 1600.08 628.52 1618.46 614.484C1637.35 600.069 1653.44 583.07 1666.29 563.957C1679.84 543.798 1689.45 521.801 1694.85 498.577L1746.02 278.423C1747.37 273.709 1748.59 269.044 1749.7 264.425L1670.5 146.716Z" fill="#F4BE9A"/>
<path d="M1482.67 592.705L263.755 665.88C176.392 671.124 100.781 613.551 95.1435 537.491L71.4756 218.2C57.6402 47.8383 139.976 70.073 232.6 71.8021L1526.78 95.9609C1625.26 97.7996 1717.01 128.387 1678.31 260.781L1626.72 482.74C1612.61 543.434 1553.65 588.444 1482.67 592.705Z" fill="url(#paint2_linear_376_1171)"/>
<path d="M1512.32 528.138L238.966 615.39C183.472 618.572 129.8 584.545 96.9805 551.375C110.179 620.428 181.795 670.8 263.756 665.879L1482.67 592.706C1553.65 588.445 1612.61 543.434 1626.72 482.74L1670.5 294.402C1634.69 368.079 1599.71 521.769 1512.32 528.138Z" fill="#FF5E08"/>
<path d="M1526.77 95.961L232.599 71.8022C183.241 70.8807 136.805 64.1383 106.287 83.8202C106.222 83.862 106.158 83.9055 106.093 83.9479C105.769 84.1586 105.446 84.3712 105.126 84.5873C104.966 84.6957 104.808 84.807 104.649 84.9166C104.422 85.0728 104.195 85.229 103.971 85.3883C103.795 85.5124 103.622 85.6394 103.448 85.7653C103.241 85.9148 103.035 86.0644 102.831 86.217C102.652 86.3496 102.474 86.4846 102.297 86.6196C102.099 86.7704 101.901 86.9223 101.705 87.0754C101.526 87.2147 101.348 87.3546 101.171 87.4962C100.978 87.65 100.786 87.8056 100.595 87.9618C100.418 88.1065 100.241 88.2512 100.065 88.3977C99.8734 88.5575 99.6839 88.7204 99.4945 88.8827C99.3225 89.0298 99.15 89.1762 98.9792 89.3258C98.7807 89.4995 98.5845 89.6775 98.3878 89.8543C98.1995 90.0238 98.0106 90.1922 97.8235 90.3647C97.519 90.6456 97.2157 90.9289 96.9154 91.2171C96.7459 91.3793 96.5788 91.5464 96.4111 91.7111C96.2361 91.883 96.0606 92.0537 95.8874 92.2275C95.7119 92.4037 95.5381 92.5835 95.3643 92.7627C95.2015 92.9298 95.0393 93.0969 94.8776 93.267C94.7014 93.4523 94.5265 93.6405 94.3521 93.8288C94.1959 93.9977 94.0397 94.1667 93.8847 94.338C93.7098 94.5311 93.5354 94.7254 93.3617 94.9215C93.2109 95.0916 93.0614 95.2631 92.9124 95.4356C92.7375 95.6372 92.5631 95.8393 92.39 96.0445C92.2465 96.2147 92.1042 96.3873 91.9613 96.5598C91.7864 96.7711 91.6108 96.9824 91.4377 97.1973C91.3039 97.3632 91.1719 97.5327 91.0387 97.701C90.8601 97.9268 90.6809 98.1515 90.5041 98.3809C90.4509 98.4505 90.3988 98.5213 90.3455 98.5909C89.9241 99.1431 89.5094 99.7061 89.1002 100.279C88.9894 100.433 88.878 100.586 88.7684 100.742C88.5941 100.99 88.4221 101.243 88.2502 101.495C88.1315 101.668 88.0129 101.84 87.8954 102.016C87.7259 102.268 87.5582 102.525 87.3911 102.781C87.2749 102.96 87.1586 103.138 87.0436 103.318C86.8771 103.578 86.7119 103.841 86.5472 104.106C86.4352 104.287 86.3232 104.468 86.2118 104.651C86.0471 104.921 85.8831 105.192 85.7208 105.467C85.6149 105.645 85.5107 105.826 85.406 106.005C85.2407 106.29 85.0748 106.575 84.9119 106.864C84.8205 107.026 84.7309 107.191 84.6401 107.354C84.4664 107.667 84.2926 107.98 84.1219 108.297C84.0916 108.354 84.062 108.413 84.0317 108.469C83.5946 109.287 83.1672 110.122 82.7488 110.973C82.727 111.018 82.7052 111.06 82.684 111.104C82.5139 111.451 82.3475 111.805 82.1804 112.158C82.1053 112.317 82.0296 112.474 81.9551 112.634C81.7989 112.97 81.6452 113.311 81.492 113.652C81.4109 113.833 81.3292 114.014 81.2486 114.196C81.0991 114.534 80.9514 114.876 80.8048 115.22C80.7243 115.409 80.6438 115.598 80.5639 115.788C80.418 116.136 80.2733 116.486 80.1305 116.839C80.0554 117.023 79.9815 117.21 79.9076 117.396C79.7617 117.762 79.6165 118.131 79.473 118.503C79.4106 118.665 79.3501 118.829 79.2883 118.992C79.1364 119.394 78.9844 119.797 78.8361 120.205C78.8125 120.27 78.7901 120.336 78.7665 120.401C78.2319 121.879 77.7209 123.399 77.2323 124.962C77.1966 125.075 77.1609 125.187 77.1258 125.3C76.9908 125.737 76.8582 126.181 76.7268 126.624C76.6754 126.798 76.6233 126.97 76.573 127.144C76.4477 127.573 76.3248 128.007 76.2032 128.443C76.1499 128.634 76.0966 128.824 76.0439 129.016C75.9241 129.452 75.806 129.892 75.6892 130.336C75.6395 130.524 75.5905 130.714 75.5414 130.904C75.4234 131.361 75.3065 131.819 75.1921 132.283C75.1515 132.448 75.1116 132.614 75.0716 132.78C74.9512 133.275 74.8319 133.773 74.7151 134.276C74.6975 134.352 74.6811 134.428 74.6636 134.503C74.2428 136.338 73.8481 138.221 73.4818 140.158C73.48 140.169 73.4776 140.179 73.4758 140.189C73.3704 140.748 73.2681 141.314 73.167 141.88C73.1398 142.033 73.1119 142.184 73.0853 142.337C72.9921 142.867 72.9025 143.403 72.8135 143.941C72.7941 144.058 72.7735 144.172 72.7547 144.289C72.7553 144.288 72.756 144.287 72.7572 144.286C69.6024 163.616 69.0115 187.848 71.4761 218.199L81.5295 353.827C81.7184 250.346 91.7821 191.388 102.302 158.001C110.719 131.292 135.601 113.195 163.602 113.578C181.343 113.821 200.278 115.034 219.654 115.388L1541.65 139.546C1600.77 140.626 1657.5 151.636 1686.22 187.391C1676.3 116.319 1603.59 97.3946 1526.77 95.961Z" fill="#FDD967"/>
<path d="M83.4688 380C83.4688 380 145.164 385.461 153.414 384.026C161.665 382.591 213.677 355.329 223.361 351.742C223.361 351.742 178.882 410.929 165.251 412.363C151.62 413.798 86.1301 415.912 86.1301 415.912L83.4688 380Z" fill="#FF5E08"/>
<path d="M950.578 98.1157C950.578 98.1157 946.831 147.322 892.375 165.223C892.375 165.223 903.254 113.485 950.578 98.1157Z" fill="#FF5E08"/>
<path d="M162.023 405.728C150.321 406.96 99.494 405.68 85.3438 405.293L86.1308 415.913C86.1308 415.913 151.621 413.799 165.252 412.364C178.882 410.929 223.362 351.743 223.362 351.743C223.362 351.743 175.654 404.293 162.023 405.728Z" fill="white"/>
<path d="M892.375 165.223C946.831 147.322 950.578 98.1157 950.578 98.1157C950.578 98.1157 937.722 136.52 892.375 165.223Z" fill="white"/>
<path d="M266.721 130.878C286.448 130.878 302.44 124.78 302.44 117.256C302.44 109.733 286.448 103.635 266.721 103.635C246.994 103.635 231.002 109.733 231.002 117.256C231.002 124.78 246.994 130.878 266.721 130.878Z" fill="white"/>
<path d="M208.903 121.192C213.417 121.192 217.077 119.024 217.077 116.349C217.077 113.674 213.417 111.505 208.903 111.505C204.39 111.505 200.73 113.674 200.73 116.349C200.73 119.024 204.39 121.192 208.903 121.192Z" fill="white"/>
<mask id="path-13-outside-1_376_1171" maskUnits="userSpaceOnUse" x="270.632" y="176.653" width="1264.66" height="348.273" fill="black">
<rect fill="white" x="270.632" y="176.653" width="1264.66" height="348.273"/>
<path d="M432.047 292.293C436.572 300.68 439.038 310.117 439.443 320.603C439.849 331.089 438.12 340.688 434.257 349.4C430.387 357.952 425.242 364.856 418.821 370.112C405.831 380.955 392.158 386.655 377.8 387.21L347.552 388.381L348.61 415.725C348.754 419.435 348.702 422.265 348.454 424.213C348.362 425.994 347.717 428.119 346.52 430.589C344.43 435.032 338.223 437.453 327.898 437.853C316.606 438.29 309.876 435.561 307.709 429.668C306.635 426.963 305.989 422.787 305.77 417.141L300.572 282.84C300.429 279.13 300.403 276.384 300.496 274.604C300.744 272.655 301.466 270.446 302.663 267.976C304.753 263.533 310.96 261.112 321.285 260.712L373.069 258.708C387.265 258.159 401.258 262.787 415.047 272.594C421.855 277.339 427.521 283.905 432.047 292.293ZM376.384 344.37C381.224 344.183 385.914 342.224 390.455 338.494C394.996 334.764 397.129 329.349 396.854 322.251C396.58 315.153 394.035 309.92 389.219 306.552C384.397 303.023 379.486 301.355 374.485 301.548L344.237 302.719L345.894 345.55L376.384 344.37ZM453.072 266.76C452.929 263.049 452.903 260.304 452.996 258.523C453.243 256.575 453.885 254.369 454.921 251.905C457.011 247.462 463.218 245.041 473.542 244.641C483.383 244.26 489.598 246.201 492.186 250.463C493.57 252.833 494.38 254.982 494.617 256.912C495.014 258.835 495.285 261.652 495.428 265.363L499.765 377.401C499.989 383.208 500.617 386.9 501.647 388.476C502.671 389.89 504.797 390.535 508.023 390.41C511.411 390.279 513.676 390.353 514.817 390.632C515.953 390.749 517.349 391.341 519.006 392.408C522.314 394.381 524.149 400.045 524.511 409.402C524.904 419.565 523.531 425.838 520.392 428.222C516.31 431.288 506.327 432.159 490.443 430.835C477.958 429.702 469.733 425.901 465.767 419.43C460.944 411.7 458.198 399.205 457.53 381.943L453.072 266.76ZM617.017 312.761C617.636 303.69 623.833 298.926 635.609 298.47C641.901 298.227 646.598 298.53 649.701 299.379C652.803 300.228 654.966 301.841 656.189 304.217C657.573 306.587 658.383 308.737 658.62 310.666C659.011 312.428 659.278 315.164 659.422 318.875L662.7 403.569C662.843 407.279 662.791 410.109 662.544 412.057C662.451 413.838 661.887 415.96 660.851 418.423C658.755 422.705 653.271 425.018 644.398 425.361C635.687 425.698 629.758 424.878 626.612 422.899C623.62 420.753 621.802 417.592 621.155 413.416C615.517 422.197 605.681 426.86 591.646 427.403C577.772 427.94 564.62 422.067 552.189 409.785C539.758 397.502 533.218 382.972 532.568 366.195C531.913 349.256 537.31 334.264 548.761 321.219C560.367 308.006 573.349 301.122 587.706 300.566C593.191 300.354 598.23 301.129 602.822 302.89C607.414 304.651 610.631 306.384 612.474 308.09C614.311 309.634 615.826 311.191 617.017 312.761ZM574.924 364.798C575.131 370.121 577.415 374.88 581.778 379.073C586.135 383.105 591.297 385.006 597.266 384.775C603.235 384.544 608.071 382.176 611.774 377.67C615.639 373.158 617.471 368.321 617.271 363.159C617.065 357.835 614.939 352.99 610.893 348.623C607.007 344.249 601.838 342.188 595.385 342.437C589.094 342.681 584.019 345.139 580.161 349.812C576.464 354.479 574.718 359.474 574.924 364.798ZM791.786 293.88C801.466 297.706 806.422 302.603 806.653 308.572C806.765 311.476 806.226 314.243 805.036 316.874C803.845 319.505 803.253 320.902 803.259 321.063L745.348 465.318C744.176 468.434 743.137 470.816 742.231 472.467C741.487 474.112 740.175 475.697 738.296 477.224C736.416 478.751 734.024 479.57 731.12 479.683C728.217 479.795 723.895 478.751 718.155 476.549C708.475 472.723 703.522 467.907 703.297 462.099C703.147 458.227 710.176 439.456 724.383 405.786L673.091 326.586C669.659 321.387 667.892 317.497 667.792 314.916C667.593 309.753 671.749 304.423 680.26 298.923C685.62 295.484 689.833 293.706 692.898 293.587C695.963 293.468 698.488 294.017 700.474 295.233C702.46 296.448 703.884 297.766 704.747 299.187C705.765 300.44 710.492 307.77 718.927 321.176C727.518 334.415 735.671 346.782 743.386 358.278C744.093 355.666 748.064 345.576 755.301 328.008C762.531 310.28 766.367 300.841 766.807 299.693C767.409 298.539 768.324 297.13 769.552 295.467C771.543 292.644 774.393 291.16 778.104 291.016C781.976 290.867 786.536 291.821 791.786 293.88ZM963.686 299.344C964.304 290.272 970.501 285.509 982.278 285.053C988.569 284.81 993.266 285.112 996.369 285.962C999.471 286.811 1001.63 288.424 1002.86 290.8C1004.24 293.17 1005.05 295.319 1005.29 297.249C1005.68 299.011 1005.95 301.747 1006.09 305.458L1009.37 390.152C1009.51 393.862 1009.46 396.691 1009.21 398.64C1009.12 400.421 1008.56 402.543 1007.52 405.006C1005.42 409.288 999.939 411.601 991.066 411.944C982.355 412.281 976.426 411.46 973.28 409.482C970.289 407.336 968.47 404.175 967.824 399.999C962.186 408.78 952.349 413.442 938.314 413.986C924.44 414.523 911.288 408.65 898.857 396.368C886.426 384.085 879.886 369.555 879.236 352.778C878.581 335.839 883.978 320.847 895.429 307.802C907.035 294.589 920.017 287.705 934.375 287.149C939.859 286.937 944.898 287.711 949.49 289.473C954.082 291.234 957.299 292.967 959.143 294.673C960.98 296.217 962.494 297.774 963.686 299.344ZM921.593 351.381C921.799 356.704 924.083 361.463 928.446 365.656C932.803 369.688 937.966 371.589 943.935 371.358C949.904 371.127 954.74 368.758 958.443 364.253C962.307 359.741 964.139 354.904 963.94 349.742C963.734 344.418 961.607 339.573 957.561 335.206C953.676 330.832 948.507 328.77 942.054 329.02C935.762 329.264 930.687 331.722 926.829 336.395C923.132 341.062 921.387 346.057 921.593 351.381ZM1109.69 391.843C1103.87 400.146 1094.27 404.557 1080.88 405.075C1067.49 405.593 1054.67 399.95 1042.42 388.145C1030.32 376.173 1023.96 361.96 1023.32 345.505C1022.68 329.05 1028.01 314.384 1039.31 301.506C1050.6 288.629 1063.27 281.918 1077.3 281.375C1082.79 281.163 1087.83 282.018 1092.43 283.94C1097.02 285.701 1100.16 287.438 1101.84 289.15C1103.68 290.695 1105.11 292.174 1106.13 293.588C1106.44 289.053 1107.92 285.603 1110.58 283.238C1113.39 280.706 1117.94 279.318 1124.23 279.074C1130.52 278.831 1135.14 279.137 1138.08 279.992C1141.02 280.848 1143.1 282.464 1144.33 284.84C1145.7 287.048 1146.51 289.037 1146.74 290.805C1147.13 292.567 1147.4 295.303 1147.54 299.014L1151.42 399.195C1152.14 417.747 1146.26 432.919 1133.79 444.711C1121.33 456.664 1107.03 462.953 1090.9 463.577C1078.64 464.052 1066.83 461.52 1055.47 455.982C1044.1 450.444 1038.33 445.255 1038.14 440.415C1037.9 434.124 1040.1 428.464 1044.76 423.437C1047.69 419.931 1049.94 417.501 1051.5 416.148C1053.23 414.789 1055.22 414.066 1057.48 413.978C1059.73 413.891 1062.11 414.768 1064.61 416.611C1072.58 422.28 1081.08 424.939 1090.12 424.59C1096.25 424.353 1101.16 421.739 1104.84 416.75C1108.52 411.76 1110.24 405.878 1109.97 399.102L1109.69 391.843ZM1064.71 344.145C1064.91 349.308 1067.11 353.908 1071.3 357.946C1075.66 361.978 1080.74 363.882 1086.55 363.657C1092.52 363.426 1097.36 361.138 1101.07 356.794C1104.77 352.289 1106.52 347.535 1106.33 342.535C1106.13 337.372 1104.09 332.685 1100.21 328.473C1096.33 324.1 1091.24 322.035 1084.95 322.278C1078.66 322.522 1073.66 324.896 1069.95 329.402C1066.25 333.907 1064.5 338.822 1064.71 344.145ZM1249.39 288.286C1250 279.215 1256.2 274.451 1267.98 273.996C1274.27 273.752 1278.97 274.055 1282.07 274.904C1285.17 275.754 1287.33 277.366 1288.56 279.742C1289.94 282.112 1290.75 284.262 1290.99 286.192C1291.38 287.954 1291.65 290.69 1291.79 294.4L1295.07 379.094C1295.21 382.805 1295.16 385.634 1294.91 387.582C1294.82 389.363 1294.26 391.485 1293.22 393.949C1291.12 398.231 1285.64 400.543 1276.77 400.887C1268.05 401.224 1262.13 400.403 1258.98 398.424C1255.99 396.278 1254.17 393.117 1253.52 388.942C1247.89 397.723 1238.05 402.385 1224.01 402.928C1210.14 403.465 1196.99 397.592 1184.56 385.31C1172.13 373.028 1165.59 358.498 1164.94 341.72C1164.28 324.782 1169.68 309.79 1181.13 296.744C1192.74 283.532 1205.72 276.648 1220.07 276.092C1225.56 275.88 1230.6 276.654 1235.19 278.415C1239.78 280.176 1243 281.91 1244.84 283.615C1246.68 285.16 1248.19 286.717 1249.39 288.286ZM1207.29 340.323C1207.5 345.647 1209.78 350.405 1214.15 354.599C1218.5 358.631 1223.67 360.531 1229.63 360.3C1235.6 360.069 1240.44 357.701 1244.14 353.196C1248.01 348.684 1249.84 343.847 1249.64 338.684C1249.43 333.361 1247.31 328.515 1243.26 324.148C1239.38 319.775 1234.21 317.713 1227.75 317.963C1221.46 318.206 1216.39 320.665 1212.53 325.338C1208.83 330.005 1207.09 335 1207.29 340.323ZM1311.08 293.654C1310.93 289.943 1310.91 287.198 1311 285.417C1311.25 283.469 1311.89 281.263 1312.93 278.799C1315.02 274.518 1321.23 272.177 1331.56 271.777C1339.3 271.478 1344.84 272.637 1348.17 275.254C1351 277.406 1352.59 280.819 1352.93 285.491C1353.15 287.098 1353.32 289.434 1353.44 292.499L1356.72 377.193C1356.86 380.903 1356.81 383.733 1356.56 385.681C1356.47 387.462 1355.83 389.587 1354.63 392.057C1352.7 396.332 1346.57 398.67 1336.24 399.069C1326.08 399.463 1319.78 397.525 1317.36 393.257C1316.13 390.881 1315.33 388.812 1314.93 387.05C1314.7 385.281 1314.51 382.461 1314.36 378.59L1311.08 293.654ZM1349.03 247.351C1347.99 249.653 1345.95 251.348 1342.93 252.434C1339.9 253.521 1335.8 254.164 1330.64 254.364C1325.64 254.557 1321.59 254.23 1318.48 253.38C1315.38 252.531 1313.14 250.921 1311.75 248.552C1310.53 246.175 1309.72 244.106 1309.33 242.344C1309.1 240.415 1308.91 237.595 1308.76 233.884C1308.62 230.174 1308.59 227.428 1308.69 225.647C1308.93 223.699 1309.58 221.574 1310.62 219.272C1312.71 214.829 1318.92 212.407 1329.24 212.008C1339.41 211.614 1345.62 213.555 1347.89 217.829C1349.27 220.199 1350.08 222.349 1350.32 224.279C1350.71 226.041 1350.98 228.777 1351.12 232.487C1351.26 236.198 1351.21 239.027 1350.96 240.975C1350.87 242.756 1350.23 244.881 1349.03 247.351ZM1442.83 267.228C1458.96 266.604 1472.59 272.297 1483.72 284.306C1495 296.148 1500.99 310.942 1501.68 328.688L1503.32 371.276C1503.47 374.987 1503.42 377.816 1503.17 379.765C1503.08 381.545 1502.51 383.587 1501.47 385.889C1499.38 390.332 1493.17 392.753 1482.84 393.153C1471.39 393.596 1464.66 390.868 1462.66 384.968C1461.58 382.263 1460.94 378.168 1460.73 372.683L1459.08 330.094C1458.82 323.48 1456.69 318.392 1452.67 314.832C1448.82 311.265 1443.66 309.606 1437.21 309.856C1430.92 310.1 1425.83 312.235 1421.95 316.263C1418.23 320.285 1416.49 325.441 1416.73 331.733L1418.39 374.564C1418.53 378.274 1418.48 381.103 1418.23 383.052C1418.14 384.833 1417.49 386.877 1416.29 389.186C1414.36 393.623 1408.23 396.041 1397.91 396.44C1387.75 396.834 1381.45 394.896 1379.02 390.628C1377.8 388.252 1376.99 386.183 1376.6 384.421C1376.37 382.491 1376.18 379.671 1376.03 375.961L1372.72 290.299C1372.58 286.75 1372.56 284.085 1372.65 282.304C1372.9 280.356 1373.62 278.227 1374.83 275.919C1376.93 271.798 1383.06 269.542 1393.22 269.148C1403.07 268.767 1409.19 270.388 1411.59 274.011C1413.31 276.691 1414.24 279.967 1414.39 283.839C1414.99 282.685 1416.38 281.015 1418.56 278.831C1420.74 276.646 1422.85 274.868 1424.9 273.496C1430.24 269.574 1436.22 267.484 1442.83 267.228Z"/>
</mask>
<path d="M432.047 292.293C436.572 300.68 439.038 310.117 439.443 320.603C439.849 331.089 438.12 340.688 434.257 349.4C430.387 357.952 425.242 364.856 418.821 370.112C405.831 380.955 392.158 386.655 377.8 387.21L347.552 388.381L348.61 415.725C348.754 419.435 348.702 422.265 348.454 424.213C348.362 425.994 347.717 428.119 346.52 430.589C344.43 435.032 338.223 437.453 327.898 437.853C316.606 438.29 309.876 435.561 307.709 429.668C306.635 426.963 305.989 422.787 305.77 417.141L300.572 282.84C300.429 279.13 300.403 276.384 300.496 274.604C300.744 272.655 301.466 270.446 302.663 267.976C304.753 263.533 310.96 261.112 321.285 260.712L373.069 258.708C387.265 258.159 401.258 262.787 415.047 272.594C421.855 277.339 427.521 283.905 432.047 292.293ZM376.384 344.37C381.224 344.183 385.914 342.224 390.455 338.494C394.996 334.764 397.129 329.349 396.854 322.251C396.58 315.153 394.035 309.92 389.219 306.552C384.397 303.023 379.486 301.355 374.485 301.548L344.237 302.719L345.894 345.55L376.384 344.37ZM453.072 266.76C452.929 263.049 452.903 260.304 452.996 258.523C453.243 256.575 453.885 254.369 454.921 251.905C457.011 247.462 463.218 245.041 473.542 244.641C483.383 244.26 489.598 246.201 492.186 250.463C493.57 252.833 494.38 254.982 494.617 256.912C495.014 258.835 495.285 261.652 495.428 265.363L499.765 377.401C499.989 383.208 500.617 386.9 501.647 388.476C502.671 389.89 504.797 390.535 508.023 390.41C511.411 390.279 513.676 390.353 514.817 390.632C515.953 390.749 517.349 391.341 519.006 392.408C522.314 394.381 524.149 400.045 524.511 409.402C524.904 419.565 523.531 425.838 520.392 428.222C516.31 431.288 506.327 432.159 490.443 430.835C477.958 429.702 469.733 425.901 465.767 419.43C460.944 411.7 458.198 399.205 457.53 381.943L453.072 266.76ZM617.017 312.761C617.636 303.69 623.833 298.926 635.609 298.47C641.901 298.227 646.598 298.53 649.701 299.379C652.803 300.228 654.966 301.841 656.189 304.217C657.573 306.587 658.383 308.737 658.62 310.666C659.011 312.428 659.278 315.164 659.422 318.875L662.7 403.569C662.843 407.279 662.791 410.109 662.544 412.057C662.451 413.838 661.887 415.96 660.851 418.423C658.755 422.705 653.271 425.018 644.398 425.361C635.687 425.698 629.758 424.878 626.612 422.899C623.62 420.753 621.802 417.592 621.155 413.416C615.517 422.197 605.681 426.86 591.646 427.403C577.772 427.94 564.62 422.067 552.189 409.785C539.758 397.502 533.218 382.972 532.568 366.195C531.913 349.256 537.31 334.264 548.761 321.219C560.367 308.006 573.349 301.122 587.706 300.566C593.191 300.354 598.23 301.129 602.822 302.89C607.414 304.651 610.631 306.384 612.474 308.09C614.311 309.634 615.826 311.191 617.017 312.761ZM574.924 364.798C575.131 370.121 577.415 374.88 581.778 379.073C586.135 383.105 591.297 385.006 597.266 384.775C603.235 384.544 608.071 382.176 611.774 377.67C615.639 373.158 617.471 368.321 617.271 363.159C617.065 357.835 614.939 352.99 610.893 348.623C607.007 344.249 601.838 342.188 595.385 342.437C589.094 342.681 584.019 345.139 580.161 349.812C576.464 354.479 574.718 359.474 574.924 364.798ZM791.786 293.88C801.466 297.706 806.422 302.603 806.653 308.572C806.765 311.476 806.226 314.243 805.036 316.874C803.845 319.505 803.253 320.902 803.259 321.063L745.348 465.318C744.176 468.434 743.137 470.816 742.231 472.467C741.487 474.112 740.175 475.697 738.296 477.224C736.416 478.751 734.024 479.57 731.12 479.683C728.217 479.795 723.895 478.751 718.155 476.549C708.475 472.723 703.522 467.907 703.297 462.099C703.147 458.227 710.176 439.456 724.383 405.786L673.091 326.586C669.659 321.387 667.892 317.497 667.792 314.916C667.593 309.753 671.749 304.423 680.26 298.923C685.62 295.484 689.833 293.706 692.898 293.587C695.963 293.468 698.488 294.017 700.474 295.233C702.46 296.448 703.884 297.766 704.747 299.187C705.765 300.44 710.492 307.77 718.927 321.176C727.518 334.415 735.671 346.782 743.386 358.278C744.093 355.666 748.064 345.576 755.301 328.008C762.531 310.28 766.367 300.841 766.807 299.693C767.409 298.539 768.324 297.13 769.552 295.467C771.543 292.644 774.393 291.16 778.104 291.016C781.976 290.867 786.536 291.821 791.786 293.88ZM963.686 299.344C964.304 290.272 970.501 285.509 982.278 285.053C988.569 284.81 993.266 285.112 996.369 285.962C999.471 286.811 1001.63 288.424 1002.86 290.8C1004.24 293.17 1005.05 295.319 1005.29 297.249C1005.68 299.011 1005.95 301.747 1006.09 305.458L1009.37 390.152C1009.51 393.862 1009.46 396.691 1009.21 398.64C1009.12 400.421 1008.56 402.543 1007.52 405.006C1005.42 409.288 999.939 411.601 991.066 411.944C982.355 412.281 976.426 411.46 973.28 409.482C970.289 407.336 968.47 404.175 967.824 399.999C962.186 408.78 952.349 413.442 938.314 413.986C924.44 414.523 911.288 408.65 898.857 396.368C886.426 384.085 879.886 369.555 879.236 352.778C878.581 335.839 883.978 320.847 895.429 307.802C907.035 294.589 920.017 287.705 934.375 287.149C939.859 286.937 944.898 287.711 949.49 289.473C954.082 291.234 957.299 292.967 959.143 294.673C960.98 296.217 962.494 297.774 963.686 299.344ZM921.593 351.381C921.799 356.704 924.083 361.463 928.446 365.656C932.803 369.688 937.966 371.589 943.935 371.358C949.904 371.127 954.74 368.758 958.443 364.253C962.307 359.741 964.139 354.904 963.94 349.742C963.734 344.418 961.607 339.573 957.561 335.206C953.676 330.832 948.507 328.77 942.054 329.02C935.762 329.264 930.687 331.722 926.829 336.395C923.132 341.062 921.387 346.057 921.593 351.381ZM1109.69 391.843C1103.87 400.146 1094.27 404.557 1080.88 405.075C1067.49 405.593 1054.67 399.95 1042.42 388.145C1030.32 376.173 1023.96 361.96 1023.32 345.505C1022.68 329.05 1028.01 314.384 1039.31 301.506C1050.6 288.629 1063.27 281.918 1077.3 281.375C1082.79 281.163 1087.83 282.018 1092.43 283.94C1097.02 285.701 1100.16 287.438 1101.84 289.15C1103.68 290.695 1105.11 292.174 1106.13 293.588C1106.44 289.053 1107.92 285.603 1110.58 283.238C1113.39 280.706 1117.94 279.318 1124.23 279.074C1130.52 278.831 1135.14 279.137 1138.08 279.992C1141.02 280.848 1143.1 282.464 1144.33 284.84C1145.7 287.048 1146.51 289.037 1146.74 290.805C1147.13 292.567 1147.4 295.303 1147.54 299.014L1151.42 399.195C1152.14 417.747 1146.26 432.919 1133.79 444.711C1121.33 456.664 1107.03 462.953 1090.9 463.577C1078.64 464.052 1066.83 461.52 1055.47 455.982C1044.1 450.444 1038.33 445.255 1038.14 440.415C1037.9 434.124 1040.1 428.464 1044.76 423.437C1047.69 419.931 1049.94 417.501 1051.5 416.148C1053.23 414.789 1055.22 414.066 1057.48 413.978C1059.73 413.891 1062.11 414.768 1064.61 416.611C1072.58 422.28 1081.08 424.939 1090.12 424.59C1096.25 424.353 1101.16 421.739 1104.84 416.75C1108.52 411.76 1110.24 405.878 1109.97 399.102L1109.69 391.843ZM1064.71 344.145C1064.91 349.308 1067.11 353.908 1071.3 357.946C1075.66 361.978 1080.74 363.882 1086.55 363.657C1092.52 363.426 1097.36 361.138 1101.07 356.794C1104.77 352.289 1106.52 347.535 1106.33 342.535C1106.13 337.372 1104.09 332.685 1100.21 328.473C1096.33 324.1 1091.24 322.035 1084.95 322.278C1078.66 322.522 1073.66 324.896 1069.95 329.402C1066.25 333.907 1064.5 338.822 1064.71 344.145ZM1249.39 288.286C1250 279.215 1256.2 274.451 1267.98 273.996C1274.27 273.752 1278.97 274.055 1282.07 274.904C1285.17 275.754 1287.33 277.366 1288.56 279.742C1289.94 282.112 1290.75 284.262 1290.99 286.192C1291.38 287.954 1291.65 290.69 1291.79 294.4L1295.07 379.094C1295.21 382.805 1295.16 385.634 1294.91 387.582C1294.82 389.363 1294.26 391.485 1293.22 393.949C1291.12 398.231 1285.64 400.543 1276.77 400.887C1268.05 401.224 1262.13 400.403 1258.98 398.424C1255.99 396.278 1254.17 393.117 1253.52 388.942C1247.89 397.723 1238.05 402.385 1224.01 402.928C1210.14 403.465 1196.99 397.592 1184.56 385.31C1172.13 373.028 1165.59 358.498 1164.94 341.72C1164.28 324.782 1169.68 309.79 1181.13 296.744C1192.74 283.532 1205.72 276.648 1220.07 276.092C1225.56 275.88 1230.6 276.654 1235.19 278.415C1239.78 280.176 1243 281.91 1244.84 283.615C1246.68 285.16 1248.19 286.717 1249.39 288.286ZM1207.29 340.323C1207.5 345.647 1209.78 350.405 1214.15 354.599C1218.5 358.631 1223.67 360.531 1229.63 360.3C1235.6 360.069 1240.44 357.701 1244.14 353.196C1248.01 348.684 1249.84 343.847 1249.64 338.684C1249.43 333.361 1247.31 328.515 1243.26 324.148C1239.38 319.775 1234.21 317.713 1227.75 317.963C1221.46 318.206 1216.39 320.665 1212.53 325.338C1208.83 330.005 1207.09 335 1207.29 340.323ZM1311.08 293.654C1310.93 289.943 1310.91 287.198 1311 285.417C1311.25 283.469 1311.89 281.263 1312.93 278.799C1315.02 274.518 1321.23 272.177 1331.56 271.777C1339.3 271.478 1344.84 272.637 1348.17 275.254C1351 277.406 1352.59 280.819 1352.93 285.491C1353.15 287.098 1353.32 289.434 1353.44 292.499L1356.72 377.193C1356.86 380.903 1356.81 383.733 1356.56 385.681C1356.47 387.462 1355.83 389.587 1354.63 392.057C1352.7 396.332 1346.57 398.67 1336.24 399.069C1326.08 399.463 1319.78 397.525 1317.36 393.257C1316.13 390.881 1315.33 388.812 1314.93 387.05C1314.7 385.281 1314.51 382.461 1314.36 378.59L1311.08 293.654ZM1349.03 247.351C1347.99 249.653 1345.95 251.348 1342.93 252.434C1339.9 253.521 1335.8 254.164 1330.64 254.364C1325.64 254.557 1321.59 254.23 1318.48 253.38C1315.38 252.531 1313.14 250.921 1311.75 248.552C1310.53 246.175 1309.72 244.106 1309.33 242.344C1309.1 240.415 1308.91 237.595 1308.76 233.884C1308.62 230.174 1308.59 227.428 1308.69 225.647C1308.93 223.699 1309.58 221.574 1310.62 219.272C1312.71 214.829 1318.92 212.407 1329.24 212.008C1339.41 211.614 1345.62 213.555 1347.89 217.829C1349.27 220.199 1350.08 222.349 1350.32 224.279C1350.71 226.041 1350.98 228.777 1351.12 232.487C1351.26 236.198 1351.21 239.027 1350.96 240.975C1350.87 242.756 1350.23 244.881 1349.03 247.351ZM1442.83 267.228C1458.96 266.604 1472.59 272.297 1483.72 284.306C1495 296.148 1500.99 310.942 1501.68 328.688L1503.32 371.276C1503.47 374.987 1503.42 377.816 1503.17 379.765C1503.08 381.545 1502.51 383.587 1501.47 385.889C1499.38 390.332 1493.17 392.753 1482.84 393.153C1471.39 393.596 1464.66 390.868 1462.66 384.968C1461.58 382.263 1460.94 378.168 1460.73 372.683L1459.08 330.094C1458.82 323.48 1456.69 318.392 1452.67 314.832C1448.82 311.265 1443.66 309.606 1437.21 309.856C1430.92 310.1 1425.83 312.235 1421.95 316.263C1418.23 320.285 1416.49 325.441 1416.73 331.733L1418.39 374.564C1418.53 378.274 1418.48 381.103 1418.23 383.052C1418.14 384.833 1417.49 386.877 1416.29 389.186C1414.36 393.623 1408.23 396.041 1397.91 396.44C1387.75 396.834 1381.45 394.896 1379.02 390.628C1377.8 388.252 1376.99 386.183 1376.6 384.421C1376.37 382.491 1376.18 379.671 1376.03 375.961L1372.72 290.299C1372.58 286.75 1372.56 284.085 1372.65 282.304C1372.9 280.356 1373.62 278.227 1374.83 275.919C1376.93 271.798 1383.06 269.542 1393.22 269.148C1403.07 268.767 1409.19 270.388 1411.59 274.011C1413.31 276.691 1414.24 279.967 1414.39 283.839C1414.99 282.685 1416.38 281.015 1418.56 278.831C1420.74 276.646 1422.85 274.868 1424.9 273.496C1430.24 269.574 1436.22 267.484 1442.83 267.228Z" fill="white"/>
<path d="M432.047 292.293L456.023 279.357L456.023 279.357L432.047 292.293ZM434.257 349.4L459.077 360.633L459.12 360.539L459.162 360.444L434.257 349.4ZM418.821 370.112L401.563 349.033L401.463 349.115L401.364 349.198L418.821 370.112ZM347.552 388.381L346.498 361.158L319.275 362.211L320.329 389.435L347.552 388.381ZM348.454 424.213L321.428 420.777L321.3 421.784L321.248 422.798L348.454 424.213ZM346.52 430.589L322.004 418.708L321.935 418.85L321.868 418.993L346.52 430.589ZM307.709 429.668L333.279 420.267L333.158 419.939L333.029 419.614L307.709 429.668ZM300.496 274.604L273.47 271.167L273.342 272.174L273.289 273.188L300.496 274.604ZM302.663 267.976L327.179 279.858L327.248 279.715L327.315 279.572L302.663 267.976ZM415.047 272.594L399.258 294.795L399.363 294.87L399.469 294.944L415.047 272.594ZM390.455 338.494L373.162 317.442L373.162 317.442L390.455 338.494ZM389.219 306.552L373.128 328.536L373.365 328.709L373.605 328.877L389.219 306.552ZM344.237 302.719L343.183 275.496L315.96 276.55L317.014 303.773L344.237 302.719ZM345.894 345.55L318.671 346.604L319.725 373.827L346.948 372.773L345.894 345.55ZM432.047 292.293L408.07 305.228C410.428 309.598 411.959 314.901 412.22 321.657L439.443 320.603L466.666 319.549C466.116 305.333 462.717 291.763 456.023 279.357L432.047 292.293ZM439.443 320.603L412.22 321.657C412.482 328.412 411.365 333.818 409.352 338.357L434.257 349.4L459.162 360.444C464.876 347.558 467.217 333.766 466.666 319.549L439.443 320.603ZM434.257 349.4L409.437 338.168C407.068 343.403 404.336 346.763 401.563 349.033L418.821 370.112L436.08 391.192C446.148 382.948 453.707 372.5 459.077 360.633L434.257 349.4ZM418.821 370.112L401.364 349.198C392.143 356.894 384.067 359.704 376.746 359.987L377.8 387.21L378.854 414.433C400.248 413.605 419.52 405.016 436.279 391.027L418.821 370.112ZM377.8 387.21L376.746 359.987L346.498 361.158L347.552 388.381L348.606 415.604L378.854 414.433L377.8 387.21ZM347.552 388.381L320.329 389.435L321.387 416.779L348.61 415.725L375.833 414.671L374.775 387.327L347.552 388.381ZM348.61 415.725L321.387 416.779C321.445 418.265 321.454 419.363 321.44 420.129C321.425 420.949 321.388 421.097 321.428 420.777L348.454 424.213L375.48 427.649C376.016 423.433 375.994 418.81 375.833 414.671L348.61 415.725ZM348.454 424.213L321.248 422.798C321.34 421.025 321.662 419.789 321.831 419.233C322.005 418.66 322.12 418.468 322.004 418.708L346.52 430.589L371.036 442.47C373.052 438.31 375.305 432.462 375.661 425.628L348.454 424.213ZM346.52 430.589L321.868 418.993C324.721 412.927 329.362 410.76 330.396 410.356C331.23 410.031 330.456 410.49 326.844 410.63L327.898 437.853L328.952 465.076C335.665 464.816 343.157 463.864 350.198 461.118C357.439 458.293 366.229 452.694 371.172 442.185L346.52 430.589ZM327.898 437.853L326.844 410.63C323.134 410.773 322.967 410.218 324.618 410.887C325.631 411.298 327.353 412.189 329.15 413.931C331.018 415.742 332.429 417.954 333.279 420.267L307.709 429.668L282.139 439.068C291.085 463.403 316.272 465.567 328.952 465.076L327.898 437.853ZM307.709 429.668L333.029 419.614C333.29 420.271 333.396 420.686 333.413 420.755C333.434 420.835 333.399 420.713 333.342 420.34C333.221 419.56 333.075 418.191 332.993 416.087L305.77 417.141L278.547 418.194C278.795 424.588 279.549 432.571 282.389 439.721L307.709 429.668ZM305.77 417.141L332.993 416.087L327.795 281.787L300.572 282.84L273.349 283.894L278.547 418.194L305.77 417.141ZM300.572 282.84L327.795 281.787C327.657 278.219 327.677 276.501 327.702 276.019L300.496 274.604L273.289 273.188C273.129 276.268 273.2 280.041 273.349 283.894L300.572 282.84ZM300.496 274.604L327.522 278.04C327.393 279.051 327.198 279.708 327.118 279.952C327.036 280.202 327.023 280.178 327.179 279.858L302.663 267.976L278.147 256.095C276.132 260.251 274.206 265.377 273.47 271.167L300.496 274.604ZM302.663 267.976L327.315 279.572C324.462 285.638 319.82 287.805 318.786 288.209C317.953 288.534 318.727 288.075 322.338 287.935L321.285 260.712L320.231 233.489C313.518 233.749 306.026 234.701 298.985 237.447C291.744 240.272 282.954 245.871 278.01 256.381L302.663 267.976ZM321.285 260.712L322.338 287.935L374.122 285.931L373.069 258.708L372.015 231.485L320.231 233.489L321.285 260.712ZM373.069 258.708L374.122 285.931C381.215 285.657 389.405 287.788 399.258 294.795L415.047 272.594L430.836 250.392C413.111 237.786 393.315 230.661 372.015 231.485L373.069 258.708ZM415.047 272.594L399.469 294.944C402.293 296.912 405.268 300.033 408.07 305.228L432.047 292.293L456.023 279.357C449.775 267.776 441.417 257.765 430.625 250.243L415.047 272.594ZM376.384 344.37L377.438 371.593C389.4 371.13 399.618 366.223 407.748 359.545L390.455 338.494L373.162 317.442C372.632 317.878 372.579 317.811 373.033 317.621C373.537 317.411 374.344 317.185 375.331 317.147L376.384 344.37ZM390.455 338.494L407.748 359.545C420.274 349.256 424.605 334.822 424.078 321.198L396.855 322.251L369.631 323.305C369.654 323.896 369.527 323.137 370.114 321.649C370.764 319.998 371.887 318.49 373.162 317.442L390.455 338.494ZM396.855 322.251L424.078 321.198C423.55 307.573 418.117 293.518 404.833 284.227L389.219 306.552L373.605 328.877C372.253 327.931 371.016 326.514 370.24 324.919C369.541 323.48 369.609 322.714 369.631 323.305L396.855 322.251ZM389.219 306.552L405.31 284.568C396.526 278.139 385.705 273.85 373.431 274.325L374.485 301.548L375.538 328.771C374.587 328.808 373.743 328.649 373.159 328.451C372.627 328.27 372.62 328.164 373.128 328.536L389.219 306.552ZM374.485 301.548L373.431 274.325L343.183 275.496L344.237 302.719L345.29 329.942L375.538 328.771L374.485 301.548ZM344.237 302.719L317.014 303.773L318.671 346.604L345.894 345.55L373.117 344.496L371.46 301.665L344.237 302.719ZM345.894 345.55L346.948 372.773L377.438 371.593L376.384 344.37L375.331 317.147L344.841 318.327L345.894 345.55ZM452.996 258.523L425.97 255.087L425.842 256.094L425.789 257.108L452.996 258.523ZM454.921 251.905L430.268 240.309L430.026 240.824L429.806 241.348L454.921 251.905ZM492.186 250.463L515.711 236.722L515.593 236.521L515.472 236.321L492.186 250.463ZM494.617 256.912L467.575 260.223L467.711 261.332L467.937 262.427L494.617 256.912ZM501.647 388.476L478.846 403.385L479.201 403.928L479.581 404.453L501.647 388.476ZM514.817 390.632L508.352 417.097L510.16 417.538L512.011 417.73L514.817 390.632ZM519.006 392.408L504.258 415.314L504.651 415.568L505.053 415.807L519.006 392.408ZM520.392 428.222L536.754 450.005L536.81 449.962L536.867 449.919L520.392 428.222ZM490.443 430.835L487.981 457.967L488.08 457.976L488.18 457.984L490.443 430.835ZM465.767 419.43L488.994 405.193L488.937 405.101L488.88 405.009L465.767 419.43ZM453.072 266.76L480.295 265.706C480.157 262.138 480.177 260.42 480.202 259.938L452.996 258.523L425.789 257.108C425.629 260.187 425.7 263.96 425.849 267.813L453.072 266.76ZM452.996 258.523L480.022 261.959C479.939 262.61 479.834 262.976 479.822 263.016C479.809 263.061 479.858 262.883 480.035 262.463L454.921 251.905L429.806 241.348C428.133 245.328 426.618 249.988 425.97 255.087L452.996 258.523ZM454.921 251.905L479.573 263.501C476.72 269.567 472.078 271.734 471.044 272.137C470.211 272.462 470.985 272.004 474.596 271.864L473.542 244.641L472.489 217.418C465.775 217.678 458.283 218.63 451.243 221.376C444.002 224.201 435.212 229.8 430.268 240.309L454.921 251.905ZM473.542 244.641L474.596 271.864C477.838 271.739 478.433 272.119 477.463 271.816C476.216 271.426 471.99 269.692 468.9 264.604L492.186 250.463L515.472 236.321C509.794 226.972 501.166 222.136 493.704 219.806C486.52 217.563 479.088 217.163 472.489 217.418L473.542 244.641ZM492.186 250.463L468.662 264.203C468.726 264.314 468.565 264.06 468.339 263.461C468.113 262.862 467.763 261.759 467.575 260.223L494.617 256.912L521.658 253.601C520.826 246.807 518.25 241.07 515.711 236.722L492.186 250.463ZM494.617 256.912L467.937 262.427C467.872 262.111 467.921 262.255 467.999 263.072C468.072 263.835 468.148 264.93 468.205 266.416L495.428 265.363L522.652 264.309C522.491 260.171 522.157 255.56 521.296 251.397L494.617 256.912ZM495.428 265.363L468.205 266.416L472.542 378.454L499.765 377.401L526.988 376.347L522.652 264.309L495.428 265.363ZM499.765 377.401L472.542 378.454C472.678 381.969 472.958 385.634 473.546 389.091C473.989 391.696 475.117 397.682 478.846 403.385L501.647 388.476L524.449 373.566C525.286 374.847 525.844 375.971 526.2 376.778C526.563 377.598 526.795 378.268 526.937 378.718C527.206 379.574 527.279 380.058 527.262 379.959C527.252 379.903 527.202 379.581 527.143 378.925C527.086 378.283 527.03 377.433 526.988 376.347L499.765 377.401ZM501.647 388.476L479.581 404.453C489.189 417.723 504.192 417.822 509.077 417.633L508.023 390.41L506.97 363.187C507.137 363.18 509.084 363.09 511.919 363.95C514.986 364.881 519.885 367.21 523.714 372.498L501.647 388.476ZM508.023 390.41L509.077 417.633C509.714 417.608 510.227 417.596 510.629 417.592C511.038 417.588 511.276 417.593 511.374 417.596C511.419 417.597 511.406 417.598 511.344 417.594C511.284 417.59 511.146 417.58 510.944 417.559C510.745 417.539 510.433 417.502 510.031 417.438C509.638 417.375 509.06 417.27 508.352 417.097L514.817 390.632L521.283 364.167C515.852 362.84 509.8 363.077 506.97 363.187L508.023 390.41ZM514.817 390.632L512.011 417.73C509.163 417.435 507.109 416.682 506.078 416.245C504.997 415.786 504.371 415.387 504.258 415.314L519.006 392.408L533.754 369.502C530.76 367.574 525.059 364.303 517.624 363.533L514.817 390.632ZM519.006 392.408L505.053 415.807C501.822 413.881 499.781 411.531 498.613 409.797C497.491 408.131 497.053 406.865 496.945 406.531C496.784 406.035 497.155 407.021 497.288 410.455L524.511 409.402L551.734 408.348C551.504 402.426 550.776 395.902 548.781 389.741C546.892 383.91 542.684 374.808 532.959 369.009L519.006 392.408ZM524.511 409.402L497.288 410.455C497.359 412.303 497.338 413.688 497.279 414.674C497.219 415.687 497.132 416.043 497.162 415.905C497.182 415.814 497.42 414.719 498.256 413.113C499.118 411.46 500.831 408.868 503.918 406.524L520.392 428.222L536.867 449.919C545.98 443 549.132 433.3 550.39 427.553C551.77 421.244 551.974 414.564 551.734 408.348L524.511 409.402ZM520.392 428.222L504.03 406.439C506.609 404.502 508.67 403.934 508.88 403.875C509.223 403.779 508.861 403.913 507.475 404.034C504.65 404.281 499.893 404.285 492.705 403.686L490.443 430.835L488.18 457.984C496.876 458.709 505.053 458.939 512.211 458.315C518.228 457.79 528.298 456.356 536.754 450.005L520.392 428.222ZM490.443 430.835L492.904 403.703C490.859 403.517 489.314 403.251 488.192 402.983C487.067 402.715 486.499 402.478 486.34 402.405C486.194 402.337 486.526 402.47 487.094 402.949C487.689 403.45 488.384 404.199 488.994 405.193L465.767 419.43L442.54 433.668C453.285 451.198 472.49 456.562 487.981 457.967L490.443 430.835ZM465.767 419.43L488.88 405.009C487.944 403.509 485.375 396.964 484.753 380.89L457.53 381.943L430.307 382.997C431.021 401.446 433.943 419.891 442.653 433.852L465.767 419.43ZM457.53 381.943L484.753 380.89L480.295 265.706L453.072 266.76L425.849 267.813L430.307 382.997L457.53 381.943ZM617.017 312.761L595.32 329.236L639.257 387.103L644.198 314.614L617.017 312.761ZM649.701 299.379L656.894 273.102L656.894 273.102L649.701 299.379ZM656.189 304.217L631.965 316.684L632.298 317.33L632.664 317.957L656.189 304.217ZM658.62 310.666L631.578 313.977L631.738 315.286L632.024 316.573L658.62 310.666ZM662.544 412.057L635.518 408.621L635.39 409.628L635.337 410.642L662.544 412.057ZM660.851 418.423L685.32 430.402L685.663 429.701L685.966 428.981L660.851 418.423ZM626.612 422.899L610.73 445.034L611.405 445.519L612.109 445.961L626.612 422.899ZM621.155 413.416L648.078 409.249L637.08 338.19L598.23 398.697L621.155 413.416ZM552.189 409.785L533.041 429.164V429.164L552.189 409.785ZM548.761 321.219L528.293 303.24L528.287 303.247L548.761 321.219ZM602.822 302.89L593.066 328.327L593.066 328.327L602.822 302.89ZM612.474 308.09L593.97 328.085L594.446 328.525L594.942 328.942L612.474 308.09ZM581.778 379.073L562.9 398.715L563.085 398.893L563.273 399.068L581.778 379.073ZM611.774 377.67L591.083 359.948L590.903 360.158L590.728 360.372L611.774 377.67ZM610.893 348.623L590.525 366.716L590.715 366.93L590.909 367.139L610.893 348.623ZM580.161 349.812L559.152 332.467L558.977 332.68L558.806 332.896L580.161 349.812ZM617.017 312.761L644.198 314.614C644.153 315.264 643.937 316.833 642.966 318.805C641.947 320.873 640.446 322.667 638.732 323.985C635.607 326.386 633.716 325.807 636.663 325.693L635.609 298.47L634.556 271.247C625.726 271.589 614.849 273.619 605.526 280.785C595.199 288.723 590.582 299.981 589.837 310.908L617.017 312.761ZM635.609 298.47L636.663 325.693C639.164 325.596 640.934 325.627 642.098 325.702C643.369 325.784 643.345 325.885 642.508 325.656L649.701 299.379L656.894 273.102C649.626 271.113 641.502 270.978 634.556 271.247L635.609 298.47ZM649.701 299.379L642.508 325.656C641.395 325.351 639.48 324.643 637.364 323.065C635.153 321.417 633.271 319.22 631.965 316.684L656.189 304.217L680.412 291.75C674.994 281.222 665.731 275.521 656.894 273.102L649.701 299.379ZM656.189 304.217L632.664 317.957C632.729 318.068 632.568 317.814 632.342 317.215C632.116 316.616 631.766 315.513 631.578 313.977L658.62 310.666L685.661 307.355C684.829 300.561 682.253 294.824 679.713 290.476L656.189 304.217ZM658.62 310.666L632.024 316.573C631.947 316.224 631.924 316.053 631.934 316.118C631.942 316.171 631.967 316.354 631.999 316.69C632.067 317.381 632.141 318.435 632.199 319.928L659.422 318.875L686.645 317.821C686.49 313.81 686.165 309.035 685.215 304.76L658.62 310.666ZM659.422 318.875L632.199 319.928L635.477 404.622L662.7 403.569L689.923 402.515L686.645 317.821L659.422 318.875ZM662.7 403.569L635.477 404.622C635.534 406.109 635.544 407.207 635.53 407.972C635.515 408.793 635.477 408.941 635.518 408.621L662.544 412.057L689.569 415.493C690.106 411.276 690.083 406.654 689.923 402.515L662.7 403.569ZM662.544 412.057L635.337 410.642C635.408 409.271 635.626 408.348 635.722 407.985C635.823 407.607 635.868 407.552 635.737 407.866L660.851 418.423L685.966 428.981C687.674 424.917 689.434 419.554 689.75 413.472L662.544 412.057ZM660.851 418.423L636.383 406.445C638.893 401.318 642.822 399.008 644.581 398.266C645.964 397.683 645.958 398.037 643.344 398.138L644.398 425.361L645.452 452.584C655.731 452.186 676.014 449.411 685.32 430.402L660.851 418.423ZM644.398 425.361L643.344 398.138C641.699 398.202 640.356 398.204 639.286 398.168C638.204 398.133 637.515 398.062 637.153 398.012C636.77 397.959 636.948 397.955 637.523 398.133C638.07 398.301 639.415 398.768 641.114 399.837L626.612 422.899L612.109 445.961C618.348 449.885 624.956 451.33 629.682 451.985C634.771 452.689 640.149 452.789 645.452 452.584L644.398 425.361ZM626.612 422.899L642.493 400.764C644.124 401.934 645.57 403.511 646.618 405.332C647.625 407.083 647.968 408.539 648.078 409.249L621.155 413.416L594.232 417.583C595.818 427.826 600.903 437.984 610.73 445.034L626.612 422.899ZM621.155 413.416L598.23 398.697C598.195 398.753 598.216 398.713 598.273 398.663C598.323 398.62 598.238 398.711 597.881 398.881C597.103 399.249 594.954 400.011 590.592 400.18L591.646 427.403L592.699 454.626C612.26 453.869 632.06 446.856 644.08 428.136L621.155 413.416ZM591.646 427.403L590.592 400.18C586.096 400.354 579.884 398.851 571.337 390.405L552.189 409.785L533.041 429.164C549.355 445.283 569.448 455.526 592.699 454.626L591.646 427.403ZM552.189 409.785L571.337 390.405C563.604 382.765 560.161 374.701 559.791 365.141L532.568 366.195L505.345 367.248C506.274 391.244 515.911 412.239 533.041 429.164L552.189 409.785ZM532.568 366.195L559.791 365.141C559.413 355.358 562.265 347.132 569.236 339.191L548.761 321.219L528.287 303.247C512.356 321.396 504.413 343.154 505.345 367.248L532.568 366.195ZM548.761 321.219L569.229 339.198C577.089 330.25 583.489 327.993 588.76 327.789L587.706 300.566L586.653 273.343C563.209 274.251 543.645 285.762 528.293 303.24L548.761 321.219ZM587.706 300.566L588.76 327.789C590.987 327.703 592.298 328.032 593.066 328.327L602.822 302.89L612.577 277.453C604.161 274.225 595.396 273.005 586.653 273.343L587.706 300.566ZM602.822 302.89L593.066 328.327C593.819 328.615 594.417 328.865 594.881 329.073C595.348 329.282 595.629 329.425 595.757 329.495C595.893 329.568 595.791 329.522 595.521 329.338C595.261 329.161 594.696 328.756 593.97 328.085L612.474 308.09L630.979 288.095C625.175 282.724 617.906 279.497 612.577 277.453L602.822 302.89ZM612.474 308.09L594.942 328.942C595.235 329.189 595.397 329.348 595.458 329.411C595.519 329.473 595.458 329.418 595.32 329.236L617.017 312.761L638.715 296.286C636.071 292.804 633.069 289.812 630.007 287.238L612.474 308.09ZM574.925 364.798L547.701 365.851C548.218 379.189 554.202 390.356 562.9 398.715L581.778 379.073L600.656 359.431C600.483 359.265 600.895 359.616 601.352 360.569C601.838 361.581 602.108 362.718 602.148 363.744L574.925 364.798ZM581.778 379.073L563.273 399.068C572.97 408.042 585.182 412.506 598.32 411.998L597.266 384.775L596.213 357.552C596.484 357.541 597.287 357.573 598.329 357.957C599.375 358.341 600.037 358.851 600.283 359.079L581.778 379.073ZM597.266 384.775L598.32 411.998C611.85 411.474 624.042 405.65 632.821 394.969L611.774 377.67L590.728 360.372C591.142 359.867 592.024 359.027 593.388 358.358C594.737 357.698 595.819 357.567 596.213 357.552L597.266 384.775ZM611.774 377.67L632.465 395.392C640.077 386.506 644.999 375.153 644.494 362.105L617.271 363.159L590.048 364.213C590.007 363.14 590.194 362 590.57 361.008C590.923 360.077 591.265 359.735 591.083 359.948L611.774 377.67ZM617.271 363.159L644.494 362.105C644.007 349.511 638.787 338.644 630.876 330.106L610.893 348.623L590.909 367.139C591.123 367.37 590.875 367.164 590.575 366.48C590.257 365.754 590.076 364.938 590.048 364.213L617.271 363.159ZM610.893 348.623L631.26 330.529C621.353 319.377 607.971 314.686 594.332 315.214L595.385 342.437L596.439 369.66C596.463 369.659 595.488 369.691 594.008 369.101C592.451 368.48 591.251 367.533 590.525 366.716L610.893 348.623ZM595.385 342.437L594.332 315.214C580.629 315.745 568.166 321.549 559.152 332.467L580.161 349.812L601.169 367.157C600.794 367.611 599.982 368.379 598.737 368.982C597.518 369.572 596.61 369.654 596.439 369.66L595.385 342.437ZM580.161 349.812L558.806 332.896C551.578 342.02 547.214 353.257 547.701 365.851L574.925 364.798L602.148 363.744C602.176 364.47 602.059 365.297 601.798 366.045C601.551 366.751 601.32 366.976 601.516 366.729L580.161 349.812ZM791.786 293.88L801.8 268.543L801.766 268.53L801.732 268.517L791.786 293.88ZM803.259 321.063L828.541 331.213L830.707 325.818L830.482 320.009L803.259 321.063ZM745.348 465.318L720.065 455.169L719.954 455.446L719.849 455.725L745.348 465.318ZM742.231 472.467L718.346 459.364L717.843 460.282L717.411 461.235L742.231 472.467ZM738.296 477.224L721.119 456.078V456.078L738.296 477.224ZM718.155 476.549L708.141 501.886L708.27 501.937L708.4 501.986L718.155 476.549ZM724.383 405.786L749.483 416.377L755.092 403.086L747.25 390.977L724.383 405.786ZM673.091 326.586L695.958 311.776L695.892 311.675L695.826 311.575L673.091 326.586ZM680.26 298.923L665.549 275.993L665.512 276.017L665.475 276.041L680.26 298.923ZM700.474 295.233L714.698 271.997L714.698 271.997L700.474 295.233ZM704.747 299.187L681.462 313.329L682.428 314.919L683.601 316.364L704.747 299.187ZM718.927 321.176L695.869 335.685L695.97 335.846L696.074 336.006L718.927 321.176ZM743.386 358.278L720.765 373.46L754.075 423.091L769.684 365.392L743.386 358.278ZM755.301 328.008L780.491 338.385L780.509 338.341L780.527 338.297L755.301 328.008ZM766.807 299.693L742.648 287.102L741.928 288.483L741.37 289.938L766.807 299.693ZM769.552 295.467L791.467 311.651L791.645 311.411L791.816 311.167L769.552 295.467ZM791.786 293.88L781.772 319.216C784.729 320.385 784.709 320.882 783.613 319.8C782.958 319.152 781.911 317.924 781.008 316.032C780.073 314.073 779.517 311.866 779.43 309.626L806.653 308.572L833.876 307.518C832.975 284.238 813.567 273.194 801.8 268.543L791.786 293.88ZM806.653 308.572L779.43 309.626C779.407 309.043 779.448 308.357 779.592 307.616C779.737 306.874 779.96 306.206 780.215 305.642L805.036 316.874L829.856 328.107C832.801 321.597 834.151 314.621 833.876 307.518L806.653 308.572ZM805.036 316.874L780.215 305.642C779.595 307.013 779.043 308.255 778.618 309.257C778.421 309.72 778.139 310.397 777.868 311.117C777.746 311.442 777.489 312.135 777.226 312.996C777.099 313.414 776.863 314.216 776.642 315.236C776.534 315.734 775.897 318.522 776.036 322.117L803.259 321.063L830.482 320.009C830.562 322.081 830.385 323.722 830.274 324.574C830.149 325.528 829.996 326.3 829.887 326.8C829.674 327.781 829.452 328.534 829.343 328.893C829.116 329.637 828.914 330.174 828.865 330.303C828.74 330.635 828.679 330.767 828.779 330.533C828.946 330.139 829.285 329.367 829.856 328.107L805.036 316.874ZM803.259 321.063L777.977 310.913L720.065 455.169L745.348 465.318L770.63 475.468L828.541 331.213L803.259 321.063ZM745.348 465.318L719.849 455.725C719.384 456.961 719.006 457.889 718.716 458.556C718.412 459.253 718.286 459.474 718.346 459.364L742.231 472.467L766.117 485.57C767.94 482.247 769.508 478.468 770.846 474.912L745.348 465.318ZM742.231 472.467L717.411 461.235C718.902 457.941 720.786 456.348 721.119 456.078L738.296 477.224L755.472 498.37C759.565 495.046 764.073 490.282 767.052 483.699L742.231 472.467ZM738.296 477.224L721.119 456.078C724.674 453.19 728.292 452.528 730.067 452.46L731.12 479.683L732.174 506.906C739.757 506.612 748.158 504.312 755.472 498.37L738.296 477.224ZM731.12 479.683L730.067 452.46C731.181 452.417 731.92 452.499 732.162 452.531C732.425 452.564 732.421 452.58 732.101 452.503C731.418 452.337 730.066 451.939 727.91 451.112L718.155 476.549L708.4 501.986C714.593 504.362 723.353 507.247 732.174 506.906L731.12 479.683ZM718.155 476.549L728.169 451.213C725.143 450.017 725.105 449.497 726.175 450.538C726.82 451.165 727.899 452.399 728.843 454.335C729.823 456.346 730.428 458.656 730.52 461.045L703.297 462.099L676.074 463.153C676.979 486.518 696.778 497.395 708.141 501.886L718.155 476.549ZM703.297 462.099L730.52 461.045C730.591 462.879 730.433 464.224 730.368 464.72C730.29 465.32 730.211 465.681 730.204 465.714C730.194 465.759 730.285 465.351 730.598 464.321C731.215 462.288 732.297 459.138 733.97 454.67C737.288 445.807 742.428 433.098 749.483 416.377L724.383 405.786L699.282 395.195C692.131 412.144 686.653 425.656 682.943 435.564C681.101 440.482 679.566 444.855 678.464 448.483C677.917 450.283 677.372 452.239 676.951 454.184C676.644 455.604 675.917 459.09 676.074 463.153L703.297 462.099ZM724.383 405.786L747.25 390.977L695.958 311.776L673.091 326.586L650.224 341.395L701.516 420.595L724.383 405.786ZM673.091 326.586L695.826 311.575C695.23 310.672 694.791 309.953 694.477 309.405C694.159 308.848 694.022 308.558 693.998 308.506C693.965 308.434 694.142 308.803 694.357 309.548C694.56 310.254 694.934 311.761 695.015 313.862L667.792 314.916L640.569 315.969C640.817 322.354 642.873 327.701 644.386 331.032C646.061 334.721 648.175 338.292 650.356 341.596L673.091 326.586ZM667.792 314.916L695.015 313.862C695.232 319.466 692.884 322.977 692.245 323.796C691.76 324.418 692.202 323.643 695.045 321.806L680.26 298.923L665.475 276.041C656.298 281.97 639.751 294.815 640.569 315.969L667.792 314.916ZM680.26 298.923L694.971 321.853C695.853 321.287 696.56 320.872 697.103 320.576C697.651 320.278 697.956 320.142 698.037 320.108C698.129 320.069 697.854 320.194 697.257 320.35C696.673 320.502 695.532 320.749 693.952 320.81L692.898 293.587L691.844 266.364C680.981 266.785 671.468 272.196 665.549 275.993L680.26 298.923ZM692.898 293.587L693.952 320.81C693.321 320.835 690.101 320.825 686.25 318.468L700.474 295.233L714.698 271.997C706.876 267.209 698.605 266.102 691.844 266.364L692.898 293.587ZM700.474 295.233L686.25 318.468C685.931 318.273 683.571 316.802 681.462 313.329L704.747 299.187L728.033 285.045C724.198 278.731 718.989 274.624 714.698 271.997L700.474 295.233ZM704.747 299.187L683.601 316.364C682.917 315.522 682.697 315.121 683.566 316.42C684.159 317.306 685.014 318.611 686.16 320.389C688.441 323.927 691.669 329.011 695.869 335.685L718.927 321.176L741.986 306.668C737.75 299.936 734.397 294.652 731.951 290.86C730.046 287.906 727.596 284.106 725.893 282.01L704.747 299.187ZM718.927 321.176L696.074 336.006C704.73 349.347 712.961 361.833 720.765 373.46L743.386 358.278L766.007 343.096C758.38 331.732 750.305 319.484 741.781 306.347L718.927 321.176ZM743.386 358.278L769.684 365.392C769.508 366.041 769.496 365.952 770.093 364.332C770.58 363.01 771.287 361.162 772.245 358.73C774.154 353.881 776.893 347.119 780.491 338.385L755.301 328.008L730.111 317.632C726.472 326.465 723.608 333.532 721.545 338.773C719.767 343.289 717.925 348.068 717.088 351.164L743.386 358.278ZM755.301 328.008L780.527 338.297C787.647 320.839 791.668 310.951 792.244 309.449L766.807 299.693L741.37 289.938C741.397 289.869 741.36 289.964 741.19 290.389C741.044 290.754 740.842 291.257 740.579 291.906C740.056 293.203 739.317 295.024 738.361 297.377C736.45 302.08 733.689 308.859 730.075 317.72L755.301 328.008ZM766.807 299.693L790.966 312.285C790.861 312.486 790.788 312.611 790.764 312.653C790.738 312.697 790.744 312.683 790.792 312.609C790.894 312.453 791.107 312.139 791.467 311.651L769.552 295.467L747.636 279.284C745.995 281.506 744.168 284.186 742.648 287.102L766.807 299.693ZM769.552 295.467L791.816 311.167C790.498 313.037 788.48 314.988 785.76 316.403C783.102 317.786 780.699 318.18 779.157 318.239L778.104 291.016L777.05 263.793C765.594 264.237 754.576 269.43 747.287 279.768L769.552 295.467ZM778.104 291.016L779.157 318.239C778.472 318.266 778.323 318.176 778.848 318.286C779.368 318.394 780.348 318.657 781.84 319.243L791.786 293.88L801.732 268.517C794.447 265.66 785.982 263.448 777.05 263.793L778.104 291.016ZM963.686 299.344L941.988 315.818L985.925 373.686L990.866 301.196L963.686 299.344ZM996.369 285.962L1003.56 259.685L1003.56 259.685L996.369 285.962ZM1002.86 290.8L978.634 303.267L978.966 303.913L979.333 304.54L1002.86 290.8ZM1005.29 297.249L978.246 300.56L978.407 301.868L978.692 303.156L1005.29 297.249ZM1009.21 398.64L982.186 395.204L982.058 396.211L982.005 397.224L1009.21 398.64ZM1007.52 405.006L1031.99 416.985L1032.33 416.284L1032.63 415.564L1007.52 405.006ZM973.28 409.482L957.398 431.617L958.073 432.102L958.777 432.544L973.28 409.482ZM967.824 399.999L994.746 395.832L983.748 324.773L944.899 385.28L967.824 399.999ZM898.857 396.368L879.709 415.747V415.747L898.857 396.368ZM895.429 307.802L874.961 289.823L874.955 289.83L895.429 307.802ZM949.49 289.473L939.735 314.909L939.735 314.909L949.49 289.473ZM959.143 294.673L940.638 314.667L941.114 315.108L941.61 315.525L959.143 294.673ZM928.446 365.656L909.568 385.298L909.753 385.476L909.942 385.651L928.446 365.656ZM958.443 364.253L937.752 346.53L937.572 346.741L937.396 346.954L958.443 364.253ZM957.561 335.206L937.194 353.299L937.383 353.513L937.577 353.722L957.561 335.206ZM926.829 336.395L905.821 319.05L905.645 319.263L905.474 319.479L926.829 336.395ZM963.686 299.344L990.866 301.196C990.822 301.847 990.606 303.416 989.634 305.387C988.615 307.456 987.114 309.25 985.4 310.567C982.275 312.969 980.384 312.39 983.331 312.276L982.278 285.053L981.224 257.83C972.395 258.172 961.517 260.202 952.195 267.368C941.868 275.306 937.25 286.564 936.505 297.491L963.686 299.344ZM982.278 285.053L983.331 312.276C985.832 312.179 987.603 312.21 988.766 312.285C990.038 312.367 990.013 312.468 989.176 312.238L996.369 285.962L1003.56 259.685C996.294 257.696 988.17 257.561 981.224 257.83L982.278 285.053ZM996.369 285.962L989.176 312.238C988.063 311.934 986.148 311.226 984.032 309.648C981.822 308 979.939 305.803 978.634 303.267L1002.86 290.8L1027.08 278.333C1021.66 267.805 1012.4 262.104 1003.56 259.685L996.369 285.962ZM1002.86 290.8L979.333 304.54C979.397 304.651 979.236 304.397 979.01 303.798C978.784 303.199 978.434 302.096 978.246 300.56L1005.29 297.249L1032.33 293.938C1031.5 287.144 1028.92 281.407 1026.38 277.059L1002.86 290.8ZM1005.29 297.249L978.692 303.156C978.615 302.807 978.593 302.636 978.602 302.701C978.61 302.754 978.635 302.937 978.668 303.273C978.735 303.964 978.809 305.018 978.867 306.511L1006.09 305.458L1033.31 304.404C1033.16 300.393 1032.83 295.618 1031.88 291.343L1005.29 297.249ZM1006.09 305.458L978.867 306.511L982.145 391.205L1009.37 390.152L1036.59 389.098L1033.31 304.404L1006.09 305.458ZM1009.37 390.152L982.145 391.205C982.203 392.692 982.212 393.789 982.198 394.555C982.183 395.376 982.145 395.524 982.186 395.204L1009.21 398.64L1036.24 402.076C1036.77 397.859 1036.75 393.236 1036.59 389.098L1009.37 390.152ZM1009.21 398.64L982.005 397.224C982.077 395.854 982.294 394.931 982.39 394.568C982.491 394.19 982.537 394.135 982.405 394.449L1007.52 405.006L1032.63 415.564C1034.34 411.499 1036.1 406.137 1036.42 400.055L1009.21 398.64ZM1007.52 405.006L983.051 393.027C985.561 387.9 989.49 385.591 991.249 384.849C992.632 384.266 992.626 384.62 990.013 384.721L991.066 411.944L992.12 439.167C1002.4 438.769 1022.68 435.993 1031.99 416.985L1007.52 405.006ZM991.066 411.944L990.013 384.721C988.367 384.785 987.025 384.787 985.954 384.751C984.872 384.715 984.183 384.645 983.822 384.595C983.438 384.542 983.616 384.538 984.191 384.716C984.738 384.884 986.083 385.351 987.783 386.42L973.28 409.482L958.777 432.544C965.016 436.468 971.625 437.913 976.351 438.567C981.439 439.272 986.818 439.372 992.12 439.167L991.066 411.944ZM973.28 409.482L989.161 387.346C990.792 388.517 992.238 390.094 993.286 391.915C994.294 393.666 994.636 395.122 994.746 395.832L967.824 399.999L940.901 404.166C942.486 414.408 947.571 424.567 957.398 431.617L973.28 409.482ZM967.824 399.999L944.899 385.28C944.863 385.336 944.884 385.296 944.941 385.246C944.992 385.202 944.907 385.294 944.55 385.463C943.771 385.832 941.622 386.594 937.261 386.763L938.314 413.986L939.368 441.209C958.928 440.452 978.729 433.439 990.748 414.718L967.824 399.999ZM938.314 413.986L937.261 386.763C932.765 386.937 926.553 385.434 918.005 376.988L898.857 396.368L879.709 415.747C896.024 431.866 916.116 442.109 939.368 441.209L938.314 413.986ZM898.857 396.368L918.005 376.988C910.273 369.348 906.829 361.284 906.459 351.724L879.236 352.778L852.013 353.831C852.942 377.827 862.579 398.822 879.709 415.747L898.857 396.368ZM879.236 352.778L906.459 351.724C906.081 341.941 908.933 333.715 915.904 325.774L895.429 307.802L874.955 289.83C859.024 307.979 851.081 329.737 852.013 353.831L879.236 352.778ZM895.429 307.802L915.898 325.781C923.757 316.833 930.157 314.576 935.428 314.372L934.375 287.149L933.321 259.926C909.877 260.834 890.313 272.345 874.961 289.823L895.429 307.802ZM934.375 287.149L935.428 314.372C937.655 314.286 938.967 314.615 939.735 314.909L949.49 289.473L959.245 264.036C950.829 260.808 942.064 259.588 933.321 259.926L934.375 287.149ZM949.49 289.473L939.735 314.909C940.487 315.198 941.085 315.448 941.549 315.656C942.016 315.864 942.297 316.008 942.426 316.078C942.561 316.15 942.46 316.105 942.189 315.921C941.93 315.744 941.364 315.339 940.638 314.667L959.143 294.673L977.647 274.678C971.843 269.307 964.575 266.079 959.245 264.036L949.49 289.473ZM959.143 294.673L941.61 315.525C941.903 315.772 942.065 315.931 942.126 315.993C942.187 316.056 942.126 316.001 941.988 315.818L963.686 299.344L985.383 282.869C982.739 279.387 979.737 276.395 976.675 273.821L959.143 294.673ZM921.593 351.381L894.37 352.434C894.886 365.772 900.871 376.939 909.568 385.298L928.446 365.656L947.325 346.014C947.152 345.848 947.563 346.199 948.02 347.152C948.506 348.164 948.776 349.301 948.816 350.327L921.593 351.381ZM928.446 365.656L909.942 385.651C919.639 394.625 931.85 399.089 944.988 398.581L943.935 371.358L942.881 344.135C943.152 344.124 943.955 344.156 944.997 344.539C946.043 344.924 946.705 345.434 946.951 345.662L928.446 365.656ZM943.935 371.358L944.988 398.581C958.518 398.057 970.71 392.233 979.489 381.551L958.443 364.253L937.396 346.954C937.81 346.45 938.692 345.61 940.056 344.941C941.405 344.281 942.487 344.15 942.881 344.135L943.935 371.358ZM958.443 364.253L979.134 381.975C986.746 373.089 991.668 361.736 991.163 348.688L963.94 349.742L936.717 350.795C936.675 349.723 936.863 348.583 937.239 347.59C937.591 346.66 937.934 346.318 937.752 346.53L958.443 364.253ZM963.94 349.742L991.163 348.688C990.675 336.094 985.456 325.227 977.544 316.689L957.561 335.206L937.577 353.722C937.791 353.953 937.544 353.747 937.243 353.063C936.925 352.337 936.745 351.521 936.717 350.795L963.94 349.742ZM957.561 335.206L977.928 317.112C968.021 305.96 954.64 301.269 941 301.797L942.054 329.02L943.107 356.243C943.131 356.242 942.156 356.274 940.677 355.684C939.12 355.063 937.919 354.116 937.194 353.299L957.561 335.206ZM942.054 329.02L941 301.797C927.297 302.327 914.835 308.132 905.821 319.05L926.829 336.395L947.837 353.74C947.463 354.194 946.65 354.962 945.406 355.565C944.186 356.155 943.278 356.237 943.107 356.243L942.054 329.02ZM926.829 336.395L905.474 319.479C898.246 328.603 893.882 339.84 894.37 352.434L921.593 351.381L948.816 350.327C948.844 351.053 948.727 351.88 948.466 352.628C948.219 353.334 947.988 353.558 948.184 353.312L926.829 336.395ZM1109.69 391.843L1136.92 390.789L1133.79 309.979L1087.38 376.209L1109.69 391.843ZM1042.42 388.145L1023.26 407.508L1023.38 407.637L1023.52 407.763L1042.42 388.145ZM1039.31 301.506L1059.79 319.471V319.471L1039.31 301.506ZM1092.43 283.94L1081.92 309.076L1082.3 309.232L1082.67 309.377L1092.43 283.94ZM1101.84 289.15L1082.41 308.242L1083.31 309.167L1084.31 310.002L1101.84 289.15ZM1106.13 293.588L1084.07 309.566L1128.2 370.514L1133.31 295.441L1106.13 293.588ZM1110.58 283.238L1128.7 303.582L1128.76 303.53L1128.82 303.477L1110.58 283.238ZM1138.08 279.992L1130.47 306.152L1130.47 306.152L1138.08 279.992ZM1144.33 284.84L1120.1 297.307L1120.62 298.307L1121.21 299.261L1144.33 284.84ZM1146.74 290.805L1119.72 294.319L1119.88 295.525L1120.14 296.712L1146.74 290.805ZM1133.79 444.711L1115.07 424.917L1115 424.983L1114.93 425.049L1133.79 444.711ZM1055.47 455.982L1043.53 480.471V480.471L1055.47 455.982ZM1044.76 423.437L1064.75 441.942L1065.21 441.442L1065.65 440.92L1044.76 423.437ZM1051.5 416.148L1034.64 394.752L1034.15 395.139L1033.67 395.549L1051.5 416.148ZM1064.61 416.611L1048.42 438.526L1048.62 438.672L1048.82 438.815L1064.61 416.611ZM1104.84 416.75L1126.76 432.933L1126.76 432.933L1104.84 416.75ZM1071.3 357.946L1052.41 377.574L1052.6 377.759L1052.8 377.941L1071.3 357.946ZM1101.07 356.794L1121.78 374.485L1121.95 374.29L1122.11 374.093L1101.07 356.794ZM1100.21 328.473L1079.84 346.567L1080.01 346.749L1080.17 346.928L1100.21 328.473ZM1109.69 391.843L1087.38 376.209C1087.37 376.232 1087.36 376.344 1086.76 376.621C1085.94 376.996 1083.87 377.695 1079.83 377.852L1080.88 405.075L1081.93 432.298C1100.86 431.566 1119.82 424.871 1132 407.476L1109.69 391.843ZM1080.88 405.075L1079.83 377.852C1075.72 378.011 1069.76 376.654 1061.32 368.527L1042.42 388.145L1023.52 407.763C1039.58 423.246 1059.26 433.176 1081.93 432.298L1080.88 405.075ZM1042.42 388.145L1061.58 368.783C1054.22 361.491 1050.9 353.75 1050.54 344.451L1023.32 345.505L996.098 346.558C997.011 370.169 1006.43 390.856 1023.26 407.508L1042.42 388.145ZM1023.32 345.505L1050.54 344.451C1050.19 335.269 1052.89 327.339 1059.79 319.471L1039.31 301.506L1018.83 283.541C1003.14 301.428 995.179 322.831 996.098 346.558L1023.32 345.505ZM1039.31 301.506L1059.79 319.471C1067.32 310.89 1073.39 308.79 1078.36 308.598L1077.3 281.375L1076.25 254.152C1053.15 255.046 1033.89 266.368 1018.83 283.541L1039.31 301.506ZM1077.3 281.375L1078.36 308.598C1080.29 308.524 1081.34 308.831 1081.92 309.076L1092.43 283.94L1102.94 258.805C1094.33 255.205 1085.29 253.802 1076.25 254.152L1077.3 281.375ZM1092.43 283.94L1082.67 309.377C1083.4 309.656 1083.96 309.891 1084.37 310.077C1084.78 310.265 1084.99 310.376 1085.03 310.398C1085.08 310.426 1084.86 310.307 1084.45 310.016C1084.06 309.735 1083.31 309.161 1082.41 308.242L1101.84 289.15L1121.28 270.058C1115.25 263.924 1107.39 260.498 1102.18 258.503L1092.43 283.94ZM1101.84 289.15L1084.31 310.002C1084.62 310.268 1084.74 310.388 1084.71 310.355C1084.69 310.335 1084.62 310.263 1084.51 310.138C1084.41 310.013 1084.25 309.823 1084.07 309.566L1106.13 293.588L1128.2 277.611C1125.48 273.863 1122.33 270.783 1119.37 268.298L1101.84 289.15ZM1106.13 293.588L1133.31 295.441C1133.3 295.614 1133.2 296.729 1132.51 298.352C1131.76 300.081 1130.51 301.964 1128.7 303.582L1110.58 283.238L1092.46 262.893C1083.11 271.221 1079.6 282.159 1078.95 291.736L1106.13 293.588ZM1110.58 283.238L1128.82 303.477C1126.6 305.476 1124.63 306.178 1124.05 306.356C1123.5 306.524 1123.77 306.356 1125.28 306.297L1124.23 279.074L1123.18 251.851C1114.42 252.19 1102.15 254.164 1092.34 262.999L1110.58 283.238ZM1124.23 279.074L1125.28 306.297C1127.79 306.2 1129.52 306.233 1130.61 306.305C1131.14 306.34 1131.39 306.376 1131.42 306.381C1131.47 306.388 1131.11 306.338 1130.47 306.152L1138.08 279.992L1145.69 253.833C1138.3 251.684 1129.98 251.588 1123.18 251.851L1124.23 279.074ZM1138.08 279.992L1130.47 306.152C1129.17 305.774 1127.22 304.978 1125.14 303.368C1123 301.707 1121.28 299.598 1120.1 297.307L1144.33 284.84L1168.55 272.373C1163.39 262.35 1154.66 256.444 1145.69 253.833L1138.08 279.992ZM1144.33 284.84L1121.21 299.261C1121.24 299.3 1121 298.938 1120.71 298.2C1120.41 297.464 1119.96 296.142 1119.72 294.319L1146.74 290.805L1173.75 287.291C1172.84 280.291 1170.01 274.54 1167.44 270.419L1144.33 284.84ZM1146.74 290.805L1120.14 296.712C1120.07 296.363 1120.04 296.192 1120.05 296.257C1120.06 296.31 1120.09 296.493 1120.12 296.829C1120.19 297.52 1120.26 298.574 1120.32 300.067L1147.54 299.014L1174.76 297.96C1174.61 293.949 1174.28 289.174 1173.33 284.899L1146.74 290.805ZM1147.54 299.014L1120.32 300.067L1124.19 400.248L1151.42 399.195L1178.64 398.141L1174.76 297.96L1147.54 299.014ZM1151.42 399.195L1124.19 400.248C1124.64 411.675 1121.33 419.002 1115.07 424.917L1133.79 444.711L1152.51 464.504C1171.19 446.835 1179.63 423.818 1178.64 398.141L1151.42 399.195ZM1133.79 444.711L1114.93 425.049C1106.92 432.738 1098.83 436.006 1089.85 436.354L1090.9 463.577L1091.95 490.8C1115.23 489.899 1135.74 480.59 1152.65 464.372L1133.79 444.711ZM1090.9 463.577L1089.85 436.354C1082.21 436.65 1074.85 435.124 1067.4 431.492L1055.47 455.982L1043.53 480.471C1058.8 487.916 1075.07 491.454 1091.95 490.8L1090.9 463.577ZM1055.47 455.982L1067.4 431.492C1065.22 430.43 1063.6 429.525 1062.45 428.801C1061.26 428.059 1060.81 427.662 1060.82 427.672C1060.84 427.693 1061.06 427.886 1061.38 428.265C1061.71 428.644 1062.21 429.28 1062.75 430.188C1063.85 432.046 1065.2 435.19 1065.36 439.362L1038.14 440.415L1010.92 441.469C1011.43 454.645 1019.23 463.551 1024.4 468.201C1029.98 473.211 1036.81 477.194 1043.53 480.471L1055.47 455.982ZM1038.14 440.415L1065.36 439.362C1065.37 439.544 1065.36 439.844 1065.3 440.226C1065.24 440.611 1065.13 440.992 1065 441.34C1064.71 442.077 1064.45 442.266 1064.75 441.942L1044.76 423.437L1024.76 404.933C1015.68 414.749 1010.37 427.287 1010.92 441.469L1038.14 440.415ZM1044.76 423.437L1065.65 440.92C1066.93 439.395 1067.91 438.274 1068.64 437.49C1069.43 436.631 1069.62 436.497 1069.33 436.748L1051.5 416.148L1033.67 395.549C1030.33 398.444 1026.89 402.337 1023.86 405.954L1044.76 423.437ZM1051.5 416.148L1068.36 437.545C1067.03 438.597 1065.42 439.528 1063.59 440.193C1061.76 440.856 1060.03 441.143 1058.53 441.201L1057.48 413.978L1056.42 386.755C1048.59 387.058 1041.02 389.718 1034.64 394.752L1051.5 416.148ZM1057.48 413.978L1058.53 441.201C1052.66 441.429 1049.07 439.004 1048.42 438.526L1064.61 416.611L1080.79 394.695C1075.15 390.533 1066.81 386.353 1056.42 386.755L1057.48 413.978ZM1064.61 416.611L1048.82 438.815C1061.27 447.666 1075.62 452.415 1091.17 451.813L1090.12 424.59L1089.06 397.367C1086.55 397.464 1083.89 396.894 1080.39 394.406L1064.61 416.611ZM1090.12 424.59L1091.17 451.813C1105.68 451.251 1118.22 444.495 1126.76 432.933L1104.84 416.75L1082.92 400.566C1083.21 400.175 1084.06 399.219 1085.59 398.406C1087.13 397.588 1088.45 397.391 1089.06 397.367L1090.12 424.59ZM1104.84 416.75L1126.76 432.933C1134.46 422.494 1137.67 410.391 1137.2 398.049L1109.97 399.102L1082.75 400.156C1082.77 400.552 1082.75 400.799 1082.73 400.918C1082.72 401.035 1082.71 401.049 1082.73 400.987C1082.75 400.922 1082.78 400.83 1082.83 400.729C1082.85 400.682 1082.88 400.643 1082.89 400.613C1082.9 400.598 1082.91 400.587 1082.92 400.579C1082.92 400.575 1082.92 400.572 1082.92 400.569C1082.92 400.567 1082.92 400.566 1082.92 400.566L1104.84 416.75ZM1109.97 399.102L1137.2 398.049L1136.92 390.789L1109.69 391.843L1082.47 392.896L1082.75 400.156L1109.97 399.102ZM1064.71 344.145L1037.49 345.199C1037.99 358.31 1043.84 369.327 1052.41 377.574L1071.3 357.946L1090.19 338.318C1090.12 338.247 1090.59 338.688 1091.09 339.724C1091.61 340.816 1091.89 342.018 1091.93 343.092L1064.71 344.145ZM1071.3 357.946L1052.8 377.941C1062.33 386.763 1074.4 391.391 1087.6 390.88L1086.55 363.657L1085.49 336.434C1085.95 336.417 1086.86 336.48 1087.94 336.886C1089.01 337.286 1089.63 337.791 1089.81 337.952L1071.3 357.946ZM1086.55 363.657L1087.6 390.88C1100.78 390.37 1112.89 384.903 1121.78 374.485L1101.07 356.794L1080.35 339.104C1080.82 338.547 1081.72 337.749 1083.01 337.138C1084.28 336.54 1085.24 336.444 1085.49 336.434L1086.55 363.657ZM1101.07 356.794L1122.11 374.093C1129.31 365.337 1134.05 354.233 1133.55 341.481L1106.33 342.535L1079.11 343.588C1079.06 342.472 1079.26 341.349 1079.6 340.415C1079.92 339.542 1080.23 339.245 1080.02 339.496L1101.07 356.794ZM1106.33 342.535L1133.55 341.481C1133.08 329.136 1128.01 318.44 1120.25 310.018L1100.21 328.473L1080.17 346.928C1080.3 347.065 1080 346.773 1079.67 346.017C1079.32 345.222 1079.14 344.353 1079.11 343.588L1106.33 342.535ZM1100.21 328.473L1120.58 310.379C1110.82 299.399 1097.62 294.524 1083.89 295.055L1084.95 322.278L1086 349.501C1085.85 349.507 1084.76 349.508 1083.24 348.888C1081.65 348.245 1080.5 347.3 1079.84 346.567L1100.21 328.473ZM1084.95 322.278L1083.89 295.055C1070.52 295.573 1057.98 301.067 1048.91 312.103L1069.95 329.402L1091 346.7C1090.45 347.37 1089.49 348.224 1088.17 348.848C1087.57 349.135 1087.03 349.305 1086.63 349.399C1086.22 349.492 1086 349.501 1086 349.501L1084.95 322.278ZM1069.95 329.402L1048.91 312.103C1041.4 321.236 1037 332.556 1037.49 345.199L1064.71 344.145L1091.93 343.092C1091.96 343.818 1091.85 344.72 1091.53 345.599C1091.23 346.439 1090.92 346.804 1091 346.7L1069.95 329.402ZM1249.39 288.286L1227.69 304.761L1271.63 362.629L1276.57 290.139L1249.39 288.286ZM1282.07 274.904L1289.26 248.628L1289.26 248.628L1282.07 274.904ZM1288.56 279.742L1264.33 292.209L1264.67 292.855L1265.03 293.483L1288.56 279.742ZM1290.99 286.192L1263.95 289.502L1264.11 290.811L1264.39 292.098L1290.99 286.192ZM1294.91 387.582L1267.89 384.146L1267.76 385.153L1267.71 386.167L1294.91 387.582ZM1293.22 393.949L1317.69 405.928L1318.03 405.226L1318.33 404.506L1293.22 393.949ZM1258.98 398.424L1243.1 420.56L1243.77 421.044L1244.48 421.487L1258.98 398.424ZM1253.52 388.942L1280.45 384.775L1269.45 313.716L1230.6 374.223L1253.52 388.942ZM1184.56 385.31L1165.41 404.69V404.69L1184.56 385.31ZM1181.13 296.744L1160.66 278.765L1160.65 278.772L1181.13 296.744ZM1235.19 278.415L1225.43 303.852L1225.43 303.852L1235.19 278.415ZM1244.84 283.615L1226.34 303.61L1226.81 304.05L1227.31 304.468L1244.84 283.615ZM1214.15 354.599L1195.27 374.241L1195.45 374.419L1195.64 374.593L1214.15 354.599ZM1244.14 353.196L1223.45 335.473L1223.27 335.683L1223.1 335.897L1244.14 353.196ZM1243.26 324.148L1222.89 342.242L1223.08 342.455L1223.28 342.665L1243.26 324.148ZM1212.53 325.338L1191.52 307.993L1191.35 308.205L1191.17 308.421L1212.53 325.338ZM1249.39 288.286L1276.57 290.139C1276.52 290.789 1276.31 292.358 1275.33 294.33C1274.32 296.398 1272.81 298.193 1271.1 299.51C1267.98 301.912 1266.08 301.333 1269.03 301.219L1267.98 273.996L1266.92 246.773C1258.09 247.114 1247.22 249.145 1237.89 256.31C1227.57 264.248 1222.95 275.507 1222.21 286.434L1249.39 288.286ZM1267.98 273.996L1269.03 301.219C1271.53 301.122 1273.3 301.152 1274.47 301.227C1275.74 301.309 1275.71 301.41 1274.88 301.181L1282.07 274.904L1289.26 248.628C1281.99 246.638 1273.87 246.504 1266.92 246.773L1267.98 273.996ZM1282.07 274.904L1274.88 301.181C1273.76 300.876 1271.85 300.168 1269.73 298.591C1267.52 296.942 1265.64 294.745 1264.33 292.209L1288.56 279.742L1312.78 267.276C1307.36 256.748 1298.1 251.047 1289.26 248.628L1282.07 274.904ZM1288.56 279.742L1265.03 293.483C1265.1 293.594 1264.94 293.339 1264.71 292.74C1264.48 292.141 1264.13 291.038 1263.95 289.502L1290.99 286.192L1318.03 282.881C1317.2 276.087 1314.62 270.35 1312.08 266.002L1288.56 279.742ZM1290.99 286.192L1264.39 292.098C1264.32 291.75 1264.29 291.579 1264.3 291.644C1264.31 291.697 1264.33 291.879 1264.37 292.216C1264.44 292.906 1264.51 293.961 1264.57 295.454L1291.79 294.4L1319.01 293.347C1318.86 289.335 1318.53 284.561 1317.58 280.285L1290.99 286.192ZM1291.79 294.4L1264.57 295.454L1267.85 380.148L1295.07 379.094L1322.29 378.041L1319.01 293.347L1291.79 294.4ZM1295.07 379.094L1267.85 380.148C1267.9 381.634 1267.91 382.732 1267.9 383.498C1267.88 384.318 1267.85 384.466 1267.89 384.146L1294.91 387.582L1321.94 391.019C1322.47 386.802 1322.45 382.179 1322.29 378.041L1295.07 379.094ZM1294.91 387.582L1267.71 386.167C1267.78 384.797 1267.99 383.874 1268.09 383.511C1268.19 383.132 1268.24 383.078 1268.1 383.391L1293.22 393.949L1318.33 404.506C1320.04 400.442 1321.8 395.079 1322.12 388.998L1294.91 387.582ZM1293.22 393.949L1268.75 381.97C1271.26 376.843 1275.19 374.533 1276.95 373.792C1278.33 373.208 1278.33 373.562 1275.71 373.664L1276.77 400.887L1277.82 428.11C1288.1 427.712 1308.38 424.936 1317.69 405.928L1293.22 393.949ZM1276.77 400.887L1275.71 373.664C1274.07 373.727 1272.72 373.729 1271.65 373.694C1270.57 373.658 1269.88 373.588 1269.52 373.538C1269.14 373.485 1269.32 373.481 1269.89 373.658C1270.44 373.827 1271.78 374.293 1273.48 375.362L1258.98 398.424L1244.48 421.487C1250.72 425.41 1257.32 426.856 1262.05 427.51C1267.14 428.214 1272.52 428.315 1277.82 428.11L1276.77 400.887ZM1258.98 398.424L1274.86 376.289C1276.49 377.459 1277.94 379.036 1278.99 380.857C1279.99 382.609 1280.34 384.064 1280.45 384.775L1253.52 388.942L1226.6 393.109C1228.19 403.351 1233.27 413.509 1243.1 420.56L1258.98 398.424ZM1253.52 388.942L1230.6 374.223C1230.56 374.278 1230.58 374.238 1230.64 374.189C1230.69 374.145 1230.61 374.237 1230.25 374.406C1229.47 374.775 1227.32 375.536 1222.96 375.705L1224.01 402.928L1225.07 430.151C1244.63 429.394 1264.43 422.382 1276.45 403.661L1253.52 388.942ZM1224.01 402.928L1222.96 375.705C1218.46 375.879 1212.25 374.376 1203.7 365.931L1184.56 385.31L1165.41 404.69C1181.72 420.809 1201.82 431.051 1225.07 430.151L1224.01 402.928ZM1184.56 385.31L1203.7 365.931C1195.97 358.291 1192.53 350.226 1192.16 340.667L1164.94 341.72L1137.71 342.774C1138.64 366.769 1148.28 387.764 1165.41 404.69L1184.56 385.31ZM1164.94 341.72L1192.16 340.667C1191.78 330.884 1194.63 322.658 1201.6 314.717L1181.13 296.744L1160.65 278.772C1144.72 296.921 1136.78 318.679 1137.71 342.774L1164.94 341.72ZM1181.13 296.744L1201.6 314.724C1209.46 305.776 1215.86 303.519 1221.13 303.315L1220.07 276.092L1219.02 248.869C1195.58 249.776 1176.01 261.288 1160.66 278.765L1181.13 296.744ZM1220.07 276.092L1221.13 303.315C1223.36 303.229 1224.67 303.558 1225.43 303.852L1235.19 278.415L1244.95 252.978C1236.53 249.751 1227.76 248.531 1219.02 248.869L1220.07 276.092ZM1235.19 278.415L1225.43 303.852C1226.19 304.141 1226.79 304.391 1227.25 304.598C1227.72 304.807 1228 304.951 1228.13 305.02C1228.26 305.093 1228.16 305.047 1227.89 304.863C1227.63 304.687 1227.06 304.282 1226.34 303.61L1244.84 283.615L1263.35 263.621C1257.54 258.25 1250.27 255.022 1244.95 252.978L1235.19 278.415ZM1244.84 283.615L1227.31 304.468C1227.6 304.714 1227.77 304.873 1227.83 304.936C1227.89 304.999 1227.83 304.944 1227.69 304.761L1249.39 288.286L1271.08 271.812C1268.44 268.33 1265.44 265.338 1262.38 262.763L1244.84 283.615ZM1207.29 340.323L1180.07 341.377C1180.59 354.714 1186.57 365.882 1195.27 374.241L1214.15 354.599L1233.02 334.957C1232.85 334.791 1233.26 335.142 1233.72 336.094C1234.21 337.106 1234.48 338.244 1234.52 339.27L1207.29 340.323ZM1214.15 354.599L1195.64 374.593C1205.34 383.568 1217.55 388.032 1230.69 387.523L1229.63 360.3L1228.58 333.077C1228.85 333.067 1229.65 333.098 1230.7 333.482C1231.74 333.867 1232.4 334.377 1232.65 334.604L1214.15 354.599ZM1229.63 360.3L1230.69 387.523C1244.22 387 1256.41 381.176 1265.19 370.494L1244.14 353.196L1223.1 335.897C1223.51 335.393 1224.39 334.552 1225.76 333.884C1227.11 333.223 1228.19 333.093 1228.58 333.077L1229.63 360.3ZM1244.14 353.196L1264.83 370.918C1272.45 362.031 1277.37 350.679 1276.86 337.631L1249.64 338.684L1222.42 339.738C1222.38 338.665 1222.56 337.525 1222.94 336.533C1223.29 335.602 1223.63 335.261 1223.45 335.473L1244.14 353.196ZM1249.64 338.684L1276.86 337.631C1276.38 325.036 1271.16 314.17 1263.24 305.632L1243.26 324.148L1223.28 342.665C1223.49 342.896 1223.24 342.689 1222.94 342.005C1222.63 341.28 1222.44 340.464 1222.42 339.738L1249.64 338.684ZM1243.26 324.148L1263.63 306.055C1253.72 294.903 1240.34 290.212 1226.7 290.74L1227.75 317.963L1228.81 345.186C1228.83 345.185 1227.86 345.216 1226.38 344.626C1224.82 344.005 1223.62 343.059 1222.89 342.242L1243.26 324.148ZM1227.75 317.963L1226.7 290.74C1213 291.27 1200.53 297.075 1191.52 307.993L1212.53 325.338L1233.54 342.683C1233.16 343.137 1232.35 343.905 1231.11 344.507C1229.89 345.098 1228.98 345.179 1228.81 345.186L1227.75 317.963ZM1212.53 325.338L1191.17 308.421C1183.95 317.545 1179.58 328.783 1180.07 341.377L1207.29 340.323L1234.52 339.27C1234.54 339.995 1234.43 340.823 1234.17 341.571C1233.92 342.276 1233.69 342.501 1233.88 342.254L1212.53 325.338ZM1311 285.417L1283.97 281.981L1283.85 282.988L1283.79 284.002L1311 285.417ZM1312.93 278.799L1288.46 266.821L1288.11 267.522L1287.81 268.242L1312.93 278.799ZM1348.17 275.254L1331.34 296.679L1331.51 296.81L1331.68 296.938L1348.17 275.254ZM1352.93 285.491L1325.76 287.482L1325.82 288.368L1325.95 289.248L1352.93 285.491ZM1356.56 385.681L1329.54 382.245L1329.41 383.252L1329.36 384.266L1356.56 385.681ZM1354.63 392.057L1330.11 380.176L1329.96 380.498L1329.81 380.825L1354.63 392.057ZM1317.36 393.257L1293.13 405.724L1293.39 406.229L1293.67 406.724L1317.36 393.257ZM1314.93 387.05L1287.92 390.564L1288.07 391.769L1288.34 392.956L1314.93 387.05ZM1349.03 247.351L1324.51 235.47L1324.36 235.793L1324.21 236.119L1349.03 247.351ZM1342.93 252.434L1333.72 226.792L1333.72 226.792L1342.93 252.434ZM1318.49 253.38L1325.68 227.104V227.104L1318.49 253.38ZM1311.75 248.552L1287.53 261.018L1287.86 261.665L1288.23 262.292L1311.75 248.552ZM1309.33 242.344L1282.29 245.655L1282.45 246.964L1282.74 248.251L1309.33 242.344ZM1308.69 225.647L1281.66 222.211L1281.53 223.218L1281.48 224.232L1308.69 225.647ZM1310.62 219.272L1285.97 207.676L1285.88 207.857L1285.8 208.039L1310.62 219.272ZM1347.89 217.829L1323.82 230.588L1324.08 231.085L1324.36 231.57L1347.89 217.829ZM1350.32 224.279L1323.28 227.589L1323.44 228.898L1323.72 230.185L1350.32 224.279ZM1350.96 240.975L1323.94 237.539L1323.81 238.546L1323.76 239.56L1350.96 240.975ZM1311.08 293.654L1338.3 292.6C1338.16 289.032 1338.18 287.314 1338.21 286.832L1311 285.417L1283.79 284.002C1283.63 287.082 1283.7 290.855 1283.85 294.708L1311.08 293.654ZM1311 285.417L1338.03 288.853C1337.94 289.504 1337.84 289.87 1337.83 289.911C1337.81 289.955 1337.86 289.778 1338.04 289.357L1312.93 278.799L1287.81 268.242C1286.14 272.223 1284.62 276.882 1283.97 281.981L1311 285.417ZM1312.93 278.799L1337.39 290.778C1334.37 296.961 1329.59 299.015 1328.76 299.325C1328.05 299.596 1328.93 299.143 1332.61 299L1331.56 271.777L1330.5 244.554C1323.85 244.812 1316.48 245.728 1309.55 248.34C1302.51 250.99 1293.58 256.356 1288.46 266.821L1312.93 278.799ZM1331.56 271.777L1332.61 299C1333.76 298.956 1334.6 298.975 1335.19 299.013C1335.78 299.051 1336.01 299.103 1335.94 299.087C1335.87 299.073 1335.37 298.965 1334.59 298.631C1333.79 298.291 1332.63 297.69 1331.34 296.679L1348.17 275.254L1365 253.829C1353.8 245.033 1339.96 244.188 1330.5 244.554L1331.56 271.777ZM1348.17 275.254L1331.68 296.938C1329.36 295.176 1327.74 292.981 1326.78 290.911C1325.89 288.996 1325.77 287.658 1325.76 287.482L1352.93 285.491L1380.1 283.5C1379.38 273.655 1375.53 261.838 1364.66 253.57L1348.17 275.254ZM1352.93 285.491L1325.95 289.248C1325.94 289.238 1325.96 289.33 1325.98 289.548C1326 289.761 1326.03 290.055 1326.05 290.439C1326.11 291.217 1326.17 292.243 1326.22 293.553L1353.44 292.499L1380.67 291.445C1380.54 288.12 1380.33 284.705 1379.91 281.734L1352.93 285.491ZM1353.44 292.499L1326.22 293.553L1329.5 378.246L1356.72 377.193L1383.94 376.139L1380.67 291.445L1353.44 292.499ZM1356.72 377.193L1329.5 378.246C1329.56 379.733 1329.56 380.831 1329.55 381.596C1329.54 382.417 1329.5 382.565 1329.54 382.245L1356.56 385.681L1383.59 389.117C1384.13 384.9 1384.1 380.278 1383.94 376.139L1356.72 377.193ZM1356.56 385.681L1329.36 384.266C1329.45 382.493 1329.77 381.257 1329.94 380.701C1330.12 380.128 1330.23 379.936 1330.11 380.176L1354.63 392.057L1379.15 403.938C1381.16 399.778 1383.42 393.93 1383.77 387.096L1356.56 385.681ZM1354.63 392.057L1329.81 380.825C1332.82 374.175 1337.93 371.92 1338.87 371.561C1339.7 371.247 1338.89 371.703 1335.19 371.846L1336.24 399.069L1337.29 426.292C1343.92 426.036 1351.33 425.124 1358.29 422.472C1365.36 419.775 1374.51 414.214 1379.45 403.289L1354.63 392.057ZM1336.24 399.069L1335.19 371.846C1331.69 371.982 1330.98 371.587 1331.91 371.873C1333.08 372.234 1337.79 374.073 1341.04 379.79L1317.36 393.257L1293.67 406.724C1299.35 416.71 1308.42 421.651 1315.88 423.949C1323.11 426.173 1330.63 426.55 1337.29 426.292L1336.24 399.069ZM1317.36 393.257L1341.58 380.79C1341.45 380.54 1341.36 380.349 1341.3 380.215C1341.24 380.081 1341.21 380.018 1341.21 380.023C1341.22 380.027 1341.25 380.119 1341.31 380.295C1341.36 380.47 1341.44 380.756 1341.53 381.143L1314.93 387.05L1288.34 392.956C1289.42 397.805 1291.3 402.165 1293.13 405.724L1317.36 393.257ZM1314.93 387.05L1341.95 383.536C1341.95 383.536 1341.95 383.533 1341.95 383.527C1341.95 383.522 1341.95 383.513 1341.95 383.502C1341.94 383.479 1341.94 383.447 1341.93 383.404C1341.93 383.318 1341.91 383.198 1341.9 383.043C1341.87 382.729 1341.84 382.312 1341.8 381.778C1341.73 380.701 1341.66 379.3 1341.59 377.536L1314.36 378.59L1287.14 379.643C1287.29 383.616 1287.52 387.486 1287.92 390.564L1314.93 387.05ZM1314.36 378.59L1341.59 377.536L1338.3 292.6L1311.08 293.654L1283.85 294.708L1287.14 379.643L1314.36 378.59ZM1349.03 247.351L1324.21 236.119C1325.47 233.339 1327.3 231.071 1329.29 229.413C1331.18 227.838 1332.86 227.101 1333.72 226.792L1342.93 252.434L1352.13 278.076C1360.1 275.216 1368.99 269.321 1373.85 258.583L1349.03 247.351ZM1342.93 252.434L1333.72 226.792C1334.21 226.618 1334.17 226.691 1333.36 226.818C1332.58 226.94 1331.35 227.073 1329.59 227.141L1330.64 254.364L1331.69 281.587C1338.17 281.336 1345.39 280.496 1352.13 278.076L1342.93 252.434ZM1330.64 254.364L1329.59 227.141C1327.93 227.205 1326.78 227.168 1326.05 227.108C1325.29 227.047 1325.23 226.982 1325.68 227.104L1318.49 253.38L1311.29 279.657C1318.14 281.531 1325.28 281.835 1331.69 281.587L1330.64 254.364ZM1318.49 253.38L1325.68 227.104C1326.74 227.394 1328.46 228.037 1330.36 229.401C1332.32 230.813 1334.03 232.671 1335.28 234.811L1311.75 248.552L1288.23 262.292C1293.82 271.867 1302.59 277.274 1311.29 279.657L1318.49 253.38ZM1311.75 248.552L1335.98 236.085C1335.85 235.835 1335.76 235.644 1335.7 235.51C1335.64 235.375 1335.61 235.312 1335.61 235.317C1335.61 235.321 1335.65 235.414 1335.71 235.59C1335.76 235.765 1335.84 236.05 1335.93 236.438L1309.33 242.344L1282.74 248.251C1283.81 253.1 1285.7 257.459 1287.53 261.018L1311.75 248.552ZM1309.33 242.344L1336.37 239.034C1336.28 238.249 1336.12 236.333 1335.99 232.831L1308.76 233.884L1281.54 234.938C1281.69 238.856 1281.92 242.58 1282.29 245.655L1309.33 242.344ZM1308.76 233.884L1335.99 232.831C1335.85 229.263 1335.87 227.544 1335.89 227.063L1308.69 225.647L1281.48 224.232C1281.32 227.312 1281.39 231.085 1281.54 234.938L1308.76 233.884ZM1308.69 225.647L1335.71 229.084C1335.62 229.806 1335.49 230.288 1335.43 230.502C1335.36 230.714 1335.34 230.72 1335.44 230.504L1310.62 219.272L1285.8 208.039C1283.94 212.146 1282.33 216.925 1281.66 222.211L1308.69 225.647ZM1310.62 219.272L1335.27 230.867C1332.42 236.934 1327.78 239.101 1326.75 239.504C1325.91 239.829 1326.69 239.37 1330.3 239.231L1329.24 212.008L1328.19 184.785C1321.48 185.044 1313.98 185.996 1306.94 188.743C1299.7 191.567 1290.91 197.167 1285.97 207.676L1310.62 219.272ZM1329.24 212.008L1330.3 239.231C1333.82 239.094 1334.45 239.499 1333.41 239.173C1332.1 238.764 1327.08 236.742 1323.82 230.588L1347.89 217.829L1371.96 205.07C1366.43 194.642 1357.17 189.513 1349.65 187.163C1342.39 184.897 1334.83 184.527 1328.19 184.785L1329.24 212.008ZM1347.89 217.829L1324.36 231.57C1324.43 231.681 1324.27 231.426 1324.04 230.827C1323.81 230.228 1323.46 229.125 1323.28 227.589L1350.32 224.279L1377.36 220.968C1376.53 214.173 1373.95 208.436 1371.41 204.089L1347.89 217.829ZM1350.32 224.279L1323.72 230.185C1323.64 229.837 1323.62 229.666 1323.63 229.731C1323.64 229.784 1323.66 229.966 1323.7 230.303C1323.76 230.993 1323.84 232.048 1323.9 233.541L1351.12 232.487L1378.34 231.434C1378.19 227.422 1377.86 222.648 1376.91 218.372L1350.32 224.279ZM1351.12 232.487L1323.9 233.541C1323.95 235.027 1323.96 236.125 1323.95 236.891C1323.93 237.712 1323.9 237.859 1323.94 237.539L1350.96 240.975L1377.99 244.411C1378.53 240.195 1378.5 235.572 1378.34 231.434L1351.12 232.487ZM1350.96 240.975L1323.76 239.56C1323.85 237.787 1324.17 236.552 1324.34 235.996C1324.51 235.422 1324.63 235.231 1324.51 235.47L1349.03 247.351L1373.55 259.232C1375.56 255.072 1377.81 249.225 1378.17 242.391L1350.96 240.975ZM1483.72 284.306L1463.74 302.823L1463.87 302.962L1464 303.099L1483.72 284.306ZM1503.17 379.765L1476.14 376.328L1476.01 377.335L1475.96 378.349L1503.17 379.765ZM1501.47 385.889L1526.12 397.485L1526.2 397.304L1526.29 397.121L1501.47 385.889ZM1462.66 384.968L1488.45 376.2L1488.23 375.551L1487.98 374.914L1462.66 384.968ZM1452.67 314.832L1434.17 334.826L1434.38 335.023L1434.6 335.215L1452.67 314.832ZM1421.95 316.263L1402.34 297.354L1402.14 297.555L1401.95 297.759L1421.95 316.263ZM1418.23 383.052L1391.21 379.616L1391.08 380.623L1391.03 381.636L1418.23 383.052ZM1416.29 389.186L1392.13 376.594L1391.69 377.445L1391.3 378.325L1416.29 389.186ZM1379.02 390.628L1354.8 403.095L1355.06 403.6L1355.34 404.095L1379.02 390.628ZM1376.6 384.421L1349.56 387.731L1349.72 389.04L1350.01 390.327L1376.6 384.421ZM1372.65 282.304L1345.62 278.868L1345.5 279.875L1345.44 280.889L1372.65 282.304ZM1374.83 275.919L1398.98 288.51L1399.04 288.406L1399.09 288.301L1374.83 275.919ZM1411.59 274.011L1434.52 259.301L1434.41 259.128L1434.29 258.957L1411.59 274.011ZM1414.39 283.839L1387.17 284.893L1391.14 387.403L1438.55 296.431L1414.39 283.839ZM1418.56 278.831L1437.86 298.063L1437.86 298.063L1418.56 278.831ZM1424.9 273.496L1440.06 296.129L1440.55 295.802L1441.02 295.454L1424.9 273.496ZM1442.83 267.228L1443.88 294.451C1451.94 294.139 1457.93 296.552 1463.74 302.823L1483.72 284.306L1503.7 265.79C1487.26 248.041 1465.99 239.068 1441.78 240.005L1442.83 267.228ZM1483.72 284.306L1464 303.099C1470.3 309.711 1474 318.01 1474.45 329.741L1501.68 328.688L1528.9 327.634C1527.98 303.874 1519.71 282.586 1503.45 265.513L1483.72 284.306ZM1501.68 328.688L1474.45 329.741L1476.1 372.33L1503.32 371.276L1530.55 370.223L1528.9 327.634L1501.68 328.688ZM1503.32 371.276L1476.1 372.33C1476.16 373.817 1476.17 374.914 1476.15 375.68C1476.14 376.501 1476.1 376.649 1476.14 376.328L1503.17 379.765L1530.19 383.201C1530.73 378.984 1530.71 374.361 1530.55 370.223L1503.32 371.276ZM1503.17 379.765L1475.96 378.349C1476.04 376.921 1476.27 375.888 1476.42 375.338C1476.58 374.784 1476.7 374.545 1476.65 374.657L1501.47 385.889L1526.29 397.121C1528.19 392.915 1530.05 387.451 1530.37 381.18L1503.17 379.765ZM1501.47 385.889L1476.81 374.293C1479.67 368.227 1484.31 366.06 1485.34 365.657C1486.18 365.332 1485.4 365.79 1481.79 365.93L1482.84 393.153L1483.9 420.376C1490.61 420.116 1498.1 419.164 1505.14 416.418C1512.39 413.593 1521.18 407.994 1526.12 397.485L1501.47 385.889ZM1482.84 393.153L1481.79 365.93C1477.93 366.079 1477.75 365.507 1479.44 366.192C1480.49 366.616 1482.31 367.555 1484.19 369.416C1486.16 371.358 1487.61 373.731 1488.45 376.2L1462.66 384.968L1436.86 393.735C1440.84 405.447 1449.61 412.893 1458.97 416.686C1467.39 420.1 1476.3 420.67 1483.9 420.376L1482.84 393.153ZM1462.66 384.968L1487.98 374.914C1488.22 375.536 1488.33 375.932 1488.34 376.008C1488.37 376.093 1488.34 375.986 1488.28 375.641C1488.17 374.917 1488.03 373.627 1487.95 371.629L1460.73 372.683L1433.5 373.736C1433.75 380.077 1434.52 387.923 1437.34 395.022L1462.66 384.968ZM1460.73 372.683L1487.95 371.629L1486.3 329.04L1459.08 330.094L1431.85 331.147L1433.5 373.736L1460.73 372.683ZM1459.08 330.094L1486.3 329.04C1485.83 316.855 1481.57 304.042 1470.75 294.448L1452.67 314.832L1434.6 335.215C1433.46 334.208 1432.63 332.976 1432.16 331.863C1431.74 330.86 1431.83 330.47 1431.85 331.147L1459.08 330.094ZM1452.67 314.832L1471.18 294.837C1460.85 285.283 1448.07 282.172 1436.16 282.633L1437.21 309.856L1438.26 337.079C1438.9 337.054 1438.55 337.161 1437.57 336.846C1436.49 336.498 1435.24 335.823 1434.17 334.826L1452.67 314.832ZM1437.21 309.856L1436.16 282.633C1423.79 283.112 1411.73 287.615 1402.34 297.354L1421.95 316.263L1441.56 335.172C1440.97 335.784 1440.14 336.375 1439.22 336.76C1438.36 337.122 1437.93 337.092 1438.26 337.079L1437.21 309.856ZM1421.95 316.263L1401.95 297.759C1392.58 307.883 1389.03 320.442 1389.51 332.786L1416.73 331.733L1443.95 330.679C1443.94 330.333 1444.01 330.839 1443.67 331.853C1443.3 332.941 1442.67 333.979 1441.94 334.768L1421.95 316.263ZM1416.73 331.733L1389.51 332.786L1391.17 375.617L1418.39 374.564L1445.61 373.51L1443.95 330.679L1416.73 331.733ZM1418.39 374.564L1391.17 375.617C1391.22 377.104 1391.23 378.202 1391.22 378.967C1391.2 379.788 1391.17 379.936 1391.21 379.616L1418.23 383.052L1445.26 386.488C1445.79 382.271 1445.77 377.649 1445.61 373.51L1418.39 374.564ZM1418.23 383.052L1391.03 381.636C1391.12 379.801 1391.47 378.448 1391.71 377.691C1391.95 376.932 1392.15 376.554 1392.13 376.594L1416.29 389.186L1440.45 401.777C1442.69 397.47 1445.07 391.517 1445.44 384.467L1418.23 383.052ZM1416.29 389.186L1391.3 378.325C1394.13 371.817 1399.08 369.445 1400.24 368.986C1401.19 368.615 1400.49 369.077 1396.86 369.217L1397.91 396.44L1398.96 423.663C1405.65 423.404 1413.18 422.457 1420.25 419.668C1427.54 416.79 1436.52 410.991 1441.27 400.046L1416.29 389.186ZM1397.91 396.44L1396.86 369.217C1393.36 369.353 1392.65 368.958 1393.58 369.244C1394.75 369.605 1399.45 371.444 1402.71 377.161L1379.02 390.628L1355.34 404.095C1361.02 414.081 1370.08 419.022 1377.55 421.32C1384.78 423.544 1392.3 423.921 1398.96 423.663L1397.91 396.44ZM1379.02 390.628L1403.25 378.161C1403.12 377.911 1403.03 377.72 1402.97 377.586C1402.9 377.452 1402.88 377.388 1402.88 377.393C1402.88 377.398 1402.92 377.49 1402.97 377.666C1403.03 377.841 1403.11 378.127 1403.2 378.514L1376.6 384.421L1350.01 390.327C1351.08 395.176 1352.97 399.536 1354.8 403.095L1379.02 390.628ZM1376.6 384.421L1403.64 381.11C1403.55 380.326 1403.39 378.409 1403.26 374.907L1376.03 375.961L1348.81 377.014C1348.96 380.933 1349.18 384.656 1349.56 387.731L1376.6 384.421ZM1376.03 375.961L1403.26 374.907L1399.94 289.245L1372.72 290.299L1345.49 291.352L1348.81 377.014L1376.03 375.961ZM1372.72 290.299L1399.94 289.245C1399.81 285.882 1399.83 284.222 1399.86 283.719L1372.65 282.304L1345.44 280.889C1345.28 283.947 1345.35 287.617 1345.49 291.352L1372.72 290.299ZM1372.65 282.304L1399.68 285.74C1399.54 286.827 1399.31 287.606 1399.17 288.036C1399.02 288.463 1398.92 288.627 1398.98 288.51L1374.83 275.919L1350.67 263.327C1348.43 267.618 1346.39 272.87 1345.62 278.868L1372.65 282.304ZM1374.83 275.919L1399.09 288.301C1395.94 294.473 1391.13 296.44 1390.41 296.703C1389.74 296.951 1390.65 296.512 1394.28 296.371L1393.22 269.148L1392.17 241.925C1385.64 242.178 1378.4 243.064 1371.59 245.569C1364.75 248.088 1355.81 253.245 1350.56 263.537L1374.83 275.919ZM1393.22 269.148L1394.28 296.371C1397.82 296.234 1398.81 296.569 1398.22 296.414C1397.73 296.283 1392.74 294.885 1388.88 289.066L1411.59 274.011L1434.29 258.957C1428.03 249.515 1418.79 245.495 1412.17 243.743C1405.46 241.966 1398.47 241.681 1392.17 241.925L1393.22 269.148ZM1411.59 274.011L1388.66 288.722C1387.24 286.511 1387.17 284.824 1387.17 284.893L1414.39 283.839L1441.62 282.785C1441.32 275.111 1439.38 266.871 1434.52 259.301L1411.59 274.011ZM1414.39 283.839L1438.55 296.431C1437.99 297.502 1437.5 298.236 1437.26 298.576C1437 298.945 1436.83 299.143 1436.83 299.149C1436.81 299.165 1436.88 299.078 1437.07 298.877C1437.25 298.68 1437.51 298.411 1437.86 298.063L1418.56 278.831L1399.26 259.599C1397.07 261.797 1392.95 266.036 1390.23 271.247L1414.39 283.839ZM1418.56 278.831L1437.86 298.063C1439.07 296.843 1439.82 296.294 1440.06 296.129L1424.9 273.496L1409.73 250.864C1405.88 253.442 1402.4 256.449 1399.26 259.599L1418.56 278.831ZM1424.9 273.496L1441.02 295.454C1441.98 294.748 1442.71 294.497 1443.88 294.451L1442.83 267.228L1441.78 240.005C1429.72 240.472 1418.49 244.399 1408.77 251.538L1424.9 273.496Z" fill="#FF5E08" mask="url(#path-13-outside-1_376_1171)"/>
<defs>
<linearGradient id="paint0_linear_376_1171" x1="805.817" y1="-134.699" x2="1051.17" y2="1328.82" gradientUnits="userSpaceOnUse">
<stop offset="8e-08" stop-color="white"/>
<stop offset="1" stop-color="#BF5A00"/>
</linearGradient>
<linearGradient id="paint1_linear_376_1171" x1="737.593" y1="-434.607" x2="991.392" y2="889.75" gradientUnits="userSpaceOnUse">
<stop offset="8e-08" stop-color="white"/>
<stop offset="1" stop-color="#FFE6D3"/>
</linearGradient>
<linearGradient id="paint2_linear_376_1171" x1="678.345" y1="-206.069" x2="1036.62" y2="759.017" gradientUnits="userSpaceOnUse">
<stop stop-color="#FCC529"/>
<stop offset="1" stop-color="#FB8243"/>
</linearGradient>
</defs>
</svg>
