<svg width="1429" height="1296" viewBox="0 0 1429 1296" fill="none" xmlns="http://www.w3.org/2000/svg">
<path d="M860.546 1295.27C730.334 1295.27 611.067 1281.91 506.055 1255.58C401.483 1229.36 310.573 1190.18 235.848 1139.14C159.601 1087.06 100.612 1023.07 60.521 948.956C20.362 874.717 0 791.97 0 703.015C0 527.088 56.952 363.661 160.366 242.841C217.106 176.551 286.156 124.817 365.599 89.0731C449.745 51.2151 544.291 32.019 646.609 32.019C834.2 32.019 1024.67 86.503 1169.17 181.502C1336.17 291.286 1428.13 444.424 1428.13 612.705C1428.13 696.976 1417.99 778.01 1397.99 853.557C1376.16 936.052 1343.15 1009.45 1299.88 1071.71C1251.42 1141.44 1190.95 1195.98 1120.16 1233.79C1043.79 1274.58 956.449 1295.27 860.546 1295.27Z" fill="url(#paint0_linear_332_549)"/>
<path d="M860.546 1263.25C730.334 1263.25 611.067 1249.9 506.055 1223.56C401.483 1197.34 310.573 1158.16 235.848 1107.12C159.601 1055.04 100.612 991.052 60.521 916.938C20.362 842.699 0 759.953 0 670.997C0 495.07 56.952 331.643 160.366 210.823C217.106 144.533 286.156 92.799 365.599 57.055C449.745 19.197 544.291 0 646.609 0C834.2 0 1024.67 54.484 1169.17 149.483C1336.17 259.267 1428.13 412.405 1428.13 580.686C1428.13 664.957 1417.99 745.991 1397.99 821.538C1376.16 904.033 1343.15 977.43 1299.88 1039.69C1251.42 1109.43 1190.95 1163.96 1120.16 1201.78C1043.79 1242.57 956.449 1263.25 860.546 1263.25Z" fill="url(#paint1_linear_332_549)"/>
<path d="M1314.25 443.918L143.27 885.968L303.781 1147.92C363.621 1179.48 431.35 1204.83 506.056 1223.56C611.067 1249.9 730.335 1263.25 860.547 1263.25C956.45 1263.25 1043.79 1242.57 1120.16 1201.78C1190.95 1163.96 1251.42 1109.43 1299.88 1039.69C1343.14 977.43 1376.15 904.033 1397.99 821.538C1410.41 774.633 1419.02 725.609 1423.77 675.012L1314.25 443.918Z" fill="#F4BE9A"/>
<path d="M1340.81 580.687C1340.81 878.167 1200.52 1175.93 860.546 1175.93C356.994 1175.93 87.3223 968.477 87.3223 670.997C87.3223 373.517 272.583 87.3218 646.609 87.3218C986.586 87.3218 1340.81 283.207 1340.81 580.687Z" fill="url(#paint2_linear_332_549)"/>
<path d="M632.533 932.904C604.692 932.904 576.89 923.78 554.248 907.215C530.829 890.08 513.99 866.317 505.553 838.492C474.297 735.429 448.386 581.195 502.442 431.709C521.295 379.572 571.375 344.543 627.06 344.543C638.509 344.543 649.959 346.034 661.092 348.975C746.793 371.62 873.439 424.921 990.09 550.247C1013.78 575.7 1026.43 608.855 1025.71 643.602C1024.99 678.331 1010.99 710.944 986.296 735.434C925.353 795.865 821.605 878.047 673.438 926.372C660.152 930.707 646.39 932.904 632.533 932.904Z" fill="#FF5E08"/>
<path d="M657.374 363.048C740.688 385.061 864.908 437.117 979.438 560.164C1023.07 607.046 1021.53 680.005 976.049 725.102C914.928 785.709 813.384 865.422 668.925 912.538C606.08 933.035 538.664 897.528 519.481 834.269C489.771 736.298 462.937 583.759 516.129 436.659C536.885 379.26 598.363 347.456 657.374 363.048Z" fill="white"/>
<path d="M823.879 1095.88C493.106 1095.88 260.522 1011.15 135.713 872.35C234.088 1057.94 480.808 1175.93 860.547 1175.93C1197.53 1175.93 1338.32 883.388 1340.78 588.545C1301.28 848.881 1128.33 1095.88 823.879 1095.88Z" fill="#FF5E08"/>
<path d="M637.877 157.179C874.356 157.179 1146.6 242.8 1290.44 395.041C1180.85 204.422 909.47 87.3218 646.609 87.3218C322.525 87.3218 140.164 302.192 97.2422 553.093C158.051 331.391 339.147 157.179 637.877 157.179Z" fill="#FDD967"/>
<path d="M638.704 179.009C669.154 179.009 693.838 169.235 693.838 157.179C693.838 145.123 669.154 135.349 638.704 135.349C608.255 135.349 583.57 145.123 583.57 157.179C583.57 169.235 608.255 179.009 638.704 179.009Z" fill="white"/>
<path d="M548.933 177.061C558.159 175.806 565.035 170.351 564.29 164.875C563.546 159.399 555.463 155.977 546.238 157.231C537.012 158.485 530.137 163.941 530.881 169.416C531.625 174.892 539.708 178.315 548.933 177.061Z" fill="white"/>
<path d="M138.118 596.638L93.2657 579.442C91.3077 594.374 89.8347 609.409 88.8457 624.512C116.666 626.737 145.887 628.227 158.412 626.08C185.529 621.431 237.438 581.918 237.438 581.918C225.043 585.792 138.118 596.638 138.118 596.638Z" fill="#FF5E08"/>
<path d="M1322.75 467.217C1322.7 467.265 1260.07 498.945 1200.4 507.434C1200.4 507.434 1257.16 523.443 1332.11 501.287C1329.53 489.738 1326.41 478.378 1322.75 467.217Z" fill="#FF5E08"/>
<path d="M158.412 620.44C145.948 622.576 116.955 621.112 89.2587 618.905C89.1207 620.774 88.9687 622.641 88.8457 624.512C116.666 626.737 145.887 628.227 158.412 626.08C185.529 621.431 237.438 581.918 237.438 581.918C237.438 581.918 185.529 615.792 158.412 620.44Z" fill="white"/>
<path d="M1200.4 507.434C1200.4 507.434 1257.16 523.443 1332.11 501.287C1331.59 498.993 1331.04 496.712 1330.49 494.433C1256.86 515.597 1200.4 507.434 1200.4 507.434Z" fill="white"/>
<defs>
<linearGradient id="paint0_linear_332_549" x1="516.176" y1="-168.091" x2="1016.04" y2="1932.6" gradientUnits="userSpaceOnUse">
<stop offset="8e-08" stop-color="white"/>
<stop offset="1" stop-color="#BF5A00"/>
</linearGradient>
<linearGradient id="paint1_linear_332_549" x1="546.844" y1="-190.03" x2="931.095" y2="1696.3" gradientUnits="userSpaceOnUse">
<stop offset="8e-08" stop-color="white"/>
<stop offset="1" stop-color="#FFE6D3"/>
</linearGradient>
<linearGradient id="paint2_linear_332_549" x1="481.029" y1="5.95827" x2="917.634" y2="1181.88" gradientUnits="userSpaceOnUse">
<stop stop-color="#FCC529"/>
<stop offset="1" stop-color="#FB8243"/>
</linearGradient>
</defs>
</svg>
